<?xml version="1.0" encoding="utf-8"?>
<!-- Generator: Adobe Illustrator 22.1.0, SVG Export Plug-In . SVG Version: 6.00 Build 0)  -->
<svg version="1.1" id="Слой_1" xmlns="http://www.w3.org/2000/svg" xmlns:xlink="http://www.w3.org/1999/xlink" x="0px" y="0px"
	 width="898.666px" height="124.584px" viewBox="0 0 898.666 124.584" enable-background="new 0 0 898.666 124.584"
	 xml:space="preserve">
<g>
	<path fill="#FF9300" d="M108.471,87.915c-2.916,24.781-20.991,34.66-63.355,34.66H-0.096L14.087,2.019h45.212
		c40.857,0,56.105,9.879,53.19,34.659c-1.458,12.391-7.782,20.595-20.242,25.452C105.111,66.65,109.987,75.022,108.471,87.915z
		 M76.557,85.906c0.945-8.037-5.122-10.55-25.886-10.55H37.609l-2.482,21.098h13.062C68.952,96.454,75.611,93.942,76.557,85.906z
		 M40.682,49.236h13.062c19.257,0,25.413-2.511,26.358-10.548c0.946-8.038-4.619-10.548-23.876-10.548H43.164L40.682,49.236z"/>
	<path fill="#FF9300" d="M177.122,96.454l-3.073,26.121h-56.263l3.073-26.121h12.057l8.037-68.314h-12.057l3.073-26.121h56.263
		l-3.073,26.121h-12.056l-8.037,68.314H177.122z"/>
	<path fill="#FF9300" d="M263.296,122.575l-25.255-47.219h-9.545l-5.555,47.219h-32.15L204.974,2.019h32.15l-5.555,47.217h9.545
		l36.366-47.217h36.002l-46.442,60.278l32.259,60.278H263.296z"/>
	<path fill="#FF9300" d="M406.188,96.454l-3.073,26.121h-90.423L326.875,2.019h66.311l-3.073,26.121h-34.16l-2.482,21.097h46.216
		l-3.073,26.12h-46.216l-2.482,21.098H406.188z"/>
	<path fill="#FFFFFF" d="M519.894,86.408c-2.896,24.613-22.911,38.177-55.731,38.177c-32.987,0-49.545-14.4-46.511-40.186h32.15
		c-0.985,8.371,5.329,13.06,17.552,13.06s19.563-4.018,20.39-11.051c2.837-24.111-69.442,1.004-63.65-48.223
		c2.876-24.446,22.408-38.176,54.726-38.176c32.318,0,48.541,14.4,45.508,40.186h-32.15c0.984-8.372-4.994-13.06-16.549-13.06
		c-11.554,0-18.557,4.018-19.384,11.051C453.406,62.296,525.686,37.18,519.894,86.408z"/>
	<path fill="#FFFFFF" d="M647.032,2.019l-14.184,120.556h-32.15l5.556-47.219h-36.169l-5.556,47.219h-32.15L546.563,2.019h32.15
		l-5.555,47.217h36.168l5.556-47.217H647.032z"/>
	<path fill="#FFFFFF" d="M777.915,62.296c-4.058,34.492-35.292,62.288-69.619,62.288c-34.495,0-59.021-27.796-54.964-62.288
		c4.038-34.325,35.125-62.288,69.62-62.288C757.279,0.009,781.953,27.971,777.915,62.296z M748.779,62.296
		c2.147-18.25-11.003-33.153-29.255-33.153s-34.908,14.902-37.056,33.153c-2.147,18.251,11.003,33.152,29.255,33.152
		S746.632,80.547,748.779,62.296z"/>
	<path fill="#FFFFFF" d="M898.24,41.534c-3.329,28.297-21.562,39.516-63.926,39.516h-13.062l-4.886,41.525h-32.15L798.4,2.019
		h45.212C885.977,2.019,901.55,13.404,898.24,41.534z M866.09,41.534c1.183-10.046-5.29-13.395-25.551-13.395h-13.062l-3.151,26.79
		h13.062C857.648,54.929,864.908,51.58,866.09,41.534z"/>
</g>
</svg>
