<svg version="1.1" id="Слой_1" xmlns="http://www.w3.org/2000/svg" xmlns:xlink="http://www.w3.org/1999/xlink" x="0" y="0" width="141.6" height="70" viewBox="0 0 141.6 70" xml:space="preserve"><style>.st0{fill:#004489}.st1{fill:#fa0}.st2{fill:#fff}.st3{fill:#ff0004}.st4{fill:#0066cb}.st7{fill:#231f20}</style><defs><path id="SVGID_1_" d="M87.2 6.4h-.5v20.1c0 1.5-1.2 2.7-2.7 2.7H73.9v4.6c0 5.2-.4 6.3-2.5 8.4-1.4 1.4-2.9 2.1-6.1 2.1H65C51.8 43.8 52.8 31 52.8 27.8v-2c0-1.9 1.6-3.5 3.5-3.5h.2v-2.7c0-1.9 1.6-3.5 3.5-3.5h1v-3.7c0-1.9 1.6-3.5 3.5-3.5h1.1V6.4h-.2C63.6 6.4 62 5 62 3.2 62 1.4 63.6 0 65.4 0h21.8c1.8 0 3.2 1.4 3.2 3.2 0 1.8-1.5 3.2-3.2 3.2zm-3.3 21c.5 0 .9-.4.9-.9V1.9h-3.7v25.6h2.8v-.1zm-18.3.6V11h-1c-.9 0-1.6.7-1.6 1.6v12.7c0 .5-.4.8-.9.8s-.9-.4-.9-.9v-7.1H60c-.9 0-1.6.7-1.6 1.6v8.8c-.1.5-.5.8-1 .8s-.8-.4-.8-.9v-4.1h-.2c-.9 0-1.6.7-1.6 1.6v2c0 3.6-.8 14.1 10.4 14.5 2.8.1 3.9-.4 5-1.5 1.7-1.7 2-2.5 2-7.2V18.9c0-1.4-1.1-2.5-2.5-2.5s-2.1 1.1-2.1 2.5v10.4c0 .5-.4.9-.9.9s-.9-.4-.9-.9V28h-.2zm1.9-17.6v4.9c.3-.2.7-.4 1-.5.7-.2 1-.2 1.7-.1.4.1.8.2 1.1.3 1.2.6 1.3.8 2 1.8.4.6.6 1.3.6 2.1v8.5h5.5V1.9H76c.4.1.6.5.6.9v2.7c0 .5-.4.9-.9.9h-1.8c-.5 0-.9-.4-.9-.9V2.8c0-.4.3-.7.6-.9h-6.1v8.5zm-2.6-8.5c-.7 0-1.3.6-1.3 1.3 0 .7.6 1.3 1.3 1.3h.7V1.9h-.7zm22.5 0h-.8v2.7h.8c.7 0 1.3-.6 1.3-1.3.1-.8-.5-1.4-1.3-1.4zm-11.7 9.6c.5 0 .9.4.9.9v11.7c0 .5-.4.9-.9.9s-.9-.4-.9-.9V12.4c0-.5.4-.9.9-.9zm-21 16.4c0-.1 0-.2 0 0zm0 .1c0-.1 0-.1 0 0zm19.2 5.9v-1.8 1.8z"/></defs><use xlink:href="#SVGID_1_" overflow="visible" fill-rule="evenodd" clip-rule="evenodd" fill="#0296fc"/><clipPath id="SVGID_2_"><use xlink:href="#SVGID_1_" overflow="visible"/></clipPath><path id="svg_4_2_" class="st0" d="M26.1 53.3c2.1-.8 4.4-.7 6.4 0-.2 1-.3 2-.5 2.9-1.1-.5-2.4-.8-3.6-.6-.5.1-1.2.3-1.4.8-.2.3 0 .7.3.9 1 .8 2.3 1.1 3.3 1.9.8.6 1.4 1.6 1.4 2.6.1 1.3-.6 2.6-1.7 3.3-1.4 1-3.1 1.3-4.7 1.3-1.3-.1-2.7-.2-4-.7.1-1 .3-2 .5-3 1.4.7 3 1.1 4.5.9.5-.1 1-.2 1.3-.6.3-.3.3-.8.1-1.1-.4-.5-.9-.7-1.4-1-1.1-.5-2.3-1.1-3-2.1-.7-.9-.6-2.2-.1-3.2.5-1.1 1.5-1.8 2.6-2.3z"/><path id="svg_5_2_" class="st1" d="M.1 53h5.7c.5 0 1 .1 1.4.4.3.3.4.7.5 1.1l1.2 5.7c-1-2.4-2.8-4.3-5-5.5-1.2-.6-2.4-1.1-3.7-1.4-.1 0-.1-.2-.1-.3z"/><path id="svg_6_2_" class="st0" d="M12.7 53h3.9c-1.9 4.4-3.8 8.8-5.7 13.3H7c-1-3.8-2.1-7.7-3.1-11.5C6.1 56 8 58 8.9 60.3c.1.6.2 1.1.3 1.7 1.2-3 2.4-6 3.5-9z"/><path id="svg_7_2_" class="st0" d="M18 53h3.6c-.7 4.4-1.5 8.9-2.3 13.3h-3.7c.9-4.4 1.7-8.9 2.4-13.3z"/><path id="svg_8_1_" class="st0" d="M38.7 53h3.1c1 4.4 2 8.9 2.9 13.3h-3.4c-.1-.7-.3-1.3-.4-2h-4.6c-.2.7-.5 1.3-.7 2h-3.8c1.8-4.1 3.6-8.2 5.4-12.2.1-.7.8-1 1.5-1.1z"/><path id="svg_9_1_" class="st2" d="M39.2 56.7c.4 1.6.7 3.2 1.1 4.8h-2.9l1.8-4.8z"/><path id="svg_2_2_" class="st3" d="M65.1 48.6c.9-.2 1.8-.2 2.7-.2 2.5 0 5 1.1 6.9 2.8 4.6 4 3.5 4.8 3.4 6.6v.3c-.7 1.5-.7 3.4-.1 3.4.2 4.6-3.2 5.6-3.4 5.8-1.7 1.5-3.9 2.6-6.2 2.7-1.4.1-2.4.1-3.5-.2-3-.7-5.6-2.7-7.1-5.3-1.9-3.4-1.8-7.9.5-11.2 1.6-2.4 4.1-4.1 6.8-4.7z"/><path id="svg_26_2_" class="st2" d="M79.1 57l8.9-.6-.3 6.3h-8.6c-1.8-1.3-2-4.4 0-5.7z"/><path id="svg_3_2_" class="st1" d="M79.4 48.6c1-.3 1.8-.2 2.8-.3.6 0 1.3.1 1.9.2 2.4.5 4.6 1.8 6.1 3.6s2.5 4.1 2.5 6.5c.1 2.3-.5 4.5-1.8 6.4-1.6 2.5-4.4 4.3-7.4 4.8-1.1.1-2 .2-3.2 0-2.1-.2-4.2-1.2-5.8-2.7l.6-.6H74l-.4-.5h2.2l.5-.6-3.2-.1-.4-.6h3.9l.4-.7h-4.7l-.3-.5h5.3l.3-.7h-5.8l-.3-.6h6.3l.3-.7h-1.9c0-.2.1-.4.1-.6h1.6c.5 1.1 1.9 1.4 2.9.8.1-.2.1-.5.2-.8l.1-.2c0 .6.2 1 .6 1.1.6.3 1.2.1 1.7-.2 0 .1.1.2.1.3h.9c.2-.9.4-1.8.5-2.8.1-.5-.3-1-.8-1.2-.7-.2-1.4-.2-2 .1-.2.3-.2.6-.3.9.6-.1 1.1-.2 1.7-.1.2 0 .3.3.3.5-.7.1-1.3 0-1.9.3-.4.2-.6.4-.7 1-.4.1-.7.4-1.1.3-.5 0-1.1-.4-1.1-.9-.1-.7.2-1.5.7-1.9.6-.4 1.3-.2 1.9 0 0-.3.1-.7.1-1-1.1-.4-2.7-.2-3.4.9v-.3h-6.8c0-.2.1-.4.1-.6h6.7l-.2-.7h-6.5l.2-.6h6.1l-.3-.7H72l.4-.6h4.9l-.5-.7h-4.1l.4-.6h3.4l-.6-.7h-2.4l.5-.6h1.5c-.2-.3-.5-.5-.7-.8 1.2-1.2 2.8-2.1 4.6-2.5z"/><path id="svg_12_2_" class="st2" d="M57.6 61.9c.3-1.6.5-3.2.9-4.8h1.7c.1.9.1 1.8.2 2.8.4-1 .8-1.8 1.2-2.8h1.8l-.9 4.8h-1l.6-3.6c-.6 1.2-1 2.4-1.5 3.6h-1.1v-.4c0-1.1-.1-2.1-.2-3.2l-.6 3.6h-1.1z"/><path id="svg_13_2_" class="st2" d="M90.2 57.2h1c-.3 1.6-.5 3.2-.9 4.8h-1c0-.1.1-.3.1-.4-.3.2-.7.5-1.1.4-.9-.1-1.4-.8-1.3-1.6 0-1.1.8-2.4 2-2.4.4 0 .7.2 1 .5.1-.5.1-.9.2-1.3z"/><path id="svg_14_2_" class="st2" d="M63.9 58.1c.8-.2 1.8-.3 2.5.2.4.3.3.8.2 1.3-.2.8-.3 1.6-.5 2.4h-.9v-.4c-.5.4-1.3.6-1.9.2-.6-.4-.5-1.4 0-1.9.6-.6 1.4-.5 2.2-.5 0-.2 0-.5-.2-.6-.6-.2-1.2 0-1.8.1.1-.3.2-.6.4-.8z"/><path id="svg_15_2_" class="st2" d="M67.8 58c.6-.1 1.3-.1 1.9 0l-.2.8c-.5 0-1-.2-1.4.1-.2.2 0 .4.2.5.4.2.8.2 1.1.6.4.7 0 1.6-.8 1.8-.7.2-1.5.1-2.2 0 0-.3.1-.6.2-.8.5.1 1 .2 1.5.1.2-.1.3-.3.2-.5-.4-.4-1-.4-1.3-.8-.3-.7 0-1.7.8-1.8z"/><path id="svg_18_2_" class="st2" d="M86.4 58.6c.3-.4.6-.7 1.1-.6-.1.3-.1.6-.2.9-.3.1-.6.1-.9.3-.2.2-.3.5-.3.8-.1.6-.2 1.3-.4 1.9h-1c.2-1.3.4-2.6.7-3.9h1v.6z"/><path id="svg_20_2_" class="st1" d="M88.6 59.1c.2-.3.6-.3.9-.2.8.5-.2 2.3-.7 2.2-1.1 0-.7-1.4-.2-2z"/><path id="svg_21_2_" class="st1" d="M71 59.6v-.1h.7c0 .2 0 .4-.1.6H71v-.5z"/><path id="svg_22_2_" class="st1" d="M76.5 59.5h1.2v.6h-1.3c0-.2 0-.4.1-.6z"/><path id="svg_23_2_" class="st3" d="M64.1 60.5c.3-.4.8-.5 1.3-.4 0 .3-.1.6-.3.8-.2.2-.8.3-.9.2-.1-.1-.2-.4-.1-.6z"/><path id="svg_24_2_" class="st1" d="M82.3 60.4c.3-.4.8-.4 1.2-.4 0 .3-.1.6-.3.8-.2.3-.8.3-.9.2-.2-.1-.2-.4 0-.6z"/><path id="svg_25_2_" class="st3" d="M76.4 60.1h1.3c0 .2.1.5.2.7h-1.6c0-.2 0-.4.1-.7z"/><g id="svg_31_2_"><path id="svg_16_2_" class="st2" d="M72.6 58.2c.7-.3 1.6-.4 2.2.1.5.5.4 1.3.3 2h-2.4c.1.3.2.6.5.8.6.2 1.2.1 1.8-.2-.1.3-.1.6-.2.9-.8.2-1.8.2-2.5-.2-.5-.3-.7-.9-.7-1.5 0-.2 0-.4.1-.6.1-.5.4-1.1.9-1.3z"/><path id="svg_19_2_" class="st3" d="M72.8 59.5c.1-.3.4-.8.9-.7.4 0 .5.4.6.7h-1.5z"/></g><path id="svg_10_2_" class="st2" d="M70.4 57.1h1c0 .2-.1.4-.1.6v.2h.6c0 .3-.1.5-.1.8h-.6c-.1.3-.2.6-.2.8v.1c-.1.5-.3 1.3-.2 1.4.2.2.5 0 .8 0l-.2.7c-.4.2-.8.2-1.3.1-.3 0-.5-.3-.4-.6.2-1.3.5-2.7.7-4.1z"/><path id="svg_17_2_" class="st2" d="M75.7 58h1.1c0 .1-.1.4-.1.5.3-.4.8-.6 1.2-.6-.1.3-.3.7-.4 1.1-.4 0-.9.2-1.1.6 0 .2-.1.4-.1.6 0 .2-.1.5-.1.7 0 .2-.1.4-.1.6 0 .1-.1.3-.1.4h-1.1c.4-1.3.5-2.6.8-3.9z"/><g id="layer1_2_" transform="translate(-457.205 -631.077)"><path id="path618_1_" class="st4" d="M581.3 698c2.1-1.9 3.4-4.7 3.4-7.8 0-3.1-1.3-5.8-3.4-7.8-1.8-1.7-4.3-2.7-7-2.7-5.8 0-10.5 4.7-10.5 10.5s4.7 10.5 10.5 10.5c2.7 0 5.2-1 7-2.7"/><path id="path620_1_" class="st4" d="M581.3 698c2.1-1.9 3.4-4.7 3.4-7.8 0-3.1-1.3-5.8-3.4-7.8"/><path id="path622_1_" d="M581.3 698c2.1-1.9 3.4-4.7 3.4-7.8 0-3.1-1.3-5.8-3.4-7.8" fill="none" stroke="#0066cb" stroke-width=".31"/><path id="path624_1_" d="M588.3 679.8c-2.7 0-5.2 1-7 2.7-.4.3-.7.7-1.1 1.1h2.1c.3.3.6.7.8 1.1h-3.7c-.2.4-.4.7-.6 1.1h4.9c.2.4.3.7.4 1.1h-5.8c-.1.4-.2.7-.3 1.1h6.4c.2.7.2 1.5.2 2.2 0 1.2-.2 2.3-.5 3.3h-5.8c.1.4.3.7.4 1.1h4.9c-.2.4-.4.8-.6 1.1h-3.7c.2.4.5.8.8 1.1h2.1c-.3.4-.7.8-1.1 1.1 1.9 1.7 4.3 2.7 7 2.7 5.8 0 10.5-4.7 10.5-10.5.2-5.6-4.5-10.3-10.3-10.3" fill="#cc0001"/><path id="path626_1_" class="st7" d="M597.7 696.1c.1 0 .1 0 0 0h.1c0-.1 0-.1-.1 0 .1-.1 0-.1 0 0zm0 .1l-.1-.3h.2v.3h-.1l.1-.1h-.1v.1zm0 .1c.1 0 .3-.1.3-.3 0-.1-.1-.3-.3-.3s-.2.1-.2.3c0 .2.1.3.2.3zm-.3-.2c0-.2.2-.3.3-.3.2 0 .3.2.3.3 0 .2-.2.3-.3.3-.1 0-.3-.1-.3-.3"/><path id="path628_1_" class="st7" d="M572.7 693.2h-1.3l.8-4.1-1.8 4.1h-1.1l-.2-4.1-.9 4.1H567l1-5.3h2.1v3.3l1.4-3.3h2.2l-1 5.3"/><path id="path630_1_" class="st7" d="M587.2 693.1c-.4.1-.6.1-.9.1-.7 0-1-.3-1-.9v-.4l.1-.4.1-.3.6-3.3h1.3l-.2 1h.7l-.2 1h-.7l-.3 1.8v.2c0 .2.1.3.4.3h.4l-.3.9"/><path id="path632_1_" class="st7" d="M582.1 690.2c0 .5.3.9 1 1.2.5.2.6.3.6.5 0 .3-.2.4-.8.4-.4 0-.8-.1-1.2-.2l-.2 1h1.2c1.4 0 2-.5 2-1.4 0-.6-.3-.9-.9-1.2-.6-.2-.6-.3-.6-.5s.2-.4.6-.4c.3 0 .6 0 .9.1l.2-1c-.3 0-.9-.1-1.2-.1-1.2.1-1.7.8-1.6 1.6"/><path id="path634_1_" class="st7" d="M576 691.2h-.3c-.7 0-1.1.2-1.1.7 0 .3.2.4.5.4.5 0 .9-.4.9-1.1zm.9 2h-1.1v-.4c-.3.4-.8.5-1.4.5-.7 0-1.2-.5-1.2-1.2 0-1.1.8-1.7 2.3-1.7h.5c0-.1.1-.2.1-.3 0-.3-.2-.4-.8-.4-.4 0-.8 0-1.1.1h-.3l.2-1c.7-.2 1.1-.2 1.6-.2 1.1 0 1.7.4 1.7 1.3 0 .2 0 .4-.1.9l-.3 1.5v.7l-.1.2"/><path id="path636_1_" class="st7" d="M580.5 690.5v-.2c0-.4-.2-.6-.6-.6-.4 0-.7.3-.8.8h1.4zm.7 2.6c-.5.1-.9.2-1.3.2-1.5 0-2.2-.7-2.2-1.9 0-1.5 1-2.6 2.3-2.6 1.1 0 1.8.6 1.8 1.6 0 .3 0 .6-.2 1.1H579v.1c0 .5.4.8 1.1.8.5 0 .9-.1 1.4-.3l-.3 1"/><path id="path638_1_" class="st7" d="M593.7 690.7c0-.5-.2-.9-.7-.9-.7 0-1.1.8-1.1 1.5 0 .6.3 1 .7 1 .3 0 .9-.4 1-1.1.1-.2.1-.3.1-.5zm1.4.5c-.2 1.4-1.2 2.1-2.5 2.1-1.5 0-2.1-.9-2.1-2 0-1.5 1-2.6 2.6-2.6 1.4 0 2.1.9 2.1 1.9-.1.3-.1.4-.1.6"/><path id="path640_1_" class="st2" d="M595.5 692.5s.1 0 0 0c.1 0 .1 0 0 0 .1-.1.1-.1 0 0 .1-.1 0-.1 0 0zm0 .2l-.1-.3h.2v.3h-.1v-.1.1zm0 .1c.1 0 .2-.1.2-.3 0-.1-.1-.3-.2-.3s-.3.1-.3.3c.1.2.2.3.3.3zm-.3-.3c0-.2.2-.3.3-.3.2 0 .3.2.3.3 0 .2-.2.3-.3.3-.2.1-.3-.1-.3-.3"/><path id="path642_1_" class="st2" d="M573 692.9h-1.3l.8-4.1-1.8 4.1h-1.2l-.2-4.1-.8 4.1h-1.2l1-5.3h2l.1 3.3 1.4-3.3h2.1l-.9 5.3"/><path id="path644_1_" class="st2" d="M587.5 692.8c-.4.1-.6.1-.9.1-.7 0-1-.3-1-.9v-.4l.1-.4.1-.3.6-3.3h1.3l-.2 1h.7l-.2 1h-.7l-.3 1.8v.2c0 .2.1.3.5.3h.3l-.3.9"/><path id="path646_1_" class="st7" d="M590.9 689.8v-.1l.3-.7h-.3c-.4 0-.7.2-1.1.7l.1-.8h-1.4l-.8 4.3h1.3c.2-1 .2-1.6.4-2 .2-.8.7-1.1 1.2-1.1h.2l.1-.3"/><path id="path648_1_" class="st2" d="M591.3 688.6h-.3c-.4 0-.7.2-1.1.7l.1-.7h-1.2l-.8 4.3h1.3c.5-2.6.7-3.1 1.3-3.1h.4l.3-1.2"/><path id="path650_1_" class="st2" d="M582.4 689.9c0 .5.3.9 1 1.2.5.2.6.3.6.5 0 .3-.2.4-.7.4-.4 0-.8-.1-1.2-.2l-.2 1h1.4c1.4 0 2-.5 2-1.4 0-.6-.3-.9-.9-1.2-.5-.2-.6-.3-.6-.5s.2-.4.6-.4c.3 0 .6 0 .9.1l.2-1c-.3 0-.9-.1-1.2-.1-1.4.1-1.9.8-1.9 1.6"/><path id="path652_1_" class="st2" d="M576.3 690.9h-.3c-.7 0-1.1.2-1.1.7 0 .3.2.4.5.4.5 0 .9-.4.9-1.1zm.9 2h-1.1v-.4c-.3.4-.8.5-1.4.5-.7 0-1.2-.5-1.2-1.2 0-1 .8-1.7 2.3-1.7h.5v-.3c0-.3-.2-.4-.8-.4-.4 0-.8 0-1.1.1h-.3l.2-1c.7-.2 1.1-.2 1.6-.2 1.1 0 1.7.4 1.7 1.3 0 .2 0 .4-.1.9l-.3 1.5v.9"/><path id="path654_1_" class="st2" d="M580.8 690.2v-.2c0-.4-.2-.6-.6-.6-.4 0-.7.3-.8.8h1.4zm.7 2.6c-.4.1-.9.2-1.3.2-1.5 0-2.2-.7-2.2-1.9 0-1.5 1-2.6 2.3-2.6 1.1 0 1.8.6 1.8 1.6 0 .3 0 .6-.2 1.1h-2.6v.1c0 .5.4.8 1.1.8.5 0 .9-.1 1.4-.3l-.3 1"/><path id="path656_1_" class="st2" d="M594 690.3c0-.4-.2-.9-.7-.9-.7 0-1.1.8-1.1 1.5 0 .6.3 1 .7 1 .3 0 .9-.4 1-1.1.1-.1.1-.3.1-.5zm1.4.6c-.2 1.4-1.2 2.1-2.5 2.1-1.5 0-2.1-.9-2.1-2 0-1.5 1-2.6 2.6-2.6 1.4 0 2.1.9 2.1 1.9-.1.3-.1.3-.1.6"/></g></svg>