<svg version="1.1" id="Слой_1" xmlns="http://www.w3.org/2000/svg" x="0" y="0" width="30.9" height="45" viewBox="0 0 30.9 45" xml:space="preserve"><style>.st0{fill:#0296fc}</style><path class="st0" d="M19.8 33.2zM30 0H12.9c-.5 0-.9.4-.9.9V12h-1c-1.8 0-3.3 1.5-3.3 3.3v3.5s-.4.1-.8.1h-.2c-1.8 0-3.3 1.3-3.3 3.1v2.5h-.2c-1.8 0-3.3 1.5-3.3 3.3v1.9c0 3-1 15 11.4 15.4h.3c3 0 4.4-.6 5.7-1.9 2-2 2.4-3 2.4-7.9v-3.5H30c.5 0 .9-.4.9-.9V.9c0-.5-.4-.9-.9-.9zM18 35.1c0 4.3-.3 5.1-1.9 6.7-1 1-2.1 1.5-4.7 1.4C1 42.9 1.7 33 1.7 29.7v-1.9c0-.9.7-1.5 1.5-1.5h.2v3.9c0 .4.3.8.8.8.4 0 .8-.3.9-.7V22c0-.8.7-1.4 1.6-1.4H7c.3 0 .7-.1.7-.1v6.9c0 .4.4 1 .9 1 .4 0 .8-.5.9-.9V15.4c0-.9.7-1.6 1.5-1.6h1V31c0 .5.4.9.9.9s.9-.4.9-.9v-9.8c0-1.3.7-2.3 2-2.3s2.3 1 2.3 2.3v12.3c0 .3-.1 1-.1 1.6zm11.2-7.5s-.1 0 0 0c-1.4 0-2.5.7-2.6 2.4h-6.9v-8.9c0-.7-.2-1.4-.5-2 .1 0-.8-1.3-1.9-1.7-.3-.1-.7-.2-1-.3-.6-.1-1-.1-1.6.1-.3.1-1 .3-1 .5V4.3c1.4 0 2.5-1.1 2.5-2.5-.1-.1-.1-.1-.2-.1h10.7c-.1 0-.1.1-.2.1 0 1.4 1.1 2.5 2.5 2.5h.1v23.3zm-27.4 2c0 .1 0 .1 0 0z"/><path class="st0" d="M22.8 10.1v1.3H28v3.7c0 1.4-.1 2.3-.2 2.8-.3 1.3-1.5 2.3-3.4 2.3-2.1 0-3.2-1.4-3.5-2.6-.1-.6-.2-1.4-.2-2.4v-1.5h-1v3.4h-1.9v-3.4h-3.1v-2.3h3.1v-1.3h1.9v1.3h1v-1.3h2.1zm3.3 3.7h-3.3V15c0 .9.1 1.5.2 1.8.2.6.8 1 1.5 1 .8 0 1.4-.6 1.5-1.3.1-.3.1-.8.1-1.7v-1z"/></svg>