<svg version="1.1" id="Layer_1" xmlns="http://www.w3.org/2000/svg" x="0" y="0" width="201.131" height="36.069" viewBox="0 0 201.131 36.069" xml:space="preserve"><g id="Layer_2"><g id="Layer_1-2_8_"><linearGradient id="SVGID_1_" gradientUnits="userSpaceOnUse" x1="100.565" y1="2.16" x2="100.565" y2="36.226"><stop offset="0" stop-color="#ff833a"/><stop offset="1" stop-color="#d30047"/></linearGradient><path fill="url(#SVGID_1_)" d="M58.335 35.035H45.677a.29.29 0 0 1-.283-.23L40.33 22.419c-4.501 3.193-2.018 8.271-1.122 9.192.374.613-2.023 4.458-6.339 4.458-4.075 0-7.029-3.332-6.804-7.46.307-4.828 5.495-9.752 12.15-11.675L30.621 1.792s-.086-.35.283-.35h11.857c.24 0 .331.278.331.278l4.881 12.428c4.833-2.819 2.057-9.287 1.079-10.223-.331-.325.959-3.236 5.298-3.614 4.689-.428 7.643 2.813 7.557 6.985-.097 4.948-4.848 9.92-11.637 11.934l8.227 15.574s.14.23-.148.23m29.612-2.67c.614-1.266-2.771.33-1.875-7.13.417-3.231 2.062-13.905 2.062-13.905a.238.238 0 0 0-.135-.234h-9.402s-.278.048-.278.277c0 0-.197 1.271-.427 3.236-1.122-2.627-3.184-4.454-6.42-4.454-6.142 0-10.174 5.721-10.971 12.15-.8 6.276 1.684 13.358 7.604 13.358 3.275 0 6.094-2.249 8.055-5.274.188 3.327 2.499 5.351 5.725 5.351 2.632 0 5.385-1.832 6.051-3.355m-10.753-9.537c-.422 3.509-2.019 6.329-4.315 6.329-2.296 0-3.141-2.82-2.718-6.329.422-3.511 1.971-6.377 4.272-6.377s3.184 2.876 2.761 6.377m38.186 11.958l2.877-23.12c0-.145-.087-.192-.135-.192h.048a48.197 48.197 0 0 0-20.396 0 .212.212 0 0 0-.192.236s-.901 7.547-2.301 11.2c-2.671 6.757-5.582 7.082-5.677 7.974-.139.988 1.031 5.159 5.395 5.159 3.797 0 6.425-2.436 7.83-8.064a60.273 60.273 0 0 0 1.697-12.169h3.793c-.849 6.924-2.354 18.978-2.354 18.978 0 .23.187.23.187.23h9.053s.183 0 .183-.23m28.621-11.683c-.513-6.654-8.069-8.064-13.424-6.232l.239-.959C149.977 13.847 146.88-.273 137.4.004c-10.966.283-17.018 13.838-17.018 24.051 0 6.473 3.836 11.818 10.933 11.818 7.254 0 13.263-5.158 12.702-12.754m-11.446-2.348c2.341.426 3.103 2.071 2.954 4.598-.043 1.362-1.213 5.202-3.658 5.202-3.419 0-2.398-7.451-2.013-9.518a7.235 7.235 0 0 1 2.717-.282m-.714-8.386c.479-1.646 1.836-6.233 3.836-6.233 1.175 0 1.218.661 1.175 1.266-.375 2.876-5.021 4.968-5.021 4.968m42.085 19.978c.609-1.266-2.772.33-1.885-7.13.427-3.231 2.066-13.905 2.066-13.905a.239.239 0 0 0-.139-.234h-9.354s-.283.048-.283.277c0 0-.187 1.271-.422 3.236-1.126-2.627-3.192-4.454-6.42-4.454-6.146 0-10.174 5.721-10.971 12.15-.801 6.276 1.688 13.358 7.586 13.358 3.289 0 6.099-2.249 8.073-5.274.183 3.327 2.48 5.351 5.721 5.351 2.627 0 5.39-1.832 6.051-3.355m-10.745-9.537c-.421 3.509-2.014 6.329-4.314 6.329-2.302 0-3.15-2.82-2.72-6.329.433-3.511 1.971-6.377 4.259-6.377 2.287 0 3.193 2.876 2.771 6.377m29.545 2.804c9.11.283 8.903-8.107 7.921-7.595-.369.139-1.688 2.157-5.06 1.97-3.37-.187-5.063-1.596-9.33-1.778-7.316-.326-8.63 8.107-7.604 7.739.48-.101 1.646-1.88 5.073-1.88 2.531-.052 5.62 1.314 9 1.544m-178.365 0c9.11.283 8.903-8.107 7.916-7.595-.374.139-1.692 2.157-5.063 1.97-3.371-.187-5.059-1.591-9.331-1.778-7.317-.326-8.631 8.127-7.6 7.739.479-.101 1.645-1.88 5.073-1.88 2.528-.047 5.62 1.309 9.005 1.544"/></g></g></svg>