<svg version="1.1" id="Слой_1" xmlns="http://www.w3.org/2000/svg" x="0" y="0" width="66.2" height="41.5" viewBox="0 0 66.2 41.5" xml:space="preserve"><style>.st0{fill:#c91430}</style><path class="st0" d="M11 .5v12.3H8V8.2H3v4.6H0V.6h3v4.9h5V.6l3-.1zm35.1 12.3h-3V6.7l-2.7 4.2h-1.7L36 6.6v6.2h-3V.5h2.3L39.6 7 43.9.5H46l.1 12.3zM21.9 0c-4.8 0-8.8 3.7-8.8 8.3 0 1.6.5 3.2 1.3 4.4h4.2c-1.3-1-2.1-2.5-2.1-4.3 0-2.9 2.4-5.3 5.3-5.3s5.3 2.4 5.3 5.3c0 1.8-.8 3.3-2.1 4.3h4.2c.8-1.3 1.3-2.8 1.3-4.4.2-4.6-3.7-8.3-8.6-8.3z"/><path class="st0" d="M19.1 9.7c.4 1.2 1.5 2.1 2.9 2.1 1.3 0 2.5-.9 2.9-2.1h-5.8zm32.5-6.5v2.2H57V8h-5.4v2.1h6.2v2.6h-9.3V.5h9.3v2.6h-6.2v.1zM11.4 38c0 2-1.6 3.4-4.4 3.4H.8V29.2h5.8c2.7 0 4.2 1.3 4.2 3.3 0 1.1-.6 2.3-1.7 2.7 1.5.3 2.3 1.5 2.3 2.8zm-7.5-6.3v2.6h2.3c1.2 0 1.8-.6 1.8-1.3 0-.8-.6-1.2-1.8-1.2l-2.3-.1zm4.5 5.9c0-.8-.6-1.2-1.8-1.2H3.9v2.5h2.7c1.2 0 1.8-.5 1.8-1.3zm12.4 1.7h-5.2l-.8 2.1h-3.3l5.2-12.3h2.9l5.2 12.3h-3.3l-.7-2.1zm-1-2.5l-1.6-4.1-1.6 4.1h3.2zm17.3-7.6v12.3h-2.3l-5.9-6.7v6.7h-3V29.2h2.3l5.9 6.9v-6.9h3zm7.5 7.7L42.7 39v2.5h-3V29.2h3v5.6l4.9-5.6h3.6l-4.7 5.4 5.1 6.9h-3.8l-3.2-4.6zM21.9 26.8l-2.3-3.6h-2.3v3.6h-3.1V14.5h5.4c3 0 5.1 1.6 5.1 4.3 0 1.6-.8 2.9-2 3.7l2.9 4.3h-3.7zm-4.6-6.3h2.3c1.2 0 2.1-.6 2.1-1.6s-.9-1.6-2.1-1.6h-2.3v3.2zm12.8-3.3v2.2h5.4V22h-5.4v2.1h6.2v2.6H27V14.5h9.3v2.6h-6.2v.1zm19.8 3.5c0 3.6-2.7 6.2-6.6 6.2h-4.9V14.6h4.9c3.8-.1 6.6 2.4 6.6 6.1zm-3.1 0c0-1.9-1.5-3.3-3.5-3.3h-1.9v6.8h1.9c1.9-.2 3.5-1.6 3.5-3.5zm7.7-6.2v12.3h-3V14.5h3zm11.7 2.8h-3.5v9.5h-3v-9.5h-3.5v-2.7h10v2.7zM9.3 22.4c-.5 1.1-1.5 1.8-2.8 1.8-2 0-3.4-1.5-3.4-3.5s1.4-3.5 3.4-3.5c1.3 0 2.3.6 2.8 1.8h3.2c-.6-2.8-2.9-4.7-6-4.7C2.8 14.3 0 17 0 20.7s2.8 6.4 6.5 6.4c3.1 0 5.4-1.9 6-4.7H9.3z"/></svg>