<svg version="1.1" id="Слой_1" xmlns="http://www.w3.org/2000/svg" xmlns:xlink="http://www.w3.org/1999/xlink" x="0" y="0" width="251.981" height="61.544" viewBox="0 0 251.981 61.544" xml:space="preserve"><path fill="#EE3524" d="M80.035 4270.67c5.217 0 6.857 3.736 8.228 7.479.582 1.582 14.136 38.694 14.54 39.809.113.307.039.82-.439 1.002-.48.184-7.523 2.922-7.912 3.068a.764.764 0 0 1-.971-.457c-.145-.385-3.063-8.475-3.394-9.381H70.008l-3.416 9.381c-.136.369-.558.621-.969.457-.414-.166-7.488-2.905-7.906-3.068a.784.784 0 0 1-.446-1.002c.498-1.393 13.845-37.91 14.528-39.809 1.319-3.682 3.019-7.479 8.236-7.479zm-23.84 66.404a.77.77 0 0 0-.76.779v8.67c0 .432.34.779.76.779h47.678a.766.766 0 0 0 .755-.779v-8.67a.767.767 0 0 0-.755-.779H56.195m23.799-54.285l-6.791 20.387h13.689l-6.813-20.387h-.085zm177.387 29.92c0 2.307-1.276 3.826-3.627 3.826-.932 0-1.693.002-2.907-.328v-6.984c.536-.088 1.644-.259 2.907-.213 2.391.089 3.627 1.205 3.627 3.699zm4.828-.345c0-4.277-2.506-7.224-7.771-7.224-1.293 0-2.195.123-3.591.453l-.011-6.158c.868-.123 2.354-.231 3.991-.231 1.548 0 3.509.085 5.23.294l.12-3.567c-1.956-.438-4.793-.706-6.994-.706-2.17 0-5.543.542-7.149.977l-.001 22.76c2.504.916 4.947 1.336 7.456 1.336 5.74-.001 8.72-3.045 8.72-7.934zm-54.766-1.239c0 3.174-1.265 5.223-3.346 5.223-.874 0-1.338-.045-2.325-.367v-9.533c1.083-.52 1.667-.512 2.544-.512 2.084 0 3.127 1.72 3.127 5.189m-15.863.107c0-3.467 1.045-5.297 3.127-5.297.879 0 1.463-.008 2.546.512v9.533c-.983.322-1.449.367-2.327.367-2.372.001-3.346-1.937-3.346-5.115m10.192 14.284v-6.203c.575.34 1.722.842 3.653.842 3.844 0 6.676-3.194 6.676-9.029 0-6.287-2.813-8.979-7.438-8.979-1.176 0-1.939.121-2.892.574v-7.412h-4.52v7.412c-.95-.453-1.719-.574-2.894-.574-4.623 0-7.438 2.803-7.438 9.086 0 5.839 2.545 8.922 6.67 8.922 1.94 0 3.088-.502 3.662-.842v6.203h4.521m-34.337-5.655v-16.639c-2.491-.742-4.408-1.063-6.908-1.063-2.497 0-4.367.321-6.86 1.063v8.52c0 2.315-.039 3.01-.291 3.76-.252.656-.588 1.443-1.502 2.053l1.236 2.656c3.644-1.029 5.016-2.613 5.016-7.652v-6.269c1.204-.175 1.441-.216 2.401-.216.966 0 1.167.041 2.366.216v13.571h4.542zm55.895-3.648c-.998.346-1.654.426-2.441.426-1.623 0-2.546-.642-2.546-2.307 0-1.732 1.165-2.319 3.414-2.319.54 0 1.085.082 1.341.17v1.242c0 1.341.064 2.218.232 2.788zm5.766 1.99c-1.196-1.82-1.508-2.895-1.508-5.187v-4.651c0-2.513-.291-3.436-.957-4.355-.918-1.292-2.455-1.851-5.287-1.851-1.997 0-3.962.218-5.839.693l.673 3.332c1.277-.179 2.605-.332 3.568-.332 3.004 0 3.352.438 3.352 2.688v.844a8.695 8.695 0 0 0-2.295-.31c-4.54 0-6.929 2.214-6.929 5.866 0 3.434 2.552 5.309 5.681 5.309 1.161 0 2.373-.218 3.333-.604.577-.256.829-.398 1.579-.895.453.666 1.355 1.338 1.727 1.459l2.902-2.006zm44.298-1.99c-.996.346-1.652.426-2.444.426-1.623 0-2.539-.642-2.539-2.307 0-1.732 1.164-2.319 3.412-2.319.547 0 1.086.082 1.334.17v1.242c-.001 1.341.072 2.218.237 2.788zm5.768 1.99c-1.201-1.82-1.513-2.895-1.513-5.187v-4.651c0-2.513-.287-3.436-.952-4.355-.922-1.292-2.457-1.851-5.291-1.851-2 0-3.959.218-5.834.693l.671 3.332c1.271-.179 2.609-.332 3.567-.332 3 0 3.346.438 3.346 2.688v.844a8.629 8.629 0 0 0-2.291-.31c-4.537 0-6.925 2.214-6.925 5.866 0 3.434 2.554 5.309 5.678 5.309 1.163 0 2.372-.218 3.331-.604.579-.256.831-.398 1.579-.895.453.666 1.36 1.338 1.729 1.459l2.905-2.006zm-98.829-4.319c0 1.704-.6 2.871-2.779 2.871-.734 0-1.036 0-1.988-.267v-4.98c1.183-.229 1.287-.27 1.988-.27 2.083 0 2.779 1.014 2.779 2.646zm-9.301-11.446l-.019 16.515c2.15.909 4.516 1.317 6.615 1.317 4.818 0 7.396-2.49 7.396-6.596 0-3.717-2.282-6.014-6.549-6.014-1.083 0-1.719.144-2.909.428v-5.65h-4.534zm124.717 17.423v-17.267h-4.54v6.527h-5.139v-6.527h-4.53v17.267h4.53v-7.051h5.139v7.051h4.54zm18.626 0s-2.475-5.285-3.082-6.48c-.684-1.355-1.312-2.29-2.71-2.625v-.078c.937-.176 1.681-.745 2.485-2.471.775-1.688 1.006-2.049 1.459-2.447.446-.404 1.056-.251 1.056-.251l.229-3.144c-.651-.085-1.369-.086-2.113-.047-1.225.076-1.865.426-2.466 1.039-.47.467-.794 1.162-1.194 1.979-.425.873-.76 1.578-1.188 2.468-.435.909-.648 1.315-1.824 1.315h-.763v-6.524h-4.556v17.267h4.556v-7.057l.621-.01c1.295 0 1.517.323 2.205 1.689.81 1.633 2.34 5.377 2.34 5.377h4.945zm-169.143 0h5.227l-7.896-24.137c-.831-.28-1.869-.457-2.965-.457-1.197 0-1.624.16-2.563.457l-8.373 24.137h5.007s.673-2.114 1.492-4.74h8.659l1.412 4.74zm-8.796-8.785s1.445-4.838 1.665-5.594c.583-1.969 1.457-5.066 1.457-5.066h.144s.804 3.211 1.33 5.037c.205.711 1.586 5.623 1.586 5.623h-6.182zm100.373-2.754a2.902 2.902 0 0 0-2.896 2.897 2.895 2.895 0 1 0 5.788 0 2.902 2.902 0 0 0-2.892-2.897z"/><linearGradient id="SVGID_1_" gradientUnits="userSpaceOnUse" x1="83.197" y1="15.006" x2="83.197" y2="34.816"><stop offset="0" stop-color="#808083"/><stop offset=".011" stop-color="#78787b"/><stop offset=".068" stop-color="#535355"/><stop offset=".128" stop-color="#353536"/><stop offset=".19" stop-color="#1e1e1e"/><stop offset=".255" stop-color="#0d0d0d"/><stop offset=".326" stop-color="#030303"/><stop offset=".414"/></linearGradient><path fill="url(#SVGID_1_)" d="M85.755 34.816l-2.326-6.431c-.521-1.478-1.724-2.653-3.34-2.653v9.084h-4.65v-19.81h4.65v8.756h.057l5.336-8.756h5.308l-6.047 8.92c1.669.793 2.764 2.162 3.476 3.969l2.737 6.922h-5.201z"/><linearGradient id="SVGID_2_" gradientUnits="userSpaceOnUse" x1="98.101" y1="20.066" x2="98.101" y2="40.701"><stop offset="0" stop-color="#808083"/><stop offset=".011" stop-color="#78787b"/><stop offset=".068" stop-color="#535355"/><stop offset=".128" stop-color="#353536"/><stop offset=".19" stop-color="#1e1e1e"/><stop offset=".255" stop-color="#0d0d0d"/><stop offset=".326" stop-color="#030303"/><stop offset=".414"/></linearGradient><path fill="url(#SVGID_2_)" d="M100.714 34.709l-2.847 5.992h-4.651l2.873-5.885c-2.518-4.488-4.761-9.659-5.145-14.75h4.761c.356 4.078 1.26 7.471 2.547 10.783h.055c1.066-3.23 1.887-6.705 2.188-10.783h4.762c-.356 4.954-2.543 10.4-4.543 14.643z"/><linearGradient id="SVGID_3_" gradientUnits="userSpaceOnUse" x1="114.125" y1="20.066" x2="114.125" y2="34.816"><stop offset="0" stop-color="#808083"/><stop offset=".011" stop-color="#78787b"/><stop offset=".068" stop-color="#535355"/><stop offset=".128" stop-color="#353536"/><stop offset=".19" stop-color="#1e1e1e"/><stop offset=".255" stop-color="#0d0d0d"/><stop offset=".326" stop-color="#030303"/><stop offset=".414"/></linearGradient><path fill="url(#SVGID_3_)" d="M116.057 34.816V23.543h-3.831v11.273h-4.516v-14.75h12.83v14.75h-4.483z"/><linearGradient id="SVGID_4_" gradientUnits="userSpaceOnUse" x1="130.67" y1="20.066" x2="130.67" y2="34.816"><stop offset="0" stop-color="#808083"/><stop offset=".011" stop-color="#78787b"/><stop offset=".068" stop-color="#535355"/><stop offset=".128" stop-color="#353536"/><stop offset=".19" stop-color="#1e1e1e"/><stop offset=".255" stop-color="#0d0d0d"/><stop offset=".326" stop-color="#030303"/><stop offset=".414"/></linearGradient><path fill="url(#SVGID_4_)" d="M133.502 34.816v-7.389c0-.957.056-1.998.056-1.998h-.056s-.354.932-.875 1.779l-4.488 7.607h-4.271v-14.75h3.945v7.061c0 .985-.056 2.08-.056 2.08h.056s.407-.984.899-1.807l4.353-7.334h4.406v14.75h-3.969z"/><linearGradient id="SVGID_5_" gradientUnits="userSpaceOnUse" x1="148.598" y1="14.675" x2="148.598" y2="35.145"><stop offset="0" stop-color="#808083"/><stop offset=".011" stop-color="#78787b"/><stop offset=".068" stop-color="#535355"/><stop offset=".128" stop-color="#353536"/><stop offset=".19" stop-color="#1e1e1e"/><stop offset=".255" stop-color="#0d0d0d"/><stop offset=".326" stop-color="#030303"/><stop offset=".414"/></linearGradient><path fill="url(#SVGID_5_)" d="M147.696 35.145c-2.408 0-4.848-.465-6.27-1.066V15.742c1.587-.629 3.889-1.067 6.27-1.067 5.308 0 7.635 2.327 7.635 5.529 0 2.106-1.371 3.776-2.958 4.269v.056c1.531.546 3.396 2.215 3.396 4.843 0 3.61-2.683 5.773-8.073 5.773zm-.031-17.021c-.682 0-1.42.11-1.833.246v4.816h2.191c1.039 0 1.723-.218 2.133-.575.466-.383.767-1.066.767-1.914 0-1.588-.902-2.573-3.258-2.573zm2.602 8.894c-.521-.356-1.124-.574-2.216-.574h-2.219v5.008c.439.137 1.206.246 1.864.246 2.406 0 3.472-.821 3.472-2.654 0-.876-.327-1.616-.901-2.026z"/><linearGradient id="SVGID_6_" gradientUnits="userSpaceOnUse" x1="165.554" y1="20.066" x2="165.554" y2="34.816"><stop offset="0" stop-color="#808083"/><stop offset=".011" stop-color="#78787b"/><stop offset=".068" stop-color="#535355"/><stop offset=".128" stop-color="#353536"/><stop offset=".19" stop-color="#1e1e1e"/><stop offset=".255" stop-color="#0d0d0d"/><stop offset=".326" stop-color="#030303"/><stop offset=".414"/></linearGradient><path fill="url(#SVGID_6_)" d="M167.579 34.816l-1.75-4.46c-.521-1.286-1.396-2.326-2.794-2.326v6.786h-4.434v-14.75h4.434v6.377h.056l4.08-6.377h5.088l-4.789 6.514c1.314.657 2.298 1.806 2.956 3.338l2.08 4.898h-4.927z"/><linearGradient id="SVGID_7_" gradientUnits="userSpaceOnUse" x1="181.169" y1="19.738" x2="181.169" y2="40.701"><stop offset="0" stop-color="#808083"/><stop offset=".011" stop-color="#78787b"/><stop offset=".068" stop-color="#535355"/><stop offset=".128" stop-color="#353536"/><stop offset=".19" stop-color="#1e1e1e"/><stop offset=".255" stop-color="#0d0d0d"/><stop offset=".326" stop-color="#030303"/><stop offset=".414"/></linearGradient><path fill="url(#SVGID_7_)" d="M180.868 34.954c-.655 0-1.421-.108-1.833-.245v5.992h-4.517V20.806c1.178-.602 3.369-1.067 5.749-1.067 4.897 0 7.553 2.736 7.553 7.662 0 4.57-2.382 7.553-6.952 7.553zm-.518-11.767c-.52 0-1.041.11-1.314.22v7.934c.246.111.822.221 1.341.221 1.918 0 2.929-1.696 2.929-4.16-.001-2.765-1.067-4.215-2.956-4.215z"/><linearGradient id="SVGID_8_" gradientUnits="userSpaceOnUse" x1="196.991" y1="19.738" x2="196.991" y2="35.145"><stop offset="0" stop-color="#808083"/><stop offset=".011" stop-color="#78787b"/><stop offset=".068" stop-color="#535355"/><stop offset=".128" stop-color="#353536"/><stop offset=".19" stop-color="#1e1e1e"/><stop offset=".255" stop-color="#0d0d0d"/><stop offset=".326" stop-color="#030303"/><stop offset=".414"/></linearGradient><path fill="url(#SVGID_8_)" d="M203.764 28.03l-9.194 1.204c.355 1.615 1.75 2.408 3.588 2.408 1.477 0 3.063-.356 4.155-.903l1.261 3.339c-1.341.631-3.561 1.066-5.774 1.066-5.118 0-7.637-3.338-7.637-7.717 0-4.516 2.629-7.689 7.063-7.689 4.298 0 6.595 2.873 6.595 6.923-.002.466-.002.903-.057 1.369zm-6.648-5.118c-1.588 0-2.82 1.096-2.848 3.531l5.199-.657c.001-1.86-.904-2.874-2.351-2.874z"/><linearGradient id="SVGID_9_" gradientUnits="userSpaceOnUse" x1="213.675" y1="20.066" x2="213.675" y2="38.812"><stop offset="0" stop-color="#808083"/><stop offset=".011" stop-color="#78787b"/><stop offset=".068" stop-color="#535355"/><stop offset=".128" stop-color="#353536"/><stop offset=".19" stop-color="#1e1e1e"/><stop offset=".255" stop-color="#0d0d0d"/><stop offset=".326" stop-color="#030303"/><stop offset=".414"/></linearGradient><path fill="url(#SVGID_9_)" d="M221.677 38.812h-3.089l-.109-3.995H208.9l-.137 3.995h-3.094l-.245-6.869c2.573-1.45 3.53-4.844 4.024-8.153l.546-3.723h9.413l1.178 11.273 1.342.603-.25 6.869zm-5.88-15.406h-2.3l-.191 1.258c-.355 2.272-.957 5.145-2.627 6.842h5.832l-.714-8.1z"/><linearGradient id="SVGID_10_" gradientUnits="userSpaceOnUse" x1="231.37" y1="20.066" x2="231.37" y2="34.816"><stop offset="0" stop-color="#808083"/><stop offset=".011" stop-color="#78787b"/><stop offset=".068" stop-color="#535355"/><stop offset=".128" stop-color="#353536"/><stop offset=".19" stop-color="#1e1e1e"/><stop offset=".255" stop-color="#0d0d0d"/><stop offset=".326" stop-color="#030303"/><stop offset=".414"/></linearGradient><path fill="url(#SVGID_10_)" d="M234.203 34.816v-7.389c0-.957.056-1.998.056-1.998h-.056s-.357.932-.875 1.779l-4.488 7.607h-4.27v-14.75h3.94v7.061c0 .985-.054 2.08-.054 2.08h.054s.411-.984.902-1.807l4.351-7.334h4.406v14.75h-3.966z"/><linearGradient id="SVGID_11_" gradientUnits="userSpaceOnUse" x1="246.372" y1="20.066" x2="246.372" y2="34.816"><stop offset="0" stop-color="#808083"/><stop offset=".011" stop-color="#78787b"/><stop offset=".068" stop-color="#535355"/><stop offset=".128" stop-color="#353536"/><stop offset=".19" stop-color="#1e1e1e"/><stop offset=".255" stop-color="#0d0d0d"/><stop offset=".326" stop-color="#030303"/><stop offset=".414"/></linearGradient><path fill="url(#SVGID_11_)" d="M248.644 23.568v11.248h-4.516V23.568h-3.365v-3.502h11.219v3.502h-3.338z"/><path d="M80.175 53.248c-.477.092-.92.147-1.885.147-1.396 0-2.997-.749-2.997-3.506V48.31c0-2.782 1.601-3.508 2.997-3.508.715 0 1.408.102 1.908.18.101.013.182.047.182.148v.579c0 .079-.034.136-.172.126a24.844 24.844 0 0 0-1.907-.103c-1.111 0-1.974.647-1.974 2.577v1.579c0 1.907.862 2.575 1.974 2.575.648 0 1.465-.057 1.874-.09.147-.012.228.033.228.182v.465c-.001.138-.104.207-.228.228zm1.758-5.959c0-.149.081-.216.205-.216h.591c.114 0 .204.066.204.216v4.451c0 .033.022.033.034.01l2.645-4.45c.124-.216.228-.227.466-.227h.59c.205 0 .273.066.273.317v5.699c0 .137-.092.229-.205.229h-.592c-.111 0-.202-.092-.202-.218v-4.427c0-.047-.023-.047-.046-.012l-2.633 4.474c-.093.159-.183.183-.365.183h-.634a.332.332 0 0 1-.331-.331v-5.698zm10.546 5.982a8.156 8.156 0 0 1-1.42.125c-1.545 0-2.418-1.091-2.418-2.759v-.885c0-1.669.862-2.759 2.418-2.759.523 0 1.045.057 1.42.124.181.035.227.091.227.25v.41c0 .124-.113.182-.239.17a10.824 10.824 0 0 0-1.407-.081c-.908 0-1.419.603-1.419 1.886v.885c0 1.273.499 1.886 1.419 1.886.557 0 .908-.022 1.407-.079.126-.012.239.043.239.17v.408c0 .146-.046.216-.227.249zm6.589-5.37h-1.874v5.188a.23.23 0 0 1-.226.229h-.546a.23.23 0 0 1-.228-.229v-5.188H94.32a.228.228 0 0 1-.226-.228V47.3c0-.124.102-.227.226-.227h4.747c.124 0 .227.103.227.227v.374a.227.227 0 0 1-.226.227zm6.231 2.612h-3.805v.161c0 1.349.534 1.849 1.577 1.849.659 0 1.501-.045 2.022-.126.137-.021.239.025.239.16v.387c0 .146-.047.225-.228.261-.647.126-1.272.191-2.034.191-1.304 0-2.574-.611-2.574-2.722V49.65c0-1.622.896-2.656 2.52-2.656 1.656 0 2.498 1.043 2.498 2.656v.613c.001.147-.08.25-.215.25zm-.795-.864c0-1.282-.489-1.783-1.487-1.783-.977 0-1.522.558-1.522 1.783v.103h3.01v-.103zm8.433 3.669h-.523a.23.23 0 0 1-.228-.229V48.31l-1.305 2.385c-.103.182-.228.271-.488.271h-.442c-.263 0-.389-.09-.488-.271l-1.306-2.385v4.779a.23.23 0 0 1-.228.229h-.523a.23.23 0 0 1-.227-.229V47.3a.23.23 0 0 1 .227-.227h.739c.183 0 .295.032.362.169l1.601 2.908c.022.045.022.066.057.066s.046-.021.068-.066l1.603-2.908c.068-.137.181-.169.363-.169h.738a.23.23 0 0 1 .227.227v5.79a.23.23 0 0 1-.227.228zm6.18 0h-.521a.23.23 0 0 1-.228-.229v-.248c-.544.316-1.109.554-1.746.554-.965 0-1.85-.418-1.85-1.839v-.135c0-1.227.716-1.84 2.735-1.84h.837v-.455c0-.953-.326-1.282-1.213-1.282-.736 0-1.279.045-1.734.091-.126.012-.262-.012-.262-.18v-.398c0-.126.08-.193.239-.218a9.892 9.892 0 0 1 1.757-.146c1.577 0 2.214.794 2.214 2.134v3.963a.229.229 0 0 1-.228.228zm-.772-3.021h-.837c-1.372 0-1.737.307-1.737 1.112v.136c0 .818.387 1.034 1.044 1.034.521 0 .987-.157 1.53-.453v-1.829zm8.237 3.099c-1.672 0-2.521-1.099-2.521-2.769v-.863c0-1.67.849-2.771 2.521-2.771 1.668 0 2.53 1.101 2.53 2.771v.863c0 1.67-.862 2.769-2.53 2.769zm1.531-3.632c0-1.158-.464-1.897-1.531-1.897-1.058 0-1.524.728-1.524 1.897v.863c0 1.157.455 1.896 1.524 1.896 1.054 0 1.531-.726 1.531-1.896v-.863zm7.483 3.554h-.544a.23.23 0 0 1-.227-.229v-2.532h-3.01v2.532c0 .125-.1.229-.225.229h-.545a.23.23 0 0 1-.229-.229V47.3a.23.23 0 0 1 .229-.227h.545c.125 0 .225.103.225.227v2.407h3.01V47.3a.23.23 0 0 1 .227-.227h.544a.23.23 0 0 1 .229.227v5.79a.23.23 0 0 1-.229.228zm4.643-5.224c-.032-.123-.101-.204-.214-.204-.126 0-.19.081-.226.204l-1.376 5.053c-.022.092-.115.172-.208.172h-.665c-.114 0-.195-.08-.195-.183 0-.023 0-.058.012-.081l1.499-5.199c.194-.691.727-.862 1.159-.862.42 0 .951.159 1.147.852l1.485 5.21c.013.023.013.058.013.081 0 .103-.067.183-.195.183h-.671c-.101 0-.171-.08-.192-.172l-1.373-5.054zm8.066 5.224h-.522a.23.23 0 0 1-.229-.229v-.248c-.541.316-1.108.554-1.745.554-.967 0-1.854-.418-1.854-1.839v-.135c0-1.227.717-1.84 2.738-1.84h.839v-.455c0-.953-.329-1.282-1.212-1.282-.738 0-1.285.045-1.738.091-.125.012-.261-.012-.261-.18v-.398c0-.126.077-.193.238-.218a9.925 9.925 0 0 1 1.761-.146c1.575 0 2.215.794 2.215 2.134v3.963a.232.232 0 0 1-.23.228zm-.774-3.021h-.839c-1.375 0-1.735.307-1.735 1.112v.136c0 .818.384 1.034 1.043 1.034.522 0 .989-.157 1.531-.453v-1.829zm2.886 2.69v-5.698c0-.149.078-.216.207-.216h.589c.114 0 .202.066.202.216v4.451c0 .033.026.033.036.01l2.646-4.45c.126-.216.229-.227.464-.227h.593c.202 0 .271.066.271.317v5.699c0 .137-.09.229-.203.229h-.593c-.111 0-.201-.092-.201-.218v-4.427c0-.047-.023-.047-.045-.012l-2.635 4.474c-.091.159-.18.183-.365.183h-.634a.334.334 0 0 1-.332-.331zm4.292-8.323c.012-.089 0-.191-.122-.191h-.424c-.123 0-.157.059-.169.182-.064.613-.601.908-1.134.908-.535 0-1.068-.295-1.138-.908-.013-.123-.044-.182-.167-.182h-.422c-.123 0-.134.103-.123.191.077 1.058.963 1.604 1.85 1.604.883 0 1.769-.546 1.849-1.604zm7.397 8.654h-.541a.23.23 0 0 1-.232-.229v-2.532h-3.005v2.532a.23.23 0 0 1-.226.229h-.545a.23.23 0 0 1-.229-.229V47.3a.23.23 0 0 1 .229-.227h.545c.123 0 .226.103.226.227v2.407h3.005V47.3a.23.23 0 0 1 .232-.227h.541c.128 0 .229.103.229.227v5.79a.228.228 0 0 1-.229.228zm7.493-2.795h-5.359c-.126 0-.212-.078-.212-.191v-.442c0-.114.086-.206.212-.206h5.359c.126 0 .217.092.217.206v.442c-.001.113-.091.191-.217.191zm6.244 2.795h-.817c-.125 0-.169-.035-.263-.15l-2.257-2.791v2.713c0 .125-.1.229-.228.229h-.543a.229.229 0 0 1-.229-.229V47.3c0-.124.101-.227.229-.227h.543c.128 0 .228.103.228.227v2.43l2.269-2.554c.07-.08.114-.103.229-.103h.794c.111 0 .17.056.17.124a.172.172 0 0 1-.059.126l-2.495 2.701 2.52 3.044c.023.021.034.067.034.1 0 .08-.045.15-.125.15zm3.983.078a8.2 8.2 0 0 1-1.327-.125v2.056a.215.215 0 0 1-.217.215h-.578c-.114 0-.205-.089-.205-.215v-7.811c0-.148.031-.216.238-.262a9.388 9.388 0 0 1 2.089-.261c1.692 0 2.475 1.101 2.475 2.804v.818c0 1.781-.816 2.781-2.475 2.781zm1.476-3.599c0-1.191-.352-1.963-1.476-1.963-.476 0-1.01.056-1.327.113v4.496a8.86 8.86 0 0 0 1.327.113c1.112 0 1.476-.729 1.476-1.941v-.818zm7.318.716h-3.805v.161c0 1.349.533 1.849 1.579 1.849.657 0 1.498-.045 2.02-.126.136-.021.238.025.238.16v.387c0 .146-.043.225-.228.261-.646.126-1.271.191-2.03.191-1.306 0-2.578-.611-2.578-2.722V49.65c0-1.622.896-2.656 2.519-2.656 1.659 0 2.501 1.043 2.501 2.656v.613c0 .147-.08.25-.216.25zm-.797-.864c0-1.282-.485-1.783-1.488-1.783-.974 0-1.52.558-1.52 1.783v.103h3.008v-.103zm8.573 3.021v1.658a.23.23 0 0 1-.229.227h-.533a.23.23 0 0 1-.229-.227v-1.01h-4.292v1.01a.226.226 0 0 1-.225.227h-.532a.229.229 0 0 1-.229-.227V52.67c0-.125.103-.216.229-.216h.373l1.317-4.599c.192-.691.724-.862 1.155-.862.42 0 .955.159 1.146.852l1.297 4.609h.521c.127 0 .231.091.231.216zm-4.612-.216h2.828l-1.193-4.36c-.036-.123-.103-.204-.217-.204-.121 0-.19.081-.225.204l-1.193 4.36zm6.092-5.165c0-.149.077-.216.204-.216h.587c.117 0 .209.066.209.216v4.451c0 .033.021.033.03.01l2.646-4.45c.128-.216.231-.227.467-.227h.59c.207 0 .272.066.272.317v5.699c0 .137-.09.229-.203.229h-.589c-.115 0-.206-.092-.206-.218v-4.427c0-.047-.022-.047-.049-.012l-2.632 4.474c-.093.159-.181.183-.361.183h-.635a.331.331 0 0 1-.33-.331v-5.698zm11.51.612h-1.871v5.188a.232.232 0 0 1-.231.229h-.545a.23.23 0 0 1-.225-.229v-5.188h-1.872a.228.228 0 0 1-.229-.228V47.3c0-.124.101-.227.229-.227h4.744c.125 0 .225.103.225.227v.374a.226.226 0 0 1-.225.227zm3.934 5.495c-1.669 0-2.519-1.099-2.519-2.769v-.863c0-1.67.85-2.771 2.519-2.771 1.672 0 2.536 1.101 2.536 2.771v.863c0 1.67-.864 2.769-2.536 2.769zm1.536-3.632c0-1.158-.467-1.897-1.536-1.897-1.054 0-1.521.728-1.521 1.897v.863c0 1.157.458 1.896 1.521 1.896 1.058 0 1.536-.726 1.536-1.896v-.863zm4.696 3.632c-.406 0-1.305-.022-1.682-.065-.225-.025-.327-.115-.327-.32V47.38c0-.193.11-.306.317-.329.331-.034.953-.057 1.805-.057 1.281 0 2.691.227 2.691 1.692v.056c0 .534-.251 1.102-.819 1.328.638.263.888.772.888 1.34v.081c0 1.417-1.228 1.905-2.873 1.905zm1.793-4.71c0-.693-.602-.875-1.747-.875-.343 0-.784 0-1.057.011v1.872h1.418c.683 0 1.386-.077 1.386-.952v-.056zm.068 2.723c0-.886-.783-.942-1.454-.942h-1.418v2.101c.34.012.637.023.977.023 1.385 0 1.896-.341 1.896-1.101v-.081zm6.89 1.909h-.519a.23.23 0 0 1-.229-.229v-.248c-.546.316-1.115.554-1.75.554-.965 0-1.85-.418-1.85-1.839v-.135c0-1.227.712-1.84 2.733-1.84h.843v-.455c0-.953-.329-1.282-1.215-1.282-.74 0-1.285.045-1.738.091-.125.012-.262-.012-.262-.18v-.398c0-.126.08-.193.239-.218a9.943 9.943 0 0 1 1.761-.146c1.58 0 2.215.794 2.215 2.134v3.963a.229.229 0 0 1-.228.228zm-.771-3.021h-.843c-1.374 0-1.734.307-1.734 1.112v.136c0 .818.383 1.034 1.042 1.034.523 0 .99-.157 1.535-.453v-1.829zm7.672 3.021h-.546a.23.23 0 0 1-.227-.229v-2.532h-3.008v2.532a.23.23 0 0 1-.229.229h-.541a.232.232 0 0 1-.233-.229V47.3a.23.23 0 0 1 .233-.227h.541a.23.23 0 0 1 .229.227v2.407h3.008V47.3c0-.124.103-.227.227-.227h.546c.125 0 .227.103.227.227v5.79a.228.228 0 0 1-.227.228zm2.128-6.029c0-.149.082-.216.207-.216h.589c.116 0 .203.066.203.216v4.451c0 .033.021.033.038.01l2.644-4.45c.125-.216.229-.227.468-.227h.589c.203 0 .272.066.272.317v5.699c0 .137-.092.229-.204.229h-.592c-.113 0-.205-.092-.205-.218v-4.427c0-.047-.021-.047-.043-.012l-2.635 4.474c-.09.159-.182.183-.364.183h-.638a.332.332 0 0 1-.329-.331v-5.698zm11.204 6.029h-.543a.23.23 0 0 1-.229-.229v-2.327c-.477.011-.511.023-.818.023h-.227l-1.691 2.396c-.091.123-.17.137-.295.137h-.625a.17.17 0 0 1-.146-.273l1.713-2.371c-.909-.207-1.485-.842-1.485-1.773v-.057c0-1.407 1.236-1.851 2.756-1.851.57 0 1.114.022 1.534.068.181.022.288.067.288.238v5.79a.232.232 0 0 1-.232.229zm-.771-5.484c-.248-.023-.533-.023-.818-.023-1.202 0-1.781.262-1.781 1.033v.056c0 .84.591 1.078 1.781 1.078.216 0 .41-.012.818-.021v-2.123z"/><circle fill="#F7CF1B" cx="30.618" cy="30.681" r="30.681"/><g opacity=".8"><defs><circle id="SVGID_12_" opacity=".8" cx="30.618" cy="30.681" r="30.681"/></defs><linearGradient id="SVGID_13_" gradientUnits="userSpaceOnUse" x1="8.923" y1="52.376" x2="52.313" y2="8.986"><stop offset="0" stop-color="#f7ec35"/><stop offset="1" stop-color="#f7ec35"/></linearGradient><use xlink:href="#SVGID_12_" overflow="visible" fill="url(#SVGID_13_)"/><clipPath id="SVGID_14_"><use xlink:href="#SVGID_12_" overflow="visible"/></clipPath><circle clip-path="url(#SVGID_14_)" fill="#F7CF1B" cx="30.618" cy="30.681" r="30.681"/><g clip-path="url(#SVGID_14_)"><path fill="#F5EA19" d="M51.07 0h10.227v10.227H51.07z"/><path fill="#F5DC1A" d="M40.844 0h10.227v10.227H40.844z"/><path fill="#F5CE1B" d="M30.617 0h10.227v10.227H30.617z"/><path fill="#F6C01C" d="M20.391 0h10.227v10.227H20.391z"/><path fill="#F6B21D" d="M10.164 0h10.227v10.227H10.164z"/><path fill="#F6A41E" d="M-.063 0h10.227v10.227H-.063z"/></g><g clip-path="url(#SVGID_14_)"><path fill="#F5EA19" d="M51.07 10.227h10.227v10.229H51.07z"/><path fill="#F5DC1A" d="M40.844 10.227h10.227v10.229H40.844z"/><path fill="#F5CE1B" d="M30.617 10.227h10.227v10.229H30.617z"/><path fill="#F6C01C" d="M20.391 10.227h10.227v10.229H20.391z"/><path fill="#F6B21D" d="M10.164 10.227h10.227v10.229H10.164z"/><path fill="#F6A41E" d="M-.063 10.227h10.227v10.229H-.063z"/></g><g clip-path="url(#SVGID_14_)"><path fill="#F5EA19" d="M51.07 20.455h10.227v10.226H51.07z"/><path fill="#F5DC1A" d="M40.844 20.455h10.227v10.226H40.844z"/><path fill="#F5CE1B" d="M30.617 20.455h10.227v10.226H30.617z"/><path fill="#F6C01C" d="M20.391 20.455h10.227v10.226H20.391z"/><path fill="#F6B21D" d="M10.164 20.455h10.227v10.226H10.164z"/><path fill="#F6A41E" d="M-.063 20.455h10.227v10.226H-.063z"/></g><g clip-path="url(#SVGID_14_)"><path fill="#F5EA19" d="M51.07 30.681h10.227v10.228H51.07z"/><path fill="#F5DC1A" d="M40.844 30.681h10.227v10.228H40.844z"/><path fill="#F5CE1B" d="M30.617 30.681h10.227v10.228H30.617z"/><path fill="#F6C01C" d="M20.391 30.681h10.227v10.228H20.391z"/><path fill="#F6B21D" d="M10.164 30.681h10.227v10.228H10.164z"/><path fill="#F6A41E" d="M-.063 30.681h10.227v10.228H-.063z"/></g><g clip-path="url(#SVGID_14_)"><path fill="#F5EA19" d="M51.07 40.908h10.227v10.225H51.07z"/><path fill="#F5DC1A" d="M40.844 40.908h10.227v10.225H40.844z"/><path fill="#F5CE1B" d="M30.617 40.908h10.227v10.225H30.617z"/><path fill="#F6C01C" d="M20.391 40.908h10.227v10.225H20.391z"/><path fill="#F6B21D" d="M10.164 40.908h10.227v10.225H10.164z"/><path fill="#F6A41E" d="M-.063 40.908h10.227v10.225H-.063z"/></g><g clip-path="url(#SVGID_14_)"><path fill="#F5EA19" d="M51.07 51.133h10.227v10.229H51.07z"/><path fill="#F5DC1A" d="M40.844 51.133h10.227v10.229H40.844z"/><path fill="#F5CE1B" d="M30.617 51.133h10.227v10.229H30.617z"/><path fill="#F6C01C" d="M20.391 51.133h10.227v10.229H20.391z"/><path fill="#F6B21D" d="M10.164 51.133h10.227v10.229H10.164z"/><path fill="#F6A41E" d="M-.063 51.133h10.227v10.229H-.063z"/></g></g><defs><circle id="SVGID_15_" cx="30.617" cy="30.863" r="30.681"/></defs><clipPath id="SVGID_16_"><use xlink:href="#SVGID_15_" overflow="visible"/></clipPath><circle clip-path="url(#SVGID_16_)" fill="#F7CF1B" cx="30.617" cy="30.863" r="30.681"/><g clip-path="url(#SVGID_16_)"><path fill="#F5EA19" d="M-.063.184h10.227v10.227H-.063z"/><path fill="#F5DC1A" d="M-.063 10.41h10.227v10.227H-.063z"/><path fill="#F5CE1B" d="M-.063 20.637h10.227v10.227H-.063z"/><path fill="#F6C01C" d="M-.063 30.863h10.227v10.228H-.063z"/><path fill="#F6B21D" d="M-.063 41.09h10.227v10.228H-.063z"/><path fill="#F6A41E" d="M-.063 51.316h10.227v10.228H-.063z"/></g><g clip-path="url(#SVGID_16_)"><path fill="#F5EA19" d="M10.164.184h10.228v10.227H10.164z"/><path fill="#F5DC1A" d="M10.164 10.41h10.228v10.227H10.164z"/><path fill="#F5CE1B" d="M10.164 20.637h10.228v10.227H10.164z"/><path fill="#F6C01C" d="M10.164 30.863h10.228v10.228H10.164z"/><path fill="#F6B21D" d="M10.164 41.09h10.228v10.228H10.164z"/><path fill="#F6A41E" d="M10.164 51.316h10.228v10.228H10.164z"/></g><g clip-path="url(#SVGID_16_)"><path fill="#F5EA19" d="M20.392.184h10.226v10.227H20.392z"/><path fill="#F5DC1A" d="M20.392 10.41h10.226v10.227H20.392z"/><path fill="#F5CE1B" d="M20.392 20.637h10.226v10.227H20.392z"/><path fill="#F6C01C" d="M20.392 30.863h10.226v10.228H20.392z"/><path fill="#F6B21D" d="M20.392 41.09h10.226v10.228H20.392z"/><path fill="#F6A41E" d="M20.392 51.316h10.226v10.228H20.392z"/></g><g clip-path="url(#SVGID_16_)"><path fill="#F5EA19" d="M30.617.184h10.227v10.227H30.617z"/><path fill="#F5DC1A" d="M30.617 10.41h10.227v10.227H30.617z"/><path fill="#F5CE1B" d="M30.617 20.637h10.227v10.227H30.617z"/><path fill="#F6C01C" d="M30.617 30.863h10.227v10.228H30.617z"/><path fill="#F6B21D" d="M30.617 41.09h10.227v10.228H30.617z"/><path fill="#F6A41E" d="M30.617 51.316h10.227v10.228H30.617z"/></g><g clip-path="url(#SVGID_16_)"><path fill="#F5EA19" d="M40.844.184h10.227v10.227H40.844z"/><path fill="#F5DC1A" d="M40.844 10.41h10.227v10.227H40.844z"/><path fill="#F5CE1B" d="M40.844 20.637h10.227v10.227H40.844z"/><path fill="#F6C01C" d="M40.844 30.863h10.227v10.228H40.844z"/><path fill="#F6B21D" d="M40.844 41.09h10.227v10.228H40.844z"/><path fill="#F6A41E" d="M40.844 51.316h10.227v10.228H40.844z"/></g><g clip-path="url(#SVGID_16_)"><path fill="#F5EA19" d="M51.07.184h10.229v10.227H51.07z"/><path fill="#F5DC1A" d="M51.07 10.41h10.229v10.227H51.07z"/><path fill="#F5CE1B" d="M51.07 20.637h10.229v10.227H51.07z"/><path fill="#F6C01C" d="M51.07 30.863h10.229v10.228H51.07z"/><path fill="#F6B21D" d="M51.07 41.09h10.229v10.228H51.07z"/><path fill="#F6A41E" d="M51.07 51.316h10.229v10.228H51.07z"/></g><defs><filter id="Adobe_OpacityMaskFilter" filterUnits="userSpaceOnUse" x="1.123" y="1.173" width="58.99" height="58.99"><feFlood result="back" flood-color="#fff" flood-opacity="1"/><feBlend in="SourceGraphic" in2="back"/></filter></defs><mask maskUnits="userSpaceOnUse" x="1.123" y="1.173" width="58.99" height="58.99" id="SVGID_17_"><g filter="url(#Adobe_OpacityMaskFilter)"><defs><filter id="Adobe_OpacityMaskFilter_1_" filterUnits="userSpaceOnUse" x="1.123" y="1.173" width="58.99" height="58.99"><feFlood result="back" flood-color="#fff" flood-opacity="1"/><feBlend in="SourceGraphic" in2="back"/></filter></defs><linearGradient id="SVGID_18_" gradientUnits="userSpaceOnUse" x1="-731.624" y1="-1263.648" x2="-711.443" y2="-1319.096" gradientTransform="rotate(-45.001 1250.398 -1538.256)"><stop offset="0"/><stop offset=".1"/><stop offset=".893"/><stop offset="1" stop-color="#fff"/></linearGradient><path mask="url(#SVGID_17_)" fill="url(#SVGID_18_)" d="M9.761 9.813c-11.518 11.519-11.518 30.193 0 41.711 11.519 11.52 30.195 11.52 41.713 0 11.52-11.518 11.518-30.192 0-41.71C39.956-1.706 21.279-1.707 9.761 9.813zm40.844 40.841c-11.04 11.039-28.936 11.039-39.975 0-11.039-11.038-11.039-28.936 0-39.975 11.039-11.037 28.935-11.037 39.975 0 11.039 11.04 11.039 28.937 0 39.975z"/></g></mask><linearGradient id="SVGID_19_" gradientUnits="userSpaceOnUse" x1="-731.624" y1="-1263.648" x2="-711.443" y2="-1319.096" gradientTransform="rotate(-45.001 1250.398 -1538.256)"><stop offset="0" stop-color="#f1f1f1"/><stop offset=".1" stop-color="#ffc80e"/><stop offset=".893" stop-color="#ffc80e"/><stop offset="1" stop-color="#fff"/></linearGradient><path fill="url(#SVGID_19_)" d="M9.761 9.813c-11.518 11.519-11.518 30.193 0 41.711 11.519 11.52 30.195 11.52 41.713 0 11.52-11.518 11.518-30.192 0-41.71C39.956-1.706 21.279-1.707 9.761 9.813zm40.844 40.841c-11.04 11.039-28.936 11.039-39.975 0-11.039-11.038-11.039-28.936 0-39.975 11.039-11.037 28.935-11.037 39.975 0 11.039 11.04 11.039 28.937 0 39.975z"/><path fill="#FFF" d="M62.933 2.318L30.674 29.034 14.13 24.166l-2.235 1.453 17.612 21.342L67.05 2.318z"/><linearGradient id="SVGID_20_" gradientUnits="userSpaceOnUse" x1="39.477" y1="2.975" x2="39.477" y2="47.346"><stop offset="0" stop-color="#808083"/><stop offset=".066" stop-color="#727174"/><stop offset=".226" stop-color="#555455"/><stop offset=".393" stop-color="#3e3c3d"/><stop offset=".57" stop-color="#2e2c2c"/><stop offset=".763" stop-color="#242222"/><stop offset="1" stop-color="#211f1f"/></linearGradient><path fill="url(#SVGID_20_)" d="M63.166 2.975L30.907 30.063 14.258 25.16l-1.802 1.156 17.285 21.03L66.497 2.975z"/></svg>