<svg version="1.1" id="Слой_1" xmlns="http://www.w3.org/2000/svg" x="0" y="0" width="132.1" height="50" viewBox="0 0 132.1 50" xml:space="preserve"><style>.st0{fill:#004489}.st1{fill:#fa0}.st2{fill:#fff}.st3{fill:#ff0004}.st4{fill:#0066cb}.st7{fill:#231f20}</style><path id="svg_4_1_" class="st0" d="M24.3 34.5c1.9-.7 4.1-.7 6 0-.2.9-.3 1.8-.5 2.7-1-.5-2.2-.7-3.4-.6-.5.1-1.1.3-1.3.8-.1.3 0 .7.3.9.9.7 2.2 1 3.1 1.8.7.6 1.3 1.4 1.3 2.4.1 1.2-.6 2.4-1.6 3.1-1.3.9-2.9 1.2-4.4 1.2-1.2-.1-2.5-.2-3.7-.7.1-.9.3-1.9.5-2.8 1.3.6 2.8 1 4.2.8.4-.1.9-.2 1.2-.6.2-.3.3-.7.1-1-.3-.5-.9-.7-1.3-.9-1-.5-2.1-1-2.8-2-.6-.9-.6-2.1-.1-3 .5-1.1 1.4-1.7 2.4-2.1z"/><path id="svg_5_1_" class="st1" d="M.1 34.2h5.4c.4 0 .9.1 1.3.4.3.3.4.7.4 1 .4 1.8.7 3.5 1.1 5.3-.9-2.2-2.6-4-4.7-5.1-1.1-.6-2.3-1-3.5-1.3v-.3z"/><path id="svg_6_1_" class="st0" d="M11.9 34.2h3.6c-1.7 4.1-3.6 8.2-5.3 12.4H6.6c-1-3.6-2-7.2-3-10.7C5.7 37 7.4 38.8 8.3 41c.1.5.2 1 .3 1.6l3.3-8.4z"/><path id="svg_7_1_" class="st0" d="M16.8 34.2h3.4c-.7 4.1-1.4 8.3-2.1 12.4h-3.4c.7-4.2 1.4-8.3 2.1-12.4z"/><path id="svg_8" class="st0" d="M36.1 34.2H39c.9 4.1 1.8 8.3 2.7 12.4h-3.2c-.1-.6-.3-1.2-.4-1.8h-4.3c-.2.6-.5 1.2-.7 1.9h-3.6c1.7-3.8 3.4-7.6 5-11.4.3-.7 1-1.1 1.6-1.1z"/><path id="svg_9" class="st2" d="M36.6 37.6c.4 1.5.7 3 1 4.5h-2.7c.5-1.5 1.1-3 1.7-4.5z"/><path id="svg_2_1_" class="st3" d="M60.7 30c.8-.2 1.7-.2 2.5-.2 2.3 0 4.7 1 6.4 2.6 4.3 3.8 3.3 4.5 3.2 6.2v.2c-.6 1.4-.6 3.2-.1 3.2.2 4.3-3 5.2-3.1 5.4-1.6 1.4-3.6 2.4-5.8 2.5-1.3.1-2.2.1-3.3-.2-2.8-.6-5.2-2.5-6.6-5-1.8-3.2-1.6-7.4.4-10.4 1.6-2.2 3.9-3.7 6.4-4.3z"/><path id="svg_26_1_" class="st2" d="M73.8 37.9l8.3-.5-.2 5.9h-8.1c-1.7-1.3-1.9-4.3 0-5.4z"/><path id="svg_3_1_" class="st1" d="M74.1 30c.9-.2 1.7-.2 2.6-.2.5 0 1.2.1 1.8.2 2.2.5 4.3 1.7 5.7 3.4 1.4 1.7 2.3 3.9 2.4 6.1.1 2.1-.5 4.2-1.6 6-1.5 2.4-4.1 4-6.9 4.5-1 .1-1.8.2-3 0-2-.2-3.9-1.1-5.4-2.5.2-.2.4-.4.6-.5h-1l-.6-.6h2.1l.5-.6h-3l-.4-.5h3.7l.4-.6h-4.4l-.3-.6h4.9l.3-.6h-5.4l-.2-.6h5.9l.2-.7h-1.8c0-.2.1-.4.1-.6h1.5c.5 1 1.8 1.3 2.7.8.1-.2.1-.5.2-.7v-.2c0 .5.2.9.5 1.1.5.3 1.1.1 1.6-.2 0 .1.1.2.1.3h.8c.2-.9.3-1.7.5-2.6.1-.5-.3-.9-.7-1.1-.6-.2-1.3-.1-1.9.1-.2.2-.2.6-.3.9.5-.1 1.1-.2 1.6-.1.2 0 .2.3.3.5-.6.1-1.2 0-1.8.3-.4.2-.5.4-.7.9-.3.1-.6.3-1 .3-.5 0-1-.3-1.1-.8-.1-.6.1-1.4.7-1.8.5-.4 1.2-.2 1.7 0 0-.3.1-.6.1-1-1.1-.4-2.5-.2-3.2.8v-.3h-6.3c0-.2.1-.4.1-.6h6.2l-.2-.7h-6l.2-.6h5.7l-.3-.6h-5.2l.3-.6H72l-.4-.6h-3.9l.4-.6h3.2l-.5-.7h-2.3l.4-.6h1.4c-.2-.2-.4-.5-.7-.7 1.3-1.3 2.8-2.1 4.5-2.5z"/><path id="svg_12_1_" class="st2" d="M53.7 42.4c.3-1.5.5-3 .8-4.5h1.6c.1.9.1 1.7.1 2.6.4-.9.7-1.7 1.1-2.6H59c-.3 1.5-.5 3-.8 4.5h-.9l.6-3.3c-.5 1.1-.9 2.2-1.4 3.3h-1.1V42c0-1-.1-2-.2-3l-.6 3.4h-.9z"/><path id="svg_13_1_" class="st2" d="M84.2 38h.9c-.3 1.5-.5 3-.8 4.4h-.9c0-.1.1-.3.1-.4-.3.2-.6.5-1 .4-.8-.1-1.3-.8-1.2-1.4-.1-1 .7-2.3 1.8-2.3.4 0 .6.2.9.4 0-.3.1-.7.2-1.1z"/><path id="svg_14_1_" class="st2" d="M59.6 38.9c.8-.2 1.7-.3 2.3.2.4.3.3.8.2 1.2-.1.7-.3 1.5-.4 2.2h-.8v-.3c-.5.3-1.2.5-1.8.2-.6-.4-.5-1.3 0-1.7.5-.5 1.3-.4 2-.5 0-.2 0-.5-.2-.5-.5-.2-1.1 0-1.6.1.1-.4.1-.7.3-.9z"/><path id="svg_15_1_" class="st2" d="M63.2 38.8c.6-.1 1.2-.1 1.8 0l-.1.8c-.4 0-1-.2-1.3.1-.1.2 0 .4.2.5.3.2.8.2 1 .6.3.6 0 1.5-.7 1.7-.7.2-1.4.1-2 0 0-.3.1-.5.2-.8.5.1.9.2 1.4.1.2-.1.3-.3.2-.4-.3-.3-.9-.3-1.2-.7-.5-.8-.2-1.8.5-1.9z"/><path id="svg_18_1_" class="st2" d="M80.5 39.3c.2-.3.6-.6 1-.6-.1.3-.1.5-.2.8-.3.1-.6.1-.8.3-.2.2-.3.5-.3.8-.1.6-.2 1.2-.3 1.7H79c.2-1.2.4-2.4.6-3.7h.9c.1.4.1.6 0 .7z"/><path id="svg_20_1_" class="st1" d="M82.6 39.9c.2-.3.5-.3.8-.2.7.5-.2 2.1-.7 2-.9 0-.5-1.3-.1-1.8z"/><path id="svg_21_1_" class="st1" d="M66.2 40.3v-.1h.6v.6h-.5l-.1-.5z"/><path id="svg_22_1_" class="st1" d="M71.3 40.2h1.1v.6h-1.2c.1-.2.1-.4.1-.6z"/><path id="svg_23_1_" class="st3" d="M59.8 41.2c.3-.4.8-.4 1.2-.4 0 .3-.1.6-.3.8-.2.2-.7.3-.9.2 0-.2-.1-.5 0-.6z"/><path id="svg_24_1_" class="st1" d="M76.8 41.1c.3-.4.8-.3 1.2-.3 0 .3-.1.6-.3.8-.2.2-.7.3-.9.2-.3-.2-.2-.5 0-.7z"/><path id="svg_25_1_" class="st3" d="M71.2 40.8h1.2c0 .2.1.4.2.7h-1.5c.1-.3.1-.5.1-.7z"/><g id="svg_31_1_"><path id="svg_16_1_" class="st2" d="M67.7 38.9c.6-.3 1.5-.4 2 .1s.4 1.2.3 1.8h-2.3c.1.3.2.6.5.7.5.2 1.1.1 1.7-.2-.1.3-.1.6-.2.9-.7.2-1.6.2-2.3-.2-.5-.3-.7-.8-.7-1.4V40c.3-.3.5-.8 1-1.1z"/><path id="svg_19_1_" class="st3" d="M67.9 40.2c.1-.3.4-.8.8-.7.4 0 .5.4.5.7h-1.3z"/></g><path id="svg_10_1_" class="st2" d="M65.7 37.9h.9c0 .2-.1.4-.1.6v.2h.6c0 .2-.1.5-.1.7h-.6c-.1.2-.1.5-.1.7v.1c-.1.4-.3 1.2-.2 1.3.1.2.5 0 .8 0l-.2.6c-.4.2-.8.2-1.2.1-.3 0-.5-.3-.4-.6.1-1.1.3-2.4.6-3.7z"/><path id="svg_17_1_" class="st2" d="M70.6 38.8h1c0 .1-.1.4-.1.5.3-.3.7-.5 1.2-.6-.1.3-.2.6-.3 1-.4 0-.8.2-1 .5 0 .2-.1.4-.1.6 0 .2-.1.4-.1.7 0 .2-.1.4-.1.6 0 .1-.1.3-.1.4h-1c.2-1.3.4-2.5.6-3.7z"/><g id="layer1_1_" transform="translate(-457.205 -631.077)"><path id="path618" class="st4" d="M573 678.2c2-1.8 3.2-4.4 3.2-7.2 0-2.9-1.2-5.4-3.2-7.2-1.7-1.6-4-2.5-6.5-2.5-5.4 0-9.8 4.4-9.8 9.8s4.4 9.8 9.8 9.8c2.4-.2 4.8-1.1 6.5-2.7"/><path id="path620" class="st4" d="M573 678.2c2-1.8 3.2-4.4 3.2-7.2 0-2.9-1.2-5.4-3.2-7.2"/><path id="path622" d="M573 678.2c2-1.8 3.2-4.4 3.2-7.2 0-2.9-1.2-5.4-3.2-7.2" fill="none" stroke="#0066cb" stroke-width=".31"/><path id="path624" d="M579.5 661.2c-2.5 0-4.8 1-6.6 2.5l-1 1h2c.3.3.5.7.7 1h-3.5c-.2.3-.4.7-.6 1h4.6c.2.3.3.7.4 1h-5.4c-.1.3-.2.7-.3 1h6c.1.7.2 1.4.2 2.1 0 1.1-.2 2.1-.5 3.1h-5.4c.1.4.2.7.4 1h4.6c-.2.4-.3.7-.6 1H571c.2.4.5.7.7 1h2c-.3.4-.6.7-1 1 1.7 1.6 4 2.5 6.6 2.5 5.4 0 9.7-4.4 9.7-9.8.3-5-4.1-9.4-9.5-9.4" fill="#cc0001"/><path id="path626" class="st7" d="M588.3 676.4h.1c0-.1-.1-.1-.1 0 0-.1 0-.1 0 0zm0 .2l-.1-.3h.2v.3h-.1l.1-.1h-.1v.1zm0 .1c.1 0 .2-.1.2-.2s-.1-.2-.2-.2-.2.1-.2.2c0 0 .1.2.2.2zm-.3-.3c0-.2.1-.3.3-.3.2 0 .3.1.3.3 0 .2-.1.3-.3.3-.2 0-.3-.1-.3-.3"/><path id="path628" class="st7" d="M564.9 673.7h-1.2l.7-3.8-1.7 3.8h-1l-.2-3.8-.8 3.8h-1.1l.9-4.9h1.9v3.1l1.3-3.1h2l-.8 4.9"/><path id="path630" class="st7" d="M578.5 673.6c-.3.1-.6.1-.9.1-.6 0-1-.3-1-.9v-.4l.1-.4.1-.3.6-3.1h1.2l-.2.9h.6l-.2 1h-.6l-.3 1.7v.2c0 .2.1.3.4.3h.3l-.1.9"/><path id="path632" class="st7" d="M573.7 670.9c0 .5.3.9.9 1.1.5.2.6.3.6.4 0 .3-.2.4-.7.4-.4 0-.7 0-1.1-.2l-.2.9h1.2c1.3 0 1.9-.4 1.9-1.3 0-.6-.2-.9-.9-1.1-.5-.2-.6-.2-.6-.4s.2-.3.6-.3c.2 0 .6 0 .9.1l.2-.9c-.3 0-.8-.1-1.1-.1-1.3.1-1.8.7-1.7 1.4"/><path id="path634" class="st7" d="M568 671.9h-.3c-.7 0-1 .2-1 .6 0 .3.2.4.4.4.5 0 .9-.4.9-1zm.8 1.8h-1v-.4c-.3.3-.7.5-1.3.5-.7 0-1.1-.4-1.1-1.1 0-1 .8-1.6 2.1-1.6h.5c0-.1.1-.2.1-.3 0-.3-.2-.4-.8-.4-.3 0-.7 0-1 .1h-.3l.2-.9c.6-.2 1-.2 1.5-.2 1 0 1.6.4 1.6 1.2 0 .2 0 .3-.1.8l-.2 1.4v.6l-.2.3"/><path id="path636" class="st7" d="M572.2 671.2v-.2c0-.3-.2-.5-.6-.5-.4 0-.7.3-.8.7h1.4zm.6 2.4c-.4.1-.8.2-1.2.2-1.4 0-2.1-.6-2.1-1.8 0-1.4.9-2.4 2.1-2.4 1 0 1.6.6 1.6 1.5 0 .3 0 .6-.2 1h-2.4v.1c0 .5.4.7 1.1.7.4 0 .8-.1 1.3-.3l-.2 1"/><path id="path638" class="st7" d="M584.6 671.4c0-.4-.2-.8-.7-.8-.6 0-1 .7-1 1.4 0 .5.3.9.7.9.3 0 .8-.4.9-1 0-.2.1-.3.1-.5zm1.2.5c-.2 1.3-1.1 1.9-2.4 1.9-1.4 0-1.9-.8-1.9-1.9 0-1.4.9-2.4 2.4-2.4 1.3 0 1.9.8 1.9 1.8v.6"/><path id="path640" class="st2" d="M586.2 673.1s.1 0 0 0c.1 0 .1-.1 0 0 .1-.1.1-.1 0 0 .1-.1 0-.1 0 0zm0 .1l-.1-.3h.2v.3h-.1v-.1.1zm0 .1c.1 0 .2-.1.2-.2s-.1-.2-.2-.2-.2.1-.2.2.1.2.2.2zm-.3-.2c0-.2.1-.3.3-.3.2 0 .3.1.3.3 0 .2-.1.3-.3.3-.1 0-.3-.1-.3-.3"/><path id="path642" class="st2" d="M565.2 673.4H564l.7-3.8-1.7 3.8h-1l-.2-3.8-.7 3.8H560l.9-4.9h1.9l.1 3.1 1.4-3.1h2l-1.1 4.9"/><path id="path644" class="st2" d="M578.8 673.4c-.3.1-.6.1-.9.1-.6 0-1-.3-1-.9v-.4l.1-.4.1-.3.6-3.1h1.2l-.2.9h.6l-.2 1h-.6l-.3 1.7v.2c0 .2.1.3.4.3h.3l-.1.9"/><path id="path646" class="st7" d="M581.9 670.5v-.1l.2-.6h-.3c-.4 0-.7.2-1.1.7l.1-.7h-1.3l-.7 4h1.2c.2-.9.2-1.4.3-1.9.2-.7.7-1.1 1.1-1h.2l.3-.4"/><path id="path648" class="st2" d="M582.3 669.4h-.3c-.4 0-.7.2-1.1.7l.1-.6h-1.1l-.7 4h1.2c.4-2.5.6-2.9 1.2-2.9h.2l.5-1.2"/><path id="path650" class="st2" d="M574 670.7c0 .5.3.9.9 1.1.5.2.6.3.6.4 0 .2-.2.4-.7.4-.4 0-.7 0-1.1-.2l-.2.9h1.3c1.3 0 1.9-.4 1.9-1.3 0-.6-.2-.9-.9-1.1-.5-.2-.6-.2-.6-.4s.2-.3.6-.3c.2 0 .6 0 .9.1l.2-.9c-.3 0-.8-.1-1.1-.1-1.4 0-1.8.6-1.8 1.4"/><path id="path652" class="st2" d="M568.3 671.6h-.3c-.7 0-1 .2-1 .6 0 .2.2.4.4.4.5 0 .9-.4.9-1zm.9 1.8h-1v-.4c-.3.3-.7.5-1.3.5-.7 0-1.1-.4-1.1-1.1 0-1 .8-1.6 2.1-1.6h.5v-.3c0-.3-.2-.4-.8-.4-.3 0-.7 0-1 .1h-.3l.2-.9c.6-.2 1-.2 1.5-.2 1 0 1.6.4 1.6 1.2 0 .2 0 .3-.1.8l-.3 1.4v.9"/><path id="path654" class="st2" d="M572.5 670.9v-.2c0-.3-.2-.5-.6-.5-.4 0-.7.3-.8.7h1.4zm.6 2.4c-.4.1-.8.2-1.2.2-1.4 0-2.1-.6-2.1-1.8 0-1.4.9-2.4 2.1-2.4 1 0 1.6.6 1.6 1.5 0 .3 0 .6-.1 1H571v.1c0 .5.4.7 1.1.7.4 0 .8-.1 1.3-.3l-.3 1"/><path id="path656" class="st2" d="M584.8 671.1c0-.4-.2-.8-.7-.8-.6 0-1 .7-1 1.4 0 .5.3.9.7.9.3 0 .8-.4.9-1 .1-.2.1-.4.1-.5zm1.3.5c-.2 1.3-1.1 1.9-2.4 1.9-1.4 0-1.9-.8-1.9-1.9 0-1.4.9-2.4 2.4-2.4 1.3 0 1.9.8 1.9 1.8v.6"/></g><path d="M48.6.6v.1l-3 14.4c-.2 1-.4 1.6-.7 1.8-.3.2-.9.3-1.9.3-.9 0-1.5-.2-1.8-.5-.3-.3-.5-.9-.7-1.8L37.7 4.5c0-.2-.1-.2-.2-.2s-.1.1-.2.2l-2.7 10.6c-.2.9-.5 1.5-.8 1.8-.3.3-.9.4-1.7.4-1 0-1.6-.1-1.9-.4-.3-.2-.6-.8-.8-1.8L26.4.7V.6c0-.2.1-.3.2-.4.2-.1.3-.2.5-.2h1.7c.3 0 .5.2.5.5l2.6 14.2c0 .3.1.4.3.4.1 0 .2-.1.2-.4l3.1-11.9c.2-.6.6-.9 1.2-.9h1.7c.7 0 1.1.3 1.2.9l3.1 11.9c.1.3.1.4.2.4s.2-.1.3-.4L45.8.5c0-.3.2-.5.5-.5H48c.2 0 .3.1.4.2.1.1.2.3.2.4zM73 .6v.1l-3 14.4c-.2 1-.4 1.6-.7 1.8-.3.2-.9.3-1.9.3-.9 0-1.5-.2-1.8-.5-.3-.3-.5-.9-.7-1.8L62.1 4.5c0-.2-.1-.2-.2-.2s-.1.1-.2.2L59 15.1c-.2.9-.5 1.5-.8 1.8-.3.3-.9.4-1.7.4-1 0-1.6-.1-1.9-.4-.3-.2-.5-.8-.8-1.8L50.8.7V.6c0-.2.1-.3.2-.4.2-.1.4-.2.5-.2h1.7c.3 0 .5.2.5.5l2.6 14.2c0 .3.1.4.3.4.1 0 .2-.1.2-.4l3.1-11.9c.2-.6.6-.9 1.2-.9h1.7c.7 0 1.1.3 1.2.9l3.1 11.9c0 .3.1.4.2.4s.2-.1.3-.4L70.2.5c0-.3.2-.5.5-.5h1.7c.2 0 .3.1.4.2.2.1.2.3.2.4zm24.5 0v.1l-3 14.4c-.2 1-.4 1.6-.7 1.8-.3.2-.9.3-1.9.3-.9 0-1.5-.2-1.8-.5-.3-.3-.5-.9-.7-1.8L86.6 4.5c0-.2-.1-.2-.2-.2s-.1.1-.2.2l-2.7 10.6c-.2.9-.5 1.5-.8 1.8-.3.3-.9.4-1.7.4-1 0-1.6-.1-1.9-.4-.3-.2-.5-.8-.8-1.8L75.3.7V.6c0-.2.1-.3.2-.4.2-.1.3-.2.5-.2h1.7c.3 0 .5.2.5.5l2.6 14.2c0 .3.1.4.3.4.1 0 .2-.1.2-.4l3.1-11.9c.2-.6.6-.9 1.2-.9h1.7c.7 0 1.1.3 1.2.9l3.1 11.9c.1.3.1.4.2.4s.2-.1.3-.4L94.7.5c0-.3.2-.5.5-.5h1.7c.2 0 .3.1.4.2.1.1.2.3.2.4z" fill="#0296fc"/></svg>