<svg version="1.1" id="Слой_1" xmlns="http://www.w3.org/2000/svg" x="0" y="0" width="165" height="34.8" viewBox="0 0 165 34.8" xml:space="preserve"><path d="M9.7 0C8.5 0 7.4.2 6.4.6c-1 .4-1.9 1.1-2.7 1.9-.8.9-1.4 1.9-1.8 3.1-.5 1.3-.7 2.7-.7 4.3 0 2.1.4 3.9 1.2 5.4.8 1.5 2.2 2.7 4.1 3.6L0 30.8h3.6l5.9-11.4h2.1v11.4h3.2V0H9.7zm1.9 16.8H10c-.7 0-1.4-.1-2-.4-.6-.3-1.2-.7-1.7-1.2-.5-.6-.9-1.3-1.2-2.1-.3-.9-.5-1.9-.5-3.2 0-1.3.1-2.4.4-3.3.3-.9.7-1.7 1.1-2.3.5-.6 1-1 1.6-1.3.6-.3 1.2-.4 1.9-.4h2.1l-.1 14.2z" fill="#ee2422"/><path d="M79.7 20.6c0 2.4.4 4.3 1.1 5.7.7 1.4 1.9 2.1 3.4 2.1.6 0 1.2-.1 1.8-.3.6-.2 1.1-.3 1.5-.5l.3 2.3c-.6.4-1.3.7-2.1 1-.8.3-1.6.4-2.6.4-2.1 0-3.7-.9-5-2.6-1.3-1.7-1.9-4.2-1.9-7.4 0-1.8.2-3.4.5-4.8.4-1.4.8-2.7 1.5-3.7.6-1 1.3-1.8 2.2-2.4.9-.6 1.8-.8 2.8-.8.9 0 1.7.1 2.4.4.7.2 1.3.6 1.9 1l-1.6 2.8c-.4-.4-.8-.8-1.3-1.1-.5-.3-.9-.4-1.4-.4-.6 0-1.1.2-1.5.7-.5.5-.8 1.1-1.1 1.9-.3.8-.5 1.7-.7 2.7-.2.9-.2 1.9-.2 3zm-4.2 10.2H72l-4.9-10.2-.4-.4v10.6h-3.2V10.2h3.2v9.4l.4-.4 4.3-9h3.4l-5 9.3zM30.1 10.2v20.6h-3.2V21h-4.7v9.8H19V10.2h3.2v8.1h4.7v-8.1zm30.2 9.3c0-3.2-.5-5.7-1.5-7.3-1-1.7-2.3-2.5-4-2.5-1.1 0-2.1.3-2.9 1-.8.7-1.5 1.5-2 2.6s-.9 2.3-1.2 3.7c-.3 1.4-.4 2.9-.4 4.4 0 3.1.6 5.6 1.9 7.3 1.3 1.7 2.9 2.6 5 2.6 1 0 1.9-.1 2.7-.4.8-.3 1.6-.6 2.2-1l-.4-2.3c-.4.2-.9.3-1.5.5-.7.2-1.3.3-1.9.3-1.6 0-2.8-.6-3.6-1.9-.8-1.3-1.1-3-1.1-5.2h8.6l.1-1.8zm-3.2-.9h-5.3c.1-.9.1-1.7.3-2.5.1-.8.3-1.4.6-2 .2-.6.5-1 .9-1.3.3-.3.7-.5 1.2-.5.6 0 1.2.4 1.6 1.3.4.9.7 2.1.8 3.7v1.3zm-12.3 9.6v-18h-9V12c0 1.3 0 2.6-.1 4 0 1.4-.2 2.8-.3 4.2-.2 1.4-.5 2.8-.8 4.2-.4 1.4-.9 2.7-1.5 3.9h-1.2v6.6h2.8v-4h8.8v4h2.8v-6.6h-1.5zm-3.1 0H36c.5-.9 1-1.9 1.3-3.1.3-1.2.6-2.5.8-3.8s.4-2.7.4-4.1c.1-1.4.1-2.7.1-4v-.4h3v15.4zm59.4-12.1v14.7h-1.9V3h1.9v12.9L109.5 3h1.8l-8.2 12.8 8.9 15h-2.1zm23.1 13.1c-.1-.7-.1-1.4-.1-2.1v-11c0-2-.4-3.5-1.3-4.4-.9-.9-2.1-1.4-3.8-1.4-1.1 0-2.1.2-2.9.6-.8.4-1.4.9-1.8 1.4l.5 1.7c.5-.7 1.1-1.2 1.8-1.6.7-.4 1.5-.6 2.4-.6 1.1 0 2 .4 2.5 1.1.6.7.8 1.8.8 3.4v2.5h-2.2c-2.2 0-3.9.6-5 1.7s-1.7 2.7-1.7 4.9c0 1.8.4 3.3 1.3 4.3s2 1.5 3.3 1.5c1 0 1.9-.3 2.6-.8.7-.6 1.3-1.3 1.8-2.3.1.7.1 1.3.2 1.7.1.4.2.8.3 1h1.6c-.1-.4-.2-.9-.3-1.6zm-1.9-3.4c-.4 1.1-.9 2-1.5 2.8-.7.8-1.4 1.2-2.4 1.2s-1.8-.4-2.4-1.2c-.6-.8-.9-1.9-.9-3.4 0-1.8.4-3.1 1.2-3.9.8-.8 2.1-1.2 3.8-1.2h2.2v5.7zm11.9 3.8c.7 0 1.2-.1 1.7-.3.5-.2.9-.5 1.3-.8.4-.3.7-.7 1-1.1l.6 1.5c-.3.4-.7.8-1.2 1.1-.4.3-.9.6-1.4.8-.6.2-1.3.3-2 .3-2 0-3.6-.9-4.7-2.7-1.1-1.8-1.7-4.4-1.7-7.7s.5-5.9 1.6-7.8c1.1-1.8 2.7-2.8 4.8-2.8 1.1 0 2 .2 2.7.5.7.4 1.3.8 1.7 1.3l-.5 1.9c-.5-.6-1-1.1-1.6-1.6-.6-.5-1.4-.7-2.3-.7-1.6 0-2.7.8-3.5 2.3-.7 1.6-1.1 3.8-1.1 6.7 0 2.8.4 5 1.1 6.6.7 1.7 1.9 2.5 3.5 2.5zm13.1 0c.7 0 1.2-.1 1.7-.3.5-.2.9-.5 1.3-.8.4-.3.7-.7 1-1.1l.6 1.5c-.3.4-.7.8-1.2 1.1-.4.3-.9.6-1.4.8-.6.2-1.3.3-2 .3-2 0-3.6-.9-4.7-2.7-1.1-1.8-1.7-4.4-1.7-7.7s.5-5.9 1.6-7.8c1.1-1.8 2.7-2.8 4.8-2.8 1.1 0 2 .2 2.7.5.7.4 1.3.8 1.7 1.3l-.5 1.9c-.5-.6-1-1.1-1.6-1.6-.6-.5-1.4-.7-2.3-.7-1.6 0-2.7.8-3.5 2.3-.7 1.6-1.1 3.8-1.1 6.7 0 2.8.4 5 1.1 6.6.7 1.7 1.9 2.5 3.5 2.5zm17.4-.4c-.1-.7-.1-1.4-.1-2.1v-11c0-2-.4-3.5-1.3-4.4-.9-.9-2.1-1.4-3.8-1.4-1.1 0-2.1.2-2.9.6-.8.4-1.4.9-1.8 1.4l.5 1.7c.5-.7 1.1-1.2 1.8-1.6.7-.4 1.5-.6 2.4-.6 1.1 0 2 .4 2.5 1.1.6.7.8 1.8.8 3.4v2.5h-2.2c-2.2 0-3.9.6-5 1.7s-1.7 2.7-1.7 4.9c0 1.8.4 3.3 1.3 4.3s2 1.5 3.3 1.5c1 0 1.9-.3 2.6-.8.7-.6 1.3-1.3 1.8-2.3.1.7.1 1.3.2 1.7.1.4.2.8.3 1h1.6c-.1-.4-.2-.9-.3-1.6zm-1.9-3.4c-.4 1.1-.9 2-1.5 2.8-.7.8-1.4 1.2-2.4 1.2s-1.8-.4-2.4-1.2c-.6-.8-.9-1.9-.9-3.4 0-1.8.4-3.1 1.2-3.9.8-.8 2.1-1.2 3.8-1.2h2.2v5.7z" fill="#231f20"/></svg>