<svg version="1.1" id="Слой_1" xmlns="http://www.w3.org/2000/svg" x="0" y="0" width="26.5" height="26.5" viewBox="0 0 26.5 26.5" xml:space="preserve"><style>.st1{fill:#4479fa}</style><path d="M13.1 6.3c-3.9 0-7 3.1-7 7s3.1 7 7 7 7-3.1 7-7-3.1-7-7-7zm2 7.5c0 1.1-.9 2-2 2h-2v-5h2c1.1 0 2 .9 2 2v1z" fill="#d1e2fd"/><path class="st1" d="M13.3 0C5.9 0 0 5.9 0 13.3s5.9 13.3 13.3 13.3c7.3 0 13.3-5.9 13.3-13.3S20.6 0 13.3 0zm0 24.3c-6.1 0-11-5-11-11 0-6.1 5-11 11-11 6.1 0 11 5 11 11s-5 11-11 11z"/><path class="st1" d="M13.3 4.4c-4.9 0-8.8 4-8.8 8.8s4 8.8 8.8 8.8c4.9 0 8.8-4 8.8-8.8s-4-8.8-8.8-8.8zm0 15.5c-3.7 0-6.6-3-6.6-6.6s3-6.6 6.6-6.6c3.7 0 6.6 3 6.6 6.6s-3 6.6-6.6 6.6z"/><path class="st1" d="M13.3 9.4H9.9v7.7h3.3c1.8 0 3.3-1.5 3.3-3.3v-1.1c.1-1.8-1.4-3.3-3.2-3.3zm1.1 4.4c0 .6-.5 1.1-1.1 1.1h-1.1v-3.3h1.1c.6 0 1.1.5 1.1 1.1v1.1z"/></svg>