<svg version="1.1" id="Layer_1" xmlns="http://www.w3.org/2000/svg" x="0" y="0" width="127.033" height="124.305" viewBox="0 0 127.033 124.305" xml:space="preserve"><path fill="#007BD2" d="M123.949 55.091c3.884 3.883 3.884 10.237 0 14.122l-52.178 52.179c-3.884 3.884-10.237 3.884-14.122 0L5.471 69.213c-3.884-3.885-3.884-10.239 0-14.122L57.649 2.913c3.885-3.883 10.238-3.883 14.123 0l52.177 52.178z"/><path fill="#FFF" d="M89.047 91.333L70.838 73.83l-.016-.016-.017-.015c-.555-.561-1.093-.844-1.595-.844-.841 0-1.614.799-1.836 1.1l-.062.085-.072.072-4.27 4.269a3.994 3.994 0 0 1-2.847 1.18 4.002 4.002 0 0 1-2.847-1.178 4 4 0 0 1-1.179-2.848c0-.764.215-1.493.61-2.125.16-.258.349-.501.568-.721l3.525-3.525.499-.498c1.987-2.763.621-4.861-3.514-4.861H14.366c-4.709 0-5.749 2.634-2.314 5.854l18.711 17.537c3.133 2.936 8.009 3.113 11.374.602l1.458-1.457 3.436-3.436c.225-.225.47-.414.731-.576a3.992 3.992 0 0 1 2.115-.604 3.99 3.99 0 0 1 2.847 1.18 3.997 3.997 0 0 1 1.181 2.846c0 .543-.109 1.07-.313 1.558a3.988 3.988 0 0 1 1.486-.284c1.074 0 2.086.418 2.847 1.178a4 4 0 0 1 1.179 2.848c0 .533-.103 1.051-.301 1.531a4.049 4.049 0 0 1 1.505-.292c1.076 0 2.087.421 2.847 1.18a4 4 0 0 1 1.181 2.847c0 .632-.148 1.239-.421 1.787-.012.021-.02.041-.029.061l.073-.035a4 4 0 0 1 2.564-.284 3.982 3.982 0 0 1 1.982 1.084 3.995 3.995 0 0 1 1.086 1.981 4.008 4.008 0 0 1-1.084 3.711l-1.239 1.24-.048.047-1.566 1.566 3.459 3.457c.54.541 1.248.811 1.956.811s1.417-.27 1.958-.811a2.77 2.77 0 0 0 0-3.914l-1.972-1.971a1.055 1.055 0 0 1-.062-.238 1.024 1.024 0 0 1 .9-1.135c.197-.023.387.016.555.096l1.961 1.962a2.763 2.763 0 0 0 3.914 0 2.765 2.765 0 0 0 0-3.914l-2.609-2.61a1.023 1.023 0 0 1 .108-1.1l.001-.002c.162-.204.404-.348.685-.379.16-.02.313.012.457.063l2.713 2.713c.54.54 1.248.811 1.956.811a2.767 2.767 0 0 0 1.956-4.725l-3.125-3.127a1.02 1.02 0 0 1-.18-.465 1.039 1.039 0 0 1 .914-1.15c.429-.051.624-.027 1.033.401l2.904 2.903a2.765 2.765 0 0 0 3.912-.001 2.77 2.77 0 0 0-.001-3.917z"/><linearGradient id="SVGID_1_" gradientUnits="userSpaceOnUse" x1="3.879" y1="51.712" x2="77.342" y2="119.137"><stop offset="0" stop-color="#fdbb11"/><stop offset="1" stop-color="#ffc10e"/></linearGradient><path fill="url(#SVGID_1_)" d="M51.835 87.807a2.77 2.77 0 0 0-1.958-4.725c-.708 0-1.416.27-1.956.811l-3.353 3.352-5.074 5.076a2.763 2.763 0 0 0 0 3.912 2.762 2.762 0 0 0 3.915 0l5.451-5.451 2.975-2.975z"/><linearGradient id="SVGID_2_" gradientUnits="userSpaceOnUse" x1="3.6" y1="51.981" x2="77.093" y2="119.433"><stop offset="0" stop-color="#fdbb11"/><stop offset="1" stop-color="#ffc10e"/></linearGradient><path fill="url(#SVGID_2_)" d="M57.036 93.106a2.77 2.77 0 0 0-3.915-3.914l-2.798 2.797-5.628 5.629a2.767 2.767 0 1 0 3.914 3.914l6.005-6.005 2.422-2.421z"/><linearGradient id="SVGID_3_" gradientUnits="userSpaceOnUse" x1="3.373" y1="52.239" x2="76.853" y2="119.68"><stop offset="0" stop-color="#fdbb11"/><stop offset="1" stop-color="#ffc10e"/></linearGradient><path fill="url(#SVGID_3_)" d="M60.366 100.27l1.897-1.898c.153-.152.277-.318.387-.492a2.76 2.76 0 0 0-.387-3.422 2.751 2.751 0 0 0-1.956-.811c-.708 0-1.415.27-1.956.811l-2.275 2.275-2.366 2.365-1.952 1.951-1.833 1.834a2.765 2.765 0 0 0 0 3.914c.54.541 1.248.811 1.957.811.71 0 1.417-.27 1.958-.811l6.044-6.045.482-.482z"/><linearGradient id="SVGID_4_" gradientUnits="userSpaceOnUse" x1="32.474" y1="20.541" x2="105.948" y2="87.976"><stop offset="0" stop-color="#fdbb11"/><stop offset="1" stop-color="#ffc10e"/></linearGradient><path fill="url(#SVGID_4_)" d="M113.582 63.905H70.648c-1.96 0-3.273.461-3.903 1.225-.05.044-.104.076-.15.123l-4.225 4.225-4.202 4.201a2.765 2.765 0 0 0 0 3.914c.54.541 1.249.811 1.957.811s1.417-.27 1.958-.811l4.27-4.269s1.163-1.626 2.858-1.626c.744 0 1.592.313 2.486 1.215l13.818 12.949 1.528 1.432c1.672 1.567 3.837 2.346 5.999 2.346 2.283 0 4.56-.865 6.257-2.584l16.83-17.059c3.308-3.351 2.161-6.092-2.547-6.092z"/><linearGradient id="SVGID_5_" gradientUnits="userSpaceOnUse" x1="3.104" y1="52.54" x2="76.579" y2="119.976"><stop offset="0" stop-color="#fdbb11"/><stop offset="1" stop-color="#ffc10e"/></linearGradient><path fill="url(#SVGID_5_)" d="M65.658 99.106a2.82 2.82 0 0 0-.578.065 2.731 2.731 0 0 0-1.378.745l-.206.207-1.495 1.494-1.152 1.151-5.572 5.573a2.77 2.77 0 0 0 0 3.916 2.76 2.76 0 0 0 1.958.809c.707 0 1.415-.27 1.956-.811l5.573-5.572 1.218-1.219.31-.31 1.325-1.325c.392-.393.637-.873.745-1.379a2.759 2.759 0 0 0-2.704-3.344z"/><path fill="#FFF" d="M6.809 56.808C3.074 56.684 0 55.219 0 50.721c0-4.477 3.053-5.921 6.787-6.045v-1.217h3.549v1.217c3.734.124 6.789 1.568 6.789 6.045 0 4.498-3.074 5.963-6.809 6.087v1.217H6.809v-1.217zm.041-3.405V48.06c-1.588.062-3.073.599-3.073 2.662-.001 2.063 1.566 2.599 3.073 2.681zm3.425-5.343v5.344c1.506-.082 3.073-.619 3.073-2.682.001-2.064-1.485-2.601-3.073-2.662zm9.635 9.903V43.52h6.355c6.91.021 6.91 10.75 0 10.75h-2.662v3.693H19.91zm6.334-11.141c-.866-.021-1.796 0-2.641 0v4.126h2.641c2.022 0 2.146-4.106 0-4.126zm15.454 9.325h-5.695l-.846 1.816h-3.611v-.537l6.5-14.092h1.589l6.52 14.092v.537h-3.61l-.847-1.816zm-2.868-6.952l-1.63 3.796h3.301l-1.671-3.796zm21.252 8.768h-3.776v-5.798h-4.457v5.798h-3.776V43.521h3.776v5.241h4.457v-5.241h3.776v14.442zm3.712-14.442h3.776V54.56h3.487V43.521h3.774V54.56h3.489V43.521h3.774v14.443h-18.3V43.521zM87.11 57.984h-1.32V43.521h3.775v7.077l7.305-7.139h1.34v14.504h-3.817v-7.098l-7.283 7.119zm14.256-10.832c-.124-2.662 2.042-3.9 4.561-3.9 3.155 0 4.745 2.084 4.745 4.188 0 .95-.412 2.043-1.259 2.683 1.466.784 2.084 1.939 2.084 3.569 0 2.559-1.857 4.539-5.57 4.539-3.137 0-5.056-1.733-5.056-4.972h3.238c0 1.135.744 1.856 1.817 1.856 2.476 0 2.476-3.28 0-3.28h-1.012v-3.013h.97c1.815 0 1.775-2.517.042-2.517-.806 0-1.279.31-1.279.846h-3.281zm21.211 8.995h-5.696l-.846 1.816h-3.61v-.537l6.499-14.092h1.589l6.521 14.092v.537h-3.611l-.846-1.816zm-2.869-6.952l-1.629 3.796h3.3l-1.671-3.796z"/><linearGradient id="SVGID_6_" gradientUnits="userSpaceOnUse" x1="40.963" y1="11.296" x2="114.435" y2="78.729"><stop offset="0" stop-color="#fdbb11"/><stop offset="1" stop-color="#ffc10e"/></linearGradient><path fill="url(#SVGID_6_)" d="M40.695 37.244c-5.454 0-6.761-3.155-2.904-7.01l19.78-19.782c3.856-3.856 10.166-3.856 14.022.001l19.78 19.781c3.855 3.854 2.55 7.01-2.903 7.01H40.695z"/></svg>