<svg version="1.1" id="Слой_1" xmlns="http://www.w3.org/2000/svg" x="0" y="0" width="137.1" height="24.8" viewBox="0 0 137.1 24.8" xml:space="preserve"><path d="M16.6 12.9c.2.7-.1 1.4-.7 2.1-1.1 1.2-2.9 1.8-5.4 1.8-.8 0-2-.2-3.4-.5-1.5-.3-2.5-.4-3.2-.4-.7 0-1.4.1-1.9.2-.6.2-1 .3-1.3.5-.3.2-.5.3-.5.3-.1 0-.2 0-.2-.2-.1-.5.2-1.2.7-2 1.1-1.5 2.8-2.1 5.1-2.1 1.1 0 2.3.2 3.6.5 1.3.3 2.4.4 3.2.5.6 0 1.1 0 1.6-.1s.8-.2 1.1-.3c.2-.1.5-.3.7-.4.2-.1.3-.2.3-.2.2-.1.3 0 .3.3zm22.9 11.2h-8.7c-.1 0-.2-.1-.2-.2l-3.5-8.5c-.7.5-1.2 1.1-1.5 1.8-.3.7-.4 1.3-.3 1.9.1.6.3 1.1.4 1.6.2.5.4.8.6 1 .1.1 0 .2 0 .5-.1.2-.3.5-.5.8-.2.3-.5.6-.9.8-.3.3-.8.5-1.3.7-.5.2-1.1.3-1.6.3-1.4 0-2.5-.5-3.4-1.5-.9-1-1.3-2.2-1.2-3.6.1-1.7.9-3.2 2.5-4.7s3.5-2.6 5.8-3.3L20.5 1.2c0-.2 0-.2.2-.2h8.2l.1.1v.1l3.3 8.5c.8-.5 1.3-1.1 1.6-1.8.3-.8.4-1.5.3-2.2 0-.7-.2-1.3-.4-1.9-.2-.5-.4-.9-.6-1.1v-.3c0-.2.2-.4.3-.6.2-.2.4-.5.7-.7.3-.2.6-.4 1.1-.6.5-.2 1-.3 1.5-.3 1.6-.2 2.8.2 3.8 1.2.9.9 1.4 2.1 1.4 3.6 0 1.7-.8 3.3-2.3 4.8-1.5 1.5-3.4 2.6-5.7 3.3l5.6 10.7c.1.2 0 .3-.1.3zm19.1-4.4c.1.6.2 1 .4 1.3.2.3.3.5.5.6.2.1.3.2.4.3.1.1.1.2 0 .4-.2.6-.8 1.1-1.6 1.6s-1.7.7-2.5.7c-1.1 0-2-.3-2.8-1-.7-.7-1.1-1.6-1.2-2.7-1.6 2.4-3.4 3.6-5.5 3.6-1.3 0-2.4-.5-3.3-1.4-.9-.9-1.5-2.1-1.8-3.5-.3-1.4-.4-2.8-.2-4.3.3-2.3 1.1-4.3 2.5-5.9C45 7.8 46.7 7 48.7 7c2.1 0 3.5 1 4.4 3.1l.3-2.2v-.1H60c.1 0 .1.1.1.2-.8 4.9-1.2 8.1-1.4 9.6-.1.8-.1 1.6-.1 2.1zm-7-.9c.5-.8.9-1.9 1-3.1.2-1.3.1-2.3-.3-3.1-.3-.8-.9-1.2-1.6-1.2-.8 0-1.4.4-1.9 1.2-.5.8-.9 1.9-1 3.1-.2 1.3-.1 2.3.2 3.1.3.8.9 1.2 1.6 1.2.8 0 1.5-.4 2-1.2zm27.1 5.1c0 .1 0 .1-.1.2h-6.2c-.1 0-.1-.1-.1-.2l1.6-13h-2.6c-.1 3-.5 5.8-1.2 8.4-.9 3.7-2.7 5.5-5.4 5.5-1.3 0-2.2-.4-2.9-1.3-.6-.9-.9-1.6-.8-2.2 0-.1.2-.3.4-.5s.5-.5.9-.7c.4-.3.8-.8 1.3-1.6s.9-1.7 1.4-2.7c.3-.8.6-1.8.8-3 .3-1.3.5-2.4.6-3.3l.2-1.4c0-.1 0-.2.1-.2 4.5-1 9.2-1 14 0 .1 0 .1 0 .1.1l-2.1 15.9zm13.2-12.8c1 0 2 .1 2.9.4.9.3 1.7.8 2.3 1.6.6.8 1 1.7 1.1 2.8.2 2.6-.6 4.7-2.3 6.3-1.7 1.6-3.9 2.5-6.4 2.5-2.3 0-4.2-.8-5.5-2.3-1.3-1.5-2-3.5-2-5.8 0-1.8.3-3.6.8-5.5s1.3-3.6 2.2-5.3c.9-1.6 2.2-3 3.7-4.1C90.2.6 91.9.1 93.7 0c1.8-.1 3.3.6 4.3 1.9.9 1.2 1 2.6.5 4.1-.8 2-2.7 3.4-5.7 4.3-1.1.3-2.3.6-3.6.7l-.2.6c.9-.3 1.9-.5 2.9-.5zm-1.6 3.2h-.9c-.3 0-.5.1-.7.1l-.3.1c-.1.5-.2 1.1-.2 1.7-.1.6-.1 1.3-.1 2.1s.1 1.5.4 2c.3.5.7.8 1.2.8.7 0 1.3-.4 1.8-1.3s.7-1.6.7-2.3c.3-1.9-.4-3-1.9-3.2zm-.5-5.8c.1 0 .2-.1.3-.2.1-.1.4-.2.8-.5.4-.2.7-.5 1-.7.3-.2.6-.6.9-.9.3-.4.4-.7.5-1.1 0-.6-.2-.9-.8-.9-1 0-1.9 1.5-2.7 4.3zm27.8 11.2c.1.6.2 1 .4 1.3.2.3.3.5.5.6.2.1.3.2.4.3.1.1.1.2 0 .4-.2.6-.8 1.1-1.6 1.6s-1.7.7-2.5.7c-1.1 0-2-.3-2.8-1-.7-.7-1.1-1.6-1.2-2.7-1.6 2.4-3.4 3.6-5.5 3.6-1.3 0-2.4-.5-3.3-1.4-.9-.9-1.5-2.1-1.8-3.5-.3-1.4-.4-2.8-.2-4.3.3-2.3 1.1-4.3 2.5-5.9 1.4-1.6 3.1-2.4 5.1-2.4 2.1 0 3.5 1 4.4 3.1l.3-2.2v-.1h6.6c.1 0 .1.1.1.2-.8 4.9-1.2 8.1-1.4 9.6v2.1zm-7-.9c.5-.8.9-1.9 1-3.1.2-1.3.1-2.3-.3-3.1-.3-.8-.9-1.2-1.6-1.2-.8 0-1.4.4-1.9 1.2-.5.8-.9 1.9-1 3.1-.2 1.3-.1 2.3.3 3.1.3.8.9 1.2 1.6 1.2.7 0 1.4-.4 1.9-1.2zm26.5-5.9c.2.7-.1 1.4-.7 2.1-1.1 1.2-2.9 1.8-5.4 1.8-.8 0-2-.2-3.4-.5-1.5-.3-2.5-.4-3.2-.4-.7 0-1.4.1-1.9.2-.6.2-1 .3-1.3.5-.3.2-.5.3-.5.3-.1 0-.2 0-.2-.2-.1-.5.2-1.2.7-2 1.1-1.5 2.8-2.1 5.1-2.1 1.1 0 2.3.2 3.6.5 1.3.3 2.4.4 3.2.5.6 0 1.1 0 1.6-.1s.8-.2 1.1-.3c.2-.1.5-.3.7-.4.2-.1.3-.2.3-.2.1-.1.2 0 .3.3z" fill="#4fa5dc"/></svg>