<svg version="1.1" id="Слой_1" xmlns="http://www.w3.org/2000/svg" x="0" y="0" width="132.8" height="32.3" viewBox="0 0 132.8 32.3" xml:space="preserve"><style>.st0{fill:#bfd7f2}.st1{fill:#6aa9dd}</style><path class="st0" d="M45.2 20.5L44 17.1c-.3-.8-.9-1.4-1.8-1.4v4.8h-2.5V10h2.5v4.6L45 10h2.8l-3.2 4.7c.9.4 1.5 1.1 1.8 2.1l1.4 3.6h-2.6zm7.9-.1l-1.5 3.2h-2.5l1.5-3.1c-1.3-2.4-2.5-5.1-2.7-7.8h2.5c.2 2.1.7 3.9 1.3 5.7.6-1.7 1-3.5 1.2-5.7h2.5c-.1 2.6-1.3 5.5-2.3 7.7zm8.1.1v-5.9h-2v5.9h-2.4v-7.8h6.8v7.8h-2.4zm9.2 0v-5s-.2.5-.5.9l-2.4 4h-2.2v-7.8h2.1v4.8s.2-.5.5-1l2.3-3.9h2.3v7.8h-2.1zm7.4.2c-1.3 0-2.6-.2-3.3-.6v-9.7c.8-.3 2-.6 3.3-.6 2.8 0 4 1.2 4 2.9 0 1.1-.7 2-1.6 2.2.8.3 1.8 1.2 1.8 2.6.1 2-1.3 3.2-4.2 3.2zm0-9c-.4 0-.7.1-1 .1v2.5H78c.5 0 .9-.1 1.1-.3.2-.2.4-.6.4-1 0-.8-.4-1.3-1.7-1.3zm1.4 4.7c-.3-.2-.6-.3-1.2-.3h-1.2v2.6c.2.1.6.1 1 .1 1.3 0 1.8-.4 1.8-1.4.1-.4-.1-.8-.4-1zm9.1 4.1l-.9-2.4c-.3-.7-.7-1.2-1.5-1.2v3.6h-2.3v-7.8h2.3v3.4l2.1-3.4h2.7l-2.5 3.4c.7.3 1.2 1 1.6 1.8l1.1 2.6h-2.6zm7 .1c-.3 0-.7-.1-1-.1v3.2H92V13.1c.6-.3 1.8-.6 3-.6 2.6 0 4 1.4 4 4 0 2.5-1.3 4.1-3.7 4.1zm-.2-6.2c-.3 0-.5.1-.7.1v4.2c.1.1.4.1.7.1 1 0 1.5-.9 1.5-2.2 0-1.5-.6-2.2-1.5-2.2zm12.3 2.5l-4.8.6c.2.9.9 1.3 1.9 1.3.8 0 1.6-.2 2.2-.5l.7 1.8c-.7.3-1.9.6-3 .6-2.7 0-4-1.8-4-4.1 0-2.4 1.4-4.1 3.7-4.1 2.3 0 3.5 1.5 3.5 3.6-.2.3-.2.6-.2.8zm-3.5-2.7c-.8 0-1.5.6-1.5 1.9l2.7-.3c0-1.1-.5-1.6-1.2-1.6zm12.9 8.4h-1.6l-.1-2.1h-5l-.1 2.1h-1.6l-.1-3.6c1.4-.8 1.9-2.6 2.1-4.3l.3-2h5l.6 5.9.7.4-.2 3.6zm-3.1-8.1h-1.2l-.1.7c-.2 1.2-.5 2.7-1.4 3.6h3.1l-.4-4.3zm9.7 6v-5s-.2.5-.5.9l-2.4 4h-2.2v-7.8h2.1v4.8s.2-.5.5-1l2.3-3.9h2.3v7.8h-2.1zm7.6-5.9v5.9h-2.4v-5.9h-1.8v-1.8h5.9v1.8H131z"/><path class="st1" d="M32.3 16.2c0 8.9-7.2 16.2-16.2 16.2C7.2 32.3 0 25.1 0 16.2 0 7.2 7.2 0 16.2 0c8.9 0 16.1 7.2 16.1 16.2z"/><defs><filter id="Adobe_OpacityMaskFilter" filterUnits="userSpaceOnUse" x=".6" y=".6" width="31.1" height="31.1"><feFlood result="back" flood-color="#fff" flood-opacity="1"/><feBlend in="SourceGraphic" in2="back"/></filter></defs><mask maskUnits="userSpaceOnUse" x=".6" y=".6" width="31.1" height="31.1" id="SVGID_1_"><g filter="url(#Adobe_OpacityMaskFilter)"><defs><filter id="Adobe_OpacityMaskFilter_1_" filterUnits="userSpaceOnUse" x=".6" y=".6" width="31.1" height="31.1"><feFlood result="back" flood-color="#fff" flood-opacity="1"/><feBlend in="SourceGraphic" in2="back"/></filter></defs><linearGradient id="SVGID_2_" gradientUnits="userSpaceOnUse" x1="-854.825" y1="-1230.654" x2="-844.192" y2="-1259.867" gradientTransform="rotate(-45.001 1106.008 -1659.491)"><stop offset="0"/><stop offset=".1"/><stop offset=".893"/><stop offset="1" stop-color="#fff"/></linearGradient><path d="M5.2 5.2c-6.1 6.1-6.1 15.9 0 22s15.9 6.1 22 0 6.1-15.9 0-22-16-6.1-22 0zm21.5 21.5c-5.8 5.8-15.2 5.8-21.1 0-5.8-5.8-5.8-15.2 0-21.1 5.8-5.8 15.2-5.8 21.1 0 5.8 5.8 5.8 15.3 0 21.1z" mask="url(#SVGID_1_)" fill="url(#SVGID_2_)"/></g></mask><path class="st1" d="M5.2 5.2c-6.1 6.1-6.1 15.9 0 22s15.9 6.1 22 0 6.1-15.9 0-22-16-6.1-22 0zm21.5 21.5c-5.8 5.8-15.2 5.8-21.1 0-5.8-5.8-5.8-15.2 0-21.1 5.8-5.8 15.2-5.8 21.1 0 5.8 5.8 5.8 15.3 0 21.1z"/><path class="st0" d="M33.2 1.2l-17 14.1-8.7-2.6-1.2.8 9.3 11.2L35.4 1.2z"/><path class="st0" d="M33.3 1.6l-17 14.2-8.8-2.5-.9.6 9.1 11L35.1 1.6z"/></svg>