<svg version="1.1" id="Слой_1" xmlns="http://www.w3.org/2000/svg" x="0" y="0" width="127.2" height="21.3" viewBox="0 0 127.2 21.3" xml:space="preserve"><path d="M52.4 6.3h1.9c1.3 0 2.1.5 2.1 1.6 0 1.4-1.1 1.8-2.1 1.8h-1.8V6.3h-.1zm68.7 5h1.8c2 0 2.4 1 2.4 1.9 0 1.9-1.9 1.9-2.5 1.9H121v-3.8h.1zm-68.7 0h1.9c1.6 0 2.4.6 2.4 1.8 0 1.7-1.6 1.9-3 1.9h-1.4l.1-3.7zm58.7-5V4.5h-8.9v1.7h3.5v10.5h1.9V6.3h3.5zM91.4 6c1.6 0 2.8.7 3.5 1.4V5.2c-1.2-.7-2.7-.9-3.5-.9-3.6 0-6.5 2.5-6.5 6.3 0 3.9 2.9 6.3 6.5 6.3.8 0 2.3-.2 3.5-.9v-2c-.7.7-1.9 1.3-3.5 1.3-2.8 0-4.6-2-4.6-4.6C86.8 8 88.6 6 91.4 6zM69 16.8h7v-1.7h-5.1v-3.7h4.7V9.6h-4.7V6.3H76V4.5h-7v12.3zm50.2 0h3.9c2.3 0 4.1-1.2 4.1-3.6 0-2.5-1.9-3.7-4.1-3.7h-2v-5h-1.9v12.3zm-84.6-1.5c-2.6 0-4.5-1.9-4.5-4.7C30.1 7.9 32 6 34.6 6S39 7.9 39 10.7c.1 2.7-1.8 4.6-4.4 4.6zm15.9 1.5h3.7c2.4 0 4.5-.9 4.5-3.4 0-1.9-1-2.7-2.2-3 1.2-.6 1.8-1.4 1.8-2.7 0-2.4-2-3.2-4-3.2h-3.8v12.3zM34.6 4.3c-3.7 0-6.4 2.8-6.4 6.3 0 3.6 2.7 6.3 6.4 6.3 3.6 0 6.4-2.7 6.4-6.3 0-3.5-2.7-6.3-6.4-6.3zM10.9 1.6c5 0 9 4.1 9 9 0 5-4 9-9 9s-9-4-9-9c0-4.9 4-9 9-9zM0 10.7c0 6 4.9 10.7 10.9 10.7 5.9 0 10.8-4.5 10.8-10.7C21.7 4.6 16.8 0 10.9 0 4.9 0 0 4.7 0 10.7zm11.5 4.6c1.6 0 2.8-.7 3.5-1.3v2.2c-1.2.7-2.7.9-3.5.9-3.6 0-6.5-2.5-6.5-6.3 0-3.9 2.9-6.3 6.5-6.3.8 0 2.3.2 3.5.9v2.2c-.7-.7-1.9-1.4-3.5-1.4-2.8 0-4.6 2-4.6 4.6s1.8 4.5 4.6 4.5z" fill="#d8eefa"/></svg>