<?xml version="1.0" encoding="utf-8"?>
<!-- Generator: Adobe Illustrator 16.0.0, SVG Export Plug-In . SVG Version: 6.00 Build 0)  -->
<!DOCTYPE svg PUBLIC "-//W3C//DTD SVG 1.1//EN" "http://www.w3.org/Graphics/SVG/1.1/DTD/svg11.dtd">
<svg version="1.1" id="Layer_1" xmlns="http://www.w3.org/2000/svg" xmlns:xlink="http://www.w3.org/1999/xlink" x="0px" y="0px"
	 width="304.366px" height="68.944px" viewBox="1.559 163.078 304.366 68.944"
	 enable-background="new 1.559 163.078 304.366 68.944" xml:space="preserve">
<g>
	<g>
		<g>
			<polygon fill="#0092D7" points="220.866,183.168 217.586,203.403 223.701,203.403 225.267,193.583 229.887,193.583 
				228.325,203.403 234.438,203.403 237.726,183.168 231.609,183.168 230.559,189.608 225.939,189.608 226.985,183.168 			"/>
			<path fill="#0092D7" d="M183.659,209.769l1.112-6.44h5.824c1.485,0,2.756-0.526,3.723-1.425c1.045-1.046,1.718-2.176,1.941-3.522
				c0,0,1.487-8.994,1.487-9.449c0.195-1.633-0.521-2.993-1.711-4.118c-1.048-1.198-2.391-1.722-4.039-1.722h-10.058l-4.403,26.679
				h6.123V209.769z M187.31,187.141h1.932c0.681,0,1.202,0.224,1.647,0.673c0.881,0.891,0.675,1.944,0.675,1.944l-1.35,7.497
				c-0.228,1.346-0.973,2.019-2.238,2.019H185.3L187.31,187.141z"/>
			<path fill="#0092D7" d="M205.134,189.608c-2.912,0-5.152,1.456-5.666,4.571l-0.382,2.479c0,0.224-0.071,0.526-0.071,0.892
				c0,1.657,0.591,3.004,1.642,4.128c1.199,1.124,2.538,1.727,4.102,1.727H214.9c0,0,2.313-14.09,2.313-14.543
				c0.292-1.676-0.521-2.852-1.719-3.977c-1.115-1.194-2.466-1.717-4.104-1.717h-10.057l-0.603,3.973h7.986
				c0.589,0,1.188,0.225,1.715,0.82c0.518,0.6,0.744,1.125,0.589,1.647H205.134z M209.307,199.273h-1.867
				c-0.515,0-2.491-0.445-2.231-2.393l0.222-1.58c0.229-0.594,0.448-0.973,0.821-1.189c0.446-0.381,0.895-0.528,1.414-0.528h2.685
				L209.307,199.273z"/>
			<polygon fill="#0092D7" points="171.123,203.403 173.73,187.213 178.359,187.213 179.027,183.168 163.665,183.168 
				162.993,187.213 167.621,187.213 165.086,203.403 			"/>
			<path fill="#0092D7" d="M153.751,178.143c0.222-1.045,0.968-1.494,2.229-1.494h10.896l0.594-3.973h-15.608h-0.422
				c-0.178,0.008-0.341,0.041-0.513,0.063c-1.036,0.13-1.952,0.482-2.773,1.085c-0.124,0.09-0.256,0.168-0.375,0.271
				c-0.053,0.041-0.093,0.094-0.144,0.137c-0.873,0.744-1.437,1.744-1.792,3.083l-3.212,19.263l-0.075,1.054
				c0,1.5,0.603,2.851,1.715,4.048c1.199,1.124,2.543,1.727,4.035,1.727h14.164l0.596-4.13h-10.065
				c-2.823,0-2.385-1.867-2.316-2.614L153.751,178.143z"/>
			<path fill="#0092D7" d="M254.197,184.885c-1.112-1.194-2.456-1.717-4.094-1.717h-10.064l-0.6,3.973h7.978
				c0.668,0,1.267,0.225,1.718,0.82c0.512,0.6,0.741,1.125,0.593,1.647h-6.111c-2.537,0-4.328,1.353-5.22,3.975l-0.229,0.599
				l-0.373,2.479c0,0.222-0.069,0.524-0.069,0.892c0,0.338,0.042,0.651,0.087,0.965c0.04,0.256,0.105,0.494,0.173,0.732
				c0.265,0.909,0.716,1.719,1.37,2.43c1.202,1.123,2.547,1.727,4.105,1.727h6.427h1.528h2.185l0.159-0.957l0.15-0.924l0.24-1.469
				l0.136-0.825l1.557-9.471c0.071-0.149,0.071-0.444,0.071-0.897C255.913,187.364,255.395,186.01,254.197,184.885z
				 M248.011,199.273h-1.866c-0.519,0-2.51-0.249-2.235-2.393l0.303-1.58c0.289-1.449,1.644-1.719,2.091-1.719h2.754
				L248.011,199.273z"/>
			<path fill="#4D4D4F" d="M41.85,188.295c-3.009,0-5.362,1.163-7.394,3.117l-2.938-2.609l0.209-3.472
				c0-0.041,0.042-0.286,0.042-0.327c0.448-0.672,0.815-1.313,1.105-1.849c0.148-0.042,0.32-0.106,0.546-0.233
				c0.758-0.438,0.88-1.238,1.06-1.854c0.104-0.37-0.124-0.821-0.431-1.133c-0.098-0.094-0.507-0.58-1.052-0.676
				c-0.759-0.138-1.918-0.387-1.918-0.387l-7.699-4.242c-3.569-1.701-5.72-2.771-7.18-3.377l0.024-0.046
				c0,0,1.802,0.675,2.576-0.639c0.191-0.33,0.242-0.468,0.417-0.783c0.042,0.011,0.076,0.021,0.113,0.026
				c0.354,0.08,0.645,0.025,0.54-0.42c-0.092-0.402,0.208-1.455,0.208-1.455l-0.016,0.007c0.005-0.007,0.005-0.007,0.005-0.019
				c0.742-0.172,1.357-0.588,1.639-1.39c0.835-2.321-3.203-4.166-6.322-3.192c-2.167,0.68-2.587,1.51-2.587,1.51
				s0.356,0.443,0.915,0.967c-0.292,0.557-0.463,1.254-0.564,2.001c-0.036,0.226-0.17,0.593-0.346,1.005
				c-0.285,0.376-0.652,0.816-1.113,1.229c-1.077,0.963-2.098,1.371-2.801,2.248c-0.028,0.039-0.054,0.078-0.063,0.119
				c-0.607,0.563-1.213,1.273-1.784,2.17c-2.622,4.149-4.666,8.405-4.666,8.405s-1.722,3.767-0.166,6.44
				c0.667,1.154,3.063,2.453,4.794,3.268c3.162,1.479,6.468,3.862,6.468,3.862s0.12,2.535,0.603,4.896
				c-0.399-0.048-0.799-0.074-1.209-0.074c-6.222,0-11.289,5.092-11.289,11.348c0,6.26,5.065,11.35,11.289,11.35
				c6.225,0,11.289-5.09,11.289-11.35c0-0.031-0.004-0.063-0.004-0.096c0.247,0.06,0.506,0.096,0.772,0.096
				c1.91,0,3.451-1.549,3.451-3.463c0-1.143-0.562-2.148-1.404-2.778c0.89-1.233,2.063-2.853,2.302-3.174
				c0.398-0.545-0.071-0.767-0.071-0.767s-0.657-0.661-1.143-0.394l3.198-11.281l2.047,1.815c-1.465,1.919-2.353,4.309-2.353,6.902
				c0,6.254,5.069,11.348,11.286,11.348c6.218,0,10.907-5.057,10.907-11.309C53.144,193.387,48.077,188.295,41.85,188.295z
				 M12.866,222.065c-5.108,0-9.274-4.185-9.274-9.327c0-5.14,4.166-9.324,9.274-9.324c0.612,0,1.215,0.064,1.789,0.181
				c0.108,0.266,0.212,0.52,0.325,0.737c0.077,0.148,0.155,0.3,0.238,0.453l-2.207,6.045c-0.047-0.005-0.098-0.017-0.145-0.017
				c-1.055,0-1.906,0.864-1.906,1.925c0,1.063,0.851,1.927,1.906,1.927c1.065,0,1.913-0.863,1.913-1.927c0-0.012,0-0.021,0-0.031
				l3.218-1.075c0.109,0.584,0.37,1.155,1.115,1.004c0.653-0.14,1.855-0.487,2.986-0.825c0.026,0.306,0.047,0.619,0.047,0.929
				C22.144,217.882,17.981,222.065,12.866,222.065z M16.092,206.573c0.713,1.507,1.357,2.973,1.647,3.625l-3.379,1.132
				L16.092,206.573z M19.402,206.132c0.87,0.873,1.57,1.909,2.046,3.078c-1.264-0.098-1.838-0.457-1.838-0.457
				S19.518,207.687,19.402,206.132z M22.48,206.83c-0.837-1.379-1.953-2.563-3.275-3.476c-0.031-0.452-0.057-0.92-0.088-1.381
				c1.453,1.522,3.053,2.271,4.375,4.017c0.024,0.037,0.045,0.065,0.071,0.108C23.159,206.267,22.792,206.522,22.48,206.83z
				 M26.104,203.762c-0.586,0.266-1.077,0.378-1.077,0.378l-3.121-5.427l7.787-7.58L26.104,203.762z M29.77,189.053l-8.606,8.37
				l-2.59-4.528c-0.561-1.309-1.49-2.096-2.089-2.531c-0.933-0.68-2.114-1.771-5.064-4.719l2.375-5.256l4.57,2.855
				c0,0,7.562,3.339,8.333,3.656c0.339,0.138,0.623,0.215,0.86,0.277c-0.232,0.297-0.258,0.721-0.015,1.035
				c0.165,0.229,0.421,0.342,0.688,0.342c0.177,0,0.357-0.049,0.515-0.168c0.035-0.033,0.085-0.074,0.127-0.111
				c0.102,0.146,0.23,0.263,0.415,0.279c0.181,0.025,0.366-0.018,0.522-0.069L29.77,189.053z M29.733,184.893
				c-0.011,0-0.032-0.008-0.042-0.014c-0.696-0.068-2.654-0.146-2.654-0.146s-4.363-2.589-6.06-3.666
				c-1.701-1.089-5.271-4.083-5.271-4.083l0.985-1.559c0,0,4.508,1.514,6.11,2.303c1.605,0.796,7.822,3.339,7.822,3.339
				c0.018,0.469,0.382,0.983,0.688,1.343C30.93,183.122,30.393,184.022,29.733,184.893z M42.236,208.927
				c-5.101,0-9.27-4.182-9.27-9.326c0-2.084,0.691-4.007,1.856-5.569l5.611,4.965c-0.063,0.187-0.108,0.388-0.108,0.604
				c0,1.063,0.856,1.931,1.91,1.931c1.065,0,1.918-0.866,1.918-1.931c0-1.061-0.853-1.926-1.918-1.926
				c-0.2,0-0.388,0.043-0.573,0.101l-5.689-5.025c1.649-1.523,3.848-2.471,6.262-2.471c5.124,0,9.284,4.182,9.284,9.321
				C51.52,204.746,47.36,208.927,42.236,208.927z"/>
			<path fill="#4D4D4F" d="M83.947,185.861c0.078,0,0.152-0.075,0.152-0.075c1.039-0.974,1.638-2.097,1.937-3.446l0.523-3.824
				c0-1.646-0.523-2.994-1.641-4.045c-1.119-1.198-2.537-1.795-4.102-1.795H65.23l-5.077,30.728h17.304
				c1.569,0,2.836-0.46,3.949-1.354c1.048-0.975,1.72-2.101,1.94-3.449c0,0,1.532-9.515,1.569-9.669
				C85.187,187.764,84.609,186.69,83.947,185.861z M78.579,189.836l-1.192,7.494c-0.23,0.604-0.447,1.051-0.819,1.351
				c-0.523,0.369-0.97,0.594-1.492,0.594h-6.341l2.089-12.134h5.588c0.672,0,1.271,0.225,1.723,0.82
				C78.579,188.412,78.655,189.086,78.579,189.836z M80.372,179.342l-0.303,1.725c-0.15,0.604-0.45,1.048-0.816,1.426
				c-0.375,0.298-0.976,0.523-1.496,0.523h-6.338l1.12-6.293h5.672c0.443,0,1.042,0.221,1.559,0.664
				C80.294,177.914,80.521,178.516,80.372,179.342z"/>
			<path fill="#4D4D4F" d="M133.987,203.403c1.336,0,2.537-0.53,3.728-1.432c1.12-0.971,1.79-2.091,2.01-3.291l1.492-9.294
				c0.321-1.717-0.446-3.525-1.633-4.574c-1.045-1.123-2.465-1.645-4.105-1.645h-5.219c-1.339,0-2.538,0.372-3.659,1.271
				c-1.122,0.673-1.795,1.8-2.013,3.296l-1.421,8.771c0,0.153-0.068,0.525-0.068,1.045c0,1.657,0.599,3.004,1.641,4.128
				c1.19,1.124,2.533,1.727,4.103,1.727L133.987,203.403L133.987,203.403z M129.433,196.576l1.195-7.49
				c0.229-1.352,0.97-1.945,2.089-1.945c2.508,0,2.384,2.174,2.314,2.545l-1.266,7.571c-0.226,1.346-0.971,2.018-2.234,2.018
				C130.93,199.273,129.002,199.273,129.433,196.576z"/>
			<path fill="#4D4D4F" d="M119.519,203.403l3.209-20.163h-6.56c-2.534,0-4.401,1.121-5.522,3.525l-7.979,16.638h6.038l7.31-16.039
				l-2.606,16.039H119.519z"/>
			<path fill="#4D4D4F" d="M102.44,184.885c-1.114-1.194-2.461-1.717-4.026-1.717h-2.122h-0.758l-3.121,0.057
				c-0.242,0.029-0.478,0.082-0.71,0.141c-0.76,0.189-1.48,0.525-2.165,1.074c-1.114,0.902-1.782,2.023-2.018,3.375l-1.412,8.612
				c0,0.231-0.074,0.604-0.074,1.05c0,1.573,0.593,3.004,1.637,4.201c0.524,0.528,1.123,0.979,1.793,1.267
				c0.141,0.061,0.282,0.083,0.421,0.132c0.245,0.079,0.49,0.168,0.735,0.216c0.359,0.073,0.718,0.112,1.081,0.112h10.213
				l0.525-4.13h-7.904c-0.596,0-1.198-0.225-1.643-0.672c-0.443-0.448-0.667-1.053-0.667-1.649v-0.071h10.733l1.117-6.972
				C104.152,189.686,104.268,186.674,102.44,184.885z M97.973,189.836l-0.535,2.924h-4.617l0.6-3.373
				c0.22-1.498,0.965-2.246,2.157-2.246C98.307,187.141,98.115,188.932,97.973,189.836z"/>
			<g>
				<path fill="#4D4D4F" d="M64.185,226.64l0.582-3.93c0.153-1.031,0.367-2.345,0.634-3.719h-0.041
					c-0.525,1.23-1.118,2.545-1.641,3.591l-1.951,3.899h-1.583l-0.339-3.855c-0.084-1.048-0.156-2.359-0.212-3.635h-0.03
					c-0.266,1.257-0.55,2.688-0.791,3.719l-0.947,3.93H56l2.389-9.528h2.729l0.293,3.62c0.059,0.891,0.16,1.979,0.172,3.037h0.056
					c0.367-1.059,0.875-2.175,1.291-3.037l1.763-3.62h2.756l-1.285,9.528H64.185z"/>
				<path fill="#4D4D4F" d="M71.147,219.727l-0.68,2.673h0.025c0.456-0.395,1.175-0.638,1.81-0.638c1.116,0,1.895,0.694,1.895,1.895
					c0,1.498-1.256,3.11-3.789,3.11c-1.086,0-2.345-0.252-2.345-1.668c0-0.396,0.113-1.004,0.196-1.398l0.877-3.974H71.147z
					 M72.206,224.023c0-0.509-0.296-0.806-0.792-0.806c-0.609,0-1.118,0.537-1.244,0.965c-0.056,0.166-0.085,0.31-0.085,0.521
					c0,0.366,0.241,0.621,0.748,0.621C71.485,225.325,72.206,224.816,72.206,224.023z M77.872,219.727l-1.326,6.913h-2.136
					l1.329-6.913H77.872z"/>
				<path fill="#4D4D4F" d="M82.262,222.413h0.81c0.676,0,1.439-0.197,1.439-0.719c0-0.455-0.438-0.666-0.989-0.666
					c-0.538,0-1.214,0.182-1.711,0.439l-0.338-1.232c0.69-0.383,1.625-0.637,2.512-0.637c1.136,0,2.673,0.338,2.673,1.782
					c0,0.962-0.89,1.47-1.765,1.642l-0.013,0.014c0.761,0.125,1.568,0.635,1.568,1.598c0,1.668-1.923,2.133-3.293,2.133
					c-1.017,0-1.98-0.198-2.743-0.693l0.524-1.354c0.552,0.325,1.297,0.563,1.991,0.563c0.649,0,1.373-0.237,1.373-0.789
					c0-0.58-0.665-0.766-1.414-0.766h-0.821L82.262,222.413z"/>
				<path fill="#4D4D4F" d="M90.719,219.727l-0.48,2.549h2.106l0.479-2.549h2.037l-1.316,6.913H91.51l0.537-2.799h-2.101
					l-0.528,2.799h-2.034l1.3-6.913H90.719z"/>
				<path fill="#4D4D4F" d="M99.843,226.64c0.013-0.409,0.04-0.878,0.081-1.373h-0.027c-0.663,1.148-1.556,1.53-2.361,1.53
					c-1.244,0-2.089-0.964-2.089-2.405c0-2.332,1.554-4.817,4.961-4.817c0.82,0,1.71,0.152,2.276,0.338l-0.693,3.617
					c-0.17,0.892-0.311,2.248-0.282,3.11H99.843z M100.392,221.171c-0.155-0.031-0.337-0.058-0.536-0.058
					c-1.33,0-2.292,1.61-2.292,2.897c0,0.678,0.271,1.144,0.834,1.144c0.621,0,1.387-0.69,1.697-2.39L100.392,221.171z"/>
				<path fill="#4D4D4F" d="M108.875,226.244c-0.804,0.409-1.808,0.554-2.586,0.554c-1.963,0-2.981-1.119-2.981-2.93
					c0-2.105,1.526-4.294,4.03-4.294c1.397,0,2.402,0.792,2.402,2.073c0,1.757-1.713,2.39-4.497,2.318
					c0.015,0.199,0.084,0.511,0.227,0.707c0.269,0.355,0.735,0.537,1.328,0.537c0.75,0,1.385-0.168,1.938-0.438L108.875,226.244z
					 M107.081,221.054c-0.947,0-1.499,0.793-1.641,1.431c1.597,0.014,2.389-0.196,2.389-0.849
					C107.829,221.3,107.547,221.054,107.081,221.054z"/>
				<path fill="#4D4D4F" d="M114.347,219.713l0.271,2.7c0.042,0.41,0.082,1.003,0.126,1.624h0.03
					c0.168-0.396,0.549-1.172,0.904-1.862l1.286-2.462h2.587l-0.917,6.927h-1.883l0.427-2.771c0.084-0.593,0.252-1.609,0.378-2.303
					h-0.056c-0.211,0.496-0.607,1.284-1.03,2.135l-1.456,2.827h-1.556l-0.27-2.743c-0.072-0.775-0.14-1.627-0.183-2.233h-0.056
					c-0.154,0.75-0.37,1.783-0.509,2.361l-0.679,2.729h-1.796l1.825-6.929H114.347L114.347,219.713z"/>
				<path fill="#4D4D4F" d="M123.02,223.925c0-2.388,1.668-4.362,4.129-4.362c1.865,0,2.939,1.269,2.939,2.852
					c0,2.529-1.74,4.384-4.129,4.384C124.194,226.798,123.02,225.65,123.02,223.925z M127.982,222.427
					c0-0.636-0.283-1.313-1.089-1.313c-1.171,0-1.765,1.71-1.765,2.785c0,0.806,0.408,1.341,1.116,1.341
					C127.345,225.239,127.982,223.599,127.982,222.427z"/>
				<path fill="#4D4D4F" d="M140.128,221.269c0,0.904-0.89,1.455-1.613,1.64v0.026c0.723,0.088,1.443,0.553,1.443,1.443
					c0,1.824-2.131,2.4-3.647,2.4c-1.778,0-2.711-0.676-2.711-2.135c0-1.271,0.548-3.531,1.795-4.437
					c0.607-0.425,1.342-0.647,2.247-0.647C139.155,219.563,140.128,220.109,140.128,221.269z M135.719,223.898
					c-0.042,0.183-0.084,0.437-0.084,0.647c0,0.482,0.239,0.835,0.918,0.835c0.793,0,1.342-0.396,1.342-0.948
					c0-0.578-0.492-0.748-1.044-0.748C136.44,223.685,135.991,223.8,135.719,223.898z M135.958,222.598
					c0.549-0.087,1.158-0.186,1.627-0.396c0.322-0.156,0.593-0.383,0.593-0.708c0-0.341-0.297-0.55-0.723-0.55
					C136.553,220.943,136.17,221.833,135.958,222.598z"/>
				<path fill="#4D4D4F" d="M146.635,226.244c-0.804,0.409-1.808,0.554-2.587,0.554c-1.963,0-2.979-1.119-2.979-2.93
					c0-2.105,1.522-4.294,4.026-4.294c1.401,0,2.405,0.792,2.405,2.073c0,1.757-1.713,2.39-4.498,2.318
					c0.016,0.199,0.088,0.511,0.227,0.707c0.271,0.355,0.734,0.537,1.331,0.537c0.749,0,1.385-0.168,1.937-0.438L146.635,226.244z
					 M144.84,221.054c-0.947,0-1.5,0.793-1.642,1.431c1.599,0.014,2.389-0.196,2.389-0.849
					C145.587,221.3,145.307,221.054,144.84,221.054z"/>
				<path fill="#4D4D4F" d="M155.302,219.713l-1.311,6.927h-2.021l1.003-5.356h-1.53l-0.269,1.314
					c-0.339,1.753-0.789,2.743-1.512,3.364c-0.506,0.494-1.128,0.776-2.147,0.776l-0.126-1.599c0.423-0.041,0.763-0.185,1.003-0.42
					c0.437-0.399,0.735-1.148,0.931-2.166l0.538-2.844h5.441V219.713z"/>
				<path fill="#4D4D4F" d="M155.971,223.925c0-2.388,1.669-4.362,4.128-4.362c1.866,0,2.938,1.269,2.938,2.852
					c0,2.529-1.737,4.384-4.126,4.384C157.144,226.798,155.971,225.65,155.971,223.925z M160.933,222.427
					c0-0.636-0.285-1.313-1.088-1.313c-1.174,0-1.766,1.71-1.766,2.785c0,0.806,0.41,1.341,1.118,1.341
					C160.296,225.239,160.933,223.599,160.933,222.427z"/>
				<path fill="#4D4D4F" d="M168.81,226.416c-0.438,0.213-1.146,0.363-1.963,0.363c-1.712,0-2.914-1.043-2.914-2.826
					c0-2.459,1.88-4.379,4.51-4.379c0.595,0,1.104,0.11,1.416,0.228l-0.512,1.567c-0.241-0.101-0.524-0.171-0.934-0.171
					c-1.442,0-2.346,1.229-2.346,2.529c0,0.945,0.608,1.427,1.358,1.427c0.59,0,1.016-0.141,1.366-0.282L168.81,226.416z"/>
				<path fill="#4D4D4F" d="M173.167,219.727l-0.709,3.703c-0.058,0.325-0.099,0.665-0.099,0.919c0,0.439,0.185,0.791,0.695,0.791
					c0.688,0,1.396-0.832,1.666-2.205l0.604-3.208h2.021l-0.874,4.665c-0.156,0.875-0.283,1.625-0.365,2.248h-1.799l0.127-1.13
					h-0.026c-0.708,0.905-1.541,1.287-2.375,1.287c-1.117,0-1.78-0.624-1.78-1.939c0-0.365,0.04-0.79,0.142-1.271l0.732-3.86
					H173.167z"/>
				<path fill="#4D4D4F" d="M177.767,226.64l0.875-4.663c0.169-0.876,0.28-1.63,0.38-2.25h1.796l-0.128,1.146h0.028
					c0.651-0.889,1.5-1.298,2.417-1.298c1.133,0,1.782,0.692,1.782,1.896c0,0.308-0.06,0.818-0.111,1.159l-0.764,4.011h-2.049
					l0.732-3.828c0.04-0.24,0.07-0.51,0.07-0.766c0-0.494-0.17-0.836-0.692-0.836c-0.665,0-1.438,0.836-1.726,2.361l-0.577,3.068
					H177.767z"/>
				<path fill="#4D4D4F" d="M191.593,226.244c-0.808,0.409-1.809,0.554-2.587,0.554c-1.964,0-2.981-1.119-2.981-2.93
					c0-2.105,1.525-4.294,4.029-4.294c1.398,0,2.401,0.792,2.401,2.073c0,1.757-1.71,2.39-4.495,2.318
					c0.013,0.199,0.086,0.511,0.226,0.707c0.27,0.355,0.739,0.537,1.331,0.537c0.75,0,1.385-0.168,1.936-0.438L191.593,226.244z
					 M189.798,221.054c-0.946,0-1.497,0.793-1.639,1.431c1.595,0.014,2.389-0.196,2.389-0.849
					C190.548,221.3,190.267,221.054,189.798,221.054z"/>
				<path fill="#4D4D4F" d="M194.663,216.477c0.606,0.171,1.457,0.14,2.065,0.196c1.043,0.113,1.838,0.369,2.428,0.921
					c0.822,0.692,1.118,1.864,1.118,3.194c0,2.642-1.172,6.009-4.341,6.009c-1.75,0-2.813-1.077-2.813-2.874
					c0-2.033,1.43-4.213,3.634-4.213c0.934,0,1.526,0.457,1.823,1.146h0.043c0.017-0.14,0.017-0.31,0.017-0.421
					c0.012-0.512-0.173-1.131-0.607-1.5c-0.452-0.438-1.116-0.577-1.979-0.635c-0.424-0.043-0.849-0.059-1.355-0.158
					L194.663,216.477z M197.929,222.651c0-0.675-0.254-1.412-1.016-1.412c-1.146,0-1.699,1.643-1.683,2.727
					c0,0.694,0.282,1.332,1.019,1.332C197.337,225.298,197.915,223.571,197.929,222.651z"/>
				<path fill="#4D4D4F" d="M205.369,226.64c0.017-0.409,0.046-0.878,0.084-1.373h-0.027c-0.664,1.148-1.554,1.53-2.36,1.53
					c-1.243,0-2.09-0.964-2.09-2.405c0-2.332,1.554-4.817,4.96-4.817c0.82,0,1.712,0.152,2.276,0.338l-0.692,3.617
					c-0.169,0.892-0.31,2.248-0.283,3.11H205.369z M205.921,221.171c-0.154-0.031-0.336-0.058-0.535-0.058
					c-1.331,0-2.292,1.61-2.292,2.897c0,0.678,0.27,1.144,0.835,1.144c0.621,0,1.388-0.69,1.694-2.39L205.921,221.171z"/>
				<path fill="#4D4D4F" d="M211.368,219.727l0.412,1.036c0.206,0.549,0.336,0.901,0.437,1.153h0.041
					c0.253-0.366,0.439-0.678,0.735-1.102l0.765-1.088h2.328l-2.908,3.364l1.611,3.547h-2.234l-0.437-1.104
					c-0.2-0.493-0.313-0.848-0.438-1.258h-0.042c-0.199,0.326-0.385,0.678-0.693,1.158l-0.834,1.203h-2.349l2.998-3.578
					l-1.623-3.336h2.23V219.727z"/>
				<path fill="#4D4D4F" d="M225.085,221.269c0,0.904-0.892,1.455-1.612,1.64v0.026c0.723,0.088,1.442,0.553,1.442,1.443
					c0,1.824-2.135,2.4-3.647,2.4c-1.779,0-2.714-0.676-2.714-2.135c0-1.271,0.55-3.531,1.795-4.437
					c0.609-0.425,1.344-0.647,2.248-0.647C224.105,219.563,225.085,220.109,225.085,221.269z M220.675,223.898
					c-0.045,0.183-0.086,0.437-0.086,0.647c0,0.482,0.24,0.835,0.917,0.835c0.794,0,1.344-0.396,1.344-0.948
					c0-0.578-0.495-0.748-1.044-0.748C221.395,223.685,220.941,223.8,220.675,223.898z M220.915,222.598
					c0.549-0.087,1.157-0.186,1.622-0.396c0.329-0.156,0.597-0.383,0.597-0.708c0-0.341-0.297-0.55-0.723-0.55
					C221.506,220.943,221.126,221.833,220.915,222.598z"/>
				<path fill="#4D4D4F" d="M230.884,226.416c-0.438,0.213-1.146,0.363-1.966,0.363c-1.708,0-2.912-1.043-2.912-2.826
					c0-2.459,1.881-4.379,4.511-4.379c0.594,0,1.104,0.11,1.412,0.228l-0.508,1.567c-0.24-0.101-0.524-0.171-0.935-0.171
					c-1.442,0-2.348,1.229-2.348,2.529c0,0.945,0.608,1.427,1.358,1.427c0.589,0,1.019-0.141,1.371-0.282L230.884,226.416z"/>
				<path fill="#4D4D4F" d="M237.611,226.244c-0.806,0.409-1.807,0.554-2.584,0.554c-1.965,0-2.981-1.119-2.981-2.93
					c0-2.105,1.526-4.294,4.026-4.294c1.4,0,2.404,0.792,2.404,2.073c0,1.757-1.713,2.39-4.496,2.318
					c0.013,0.199,0.086,0.511,0.225,0.707c0.271,0.355,0.738,0.537,1.331,0.537c0.748,0,1.382-0.168,1.937-0.438L237.611,226.244z
					 M233.868,217.878c0-0.639,0.481-1.063,1.075-1.063c0.55,0,0.918,0.412,0.918,0.936c0,0.648-0.467,1.061-1.063,1.061
					C234.306,218.808,233.868,218.456,233.868,217.878z M235.816,221.054c-0.947,0-1.494,0.793-1.64,1.431
					c1.599,0.014,2.391-0.196,2.391-0.849C236.567,221.3,236.284,221.054,235.816,221.054z M236.78,217.878
					c0-0.639,0.479-1.063,1.073-1.063c0.553,0,0.92,0.412,0.92,0.936c0,0.648-0.467,1.061-1.062,1.061
					C237.204,218.808,236.78,218.456,236.78,217.878z"/>
				<path fill="#4D4D4F" d="M238.931,225.636c0-0.75,0.566-1.414,1.372-1.414c0.679,0,1.159,0.498,1.159,1.188
					c0,0.806-0.579,1.387-1.399,1.387C239.384,226.798,238.931,226.302,238.931,225.636z M239.767,223.515l0.917-6.403h2.189
					l-1.524,6.403H239.767z"/>
			</g>
			<path fill="#0092D7" d="M299.729,182.864l-2.756,16.259h-1.867c-0.817,0-1.261-0.223-1.636-0.602
				c-0.38-0.447-0.597-0.97-0.597-1.649l0.072-0.525l2.092-13.481h-6.119l-2.313,13.861c0,0-0.078,0.303-0.078,0.753
				c0,1.645,0.603,2.999,1.724,4.114c1.041,1.05,2.384,1.654,4.103,1.654h4.099l-0.146,0.449c-0.155,0.522-0.452,0.974-0.896,1.423
				c-0.372,0.378-0.895,0.598-1.49,0.598h-8.807l-0.667,4.205h12.083c1.408,0,2.68-0.535,3.869-1.434
				c1.124-0.973,1.722-2.17,1.94-3.52l3.585-22.105H299.729z"/>
			<path fill="#0092D7" d="M268.56,216.962c0.539-0.057,1.172-0.074,1.87-0.076l1.859-13.638h5.967c1.495,0,2.755-0.532,3.799-1.425
				c1.048-0.975,1.717-2.104,1.944-3.523l1.416-8.546c0,0,0.561-2.943-1.57-5.244c-1.115-1.123-2.609-1.646-4.173-1.646h-10.219
				l-5.348,34.477C265.266,217.144,266.747,216.962,268.56,216.962z M274.898,186.912h1.938c2.61,0,2.389,2.546,2.312,2.696
				l-1.271,7.57c-0.222,1.271-0.963,1.943-2.311,1.943h-2.685L274.898,186.912z"/>
			<path fill="#0092D7" d="M294.812,217.862c-0.695,0.064-11.531,0.395-13.989,0.563c-0.026,0.131-0.046,0.262-0.075,0.387
				c-0.054,0.256-0.095,0.499-0.138,0.702c-0.198,0.339-1.072,1.622-3.098,1.943c-0.389,0.06-0.855,0.116-1.408,0.172
				c-0.834,0.075-1.856,0.133-3.069,0.133h-2.537c-1.111,0-6.376,0.296-7.598,0.518c-0.005,0-0.005,0-0.011,0.003l-0.743,4.872
				c1.194-0.308,2.907-0.454,4.927-0.454c0.675-0.074,1.563-0.074,2.608-0.074h2.607c1.189,0,2.189-0.046,3.017-0.123
				c0.573-0.051,1.062-0.108,1.459-0.174c1.342-0.301,1.93-0.416,2.605-1.422l0.348-0.555c0.028-0.156,0.063-0.374,0.114-0.633
				c0.021-0.121,0.038-0.241,0.068-0.373c0.046-0.006,0.094-0.01,0.143-0.019c1.418-0.146,3.359-0.22,5.896-0.298
				c0.969,0,2.383-0.075,4.25-0.152c1.793,0,2.979-0.07,3.806-0.15c1.268-0.066,2.312-0.301,3.06-0.521
				c0.883-0.378,1.489-0.82,1.86-1.428l0.229-0.596c0.014-0.012,0.014,0.011,0.014,0.049c0.021-0.088,0.035-0.178,0.052-0.274
				c0.153-0.526,0.298-1.423,0.521-2.697c0.074-0.448,0.147-0.9,0.224-1.276c0,0,0.104-0.512,0.134-0.637
				c0,0.002,0,0.008-0.011,0.013C299.952,215.667,298.986,217.496,294.812,217.862z"/>
			<polygon fill="#4D4D4F" points="257.97,197.552 257.482,200.563 257.361,201.328 257.075,203.099 257.128,203.099 
				257.88,203.099 262.597,203.099 263.486,197.552 			"/>
			<path fill="#FFFFFF" d="M298.542,212.466c-0.75,0.301-1.789,0.521-3.062,0.598c-0.813,0.078-8.877,0.45-8.877,0.45
				c-4.995,0.301-7.828,0.825-8.423,1.646c0,0-0.706,0.724-1.061,1.576c-0.864,0.083-1.95,0.146-3.273,0.146h-2.605
				c-0.286,0-0.555,0-0.813,0.002c-0.698,0.002-1.331,0.021-1.87,0.077c-1.813,0-3.294,0.183-4.453,0.378
				c-0.128,0.027-0.272,0.049-0.394,0.067l-0.813,4.871c1.222-0.222,6.485-0.518,7.598-0.518h2.537c1.213,0,2.235-0.058,3.069-0.135
				c0.553-0.054,1.022-0.11,1.408-0.17c2.024-0.321,2.897-1.604,3.098-1.944c0.043-0.203,0.084-0.445,0.138-0.7
				c0.029-0.126,0.049-0.257,0.075-0.388c2.458-0.168,13.294-0.496,13.989-0.563c4.175-0.366,5.141-2.195,5.264-2.505
				c0.366-1.341,1.086-4.733,1.086-4.733C301.161,210.552,300.23,212.056,298.542,212.466z"/>
			<path fill="#EC1C24" d="M298.913,220.777c-0.371,0.606-0.978,1.051-1.86,1.428c-0.748,0.222-1.792,0.455-3.06,0.521
				c-0.824,0.079-2.013,0.15-3.806,0.15c-1.865,0.077-3.281,0.152-4.25,0.152c-2.535,0.078-4.478,0.153-5.896,0.297
				c-0.049,0.009-0.097,0.013-0.143,0.02c-0.03,0.131-0.048,0.252-0.068,0.372c-0.051,0.261-0.086,0.478-0.114,0.635l-0.348,0.554
				c-0.677,1.006-1.266,1.121-2.605,1.422c-0.397,0.063-0.886,0.123-1.459,0.175c-0.826,0.075-1.826,0.123-3.017,0.123h-2.607
				c-1.047,0-1.936,0-2.608,0.073c-2.02,0-3.732,0.147-4.927,0.454l-0.741,4.869c0.671-0.069,1.863-0.15,3.729-0.217l5.068-0.086
				c2.087-0.067,3.212-0.103,4.774-0.373c2.703-0.466,3.65-2.469,3.798-2.771c0.007-0.013,0.015-0.017,0.015-0.024
				c1.639-0.316,3.771-0.511,6.401-0.571l3.87-0.149c1.345,0,2.467-0.076,3.362-0.229c4.86-0.629,6.094-2.451,6.489-5.465
				c0.062-0.463,0.243-1.648,0.243-1.906c0-0.038,0-0.061-0.014-0.049L298.913,220.777z"/>
		</g>
	</g>
</g>
<g>
	<path fill="#FF94CA" d="M57.544,165.566c0.256,0.416,0.241,0.966-0.102,1.33c-0.19,0.201-0.45,0.328-0.719,0.369
		c-0.006,1.063-0.054,2.152-0.189,3.229l1.057-1.11l-0.001-0.028c-0.009-0.047-0.019-0.091-0.027-0.138
		c-0.027-0.212-0.032-0.461,0.077-0.646c0.066-0.23,0.19-0.431,0.436-0.523c0.136-0.049,0.293-0.074,0.438-0.09
		c0.135-0.012,0.276-0.009,0.408,0.027c0.25,0.073,0.464,0.232,0.607,0.449c0.302,0.455,0.217,1.051-0.146,1.446
		c-0.185,0.2-0.428,0.345-0.698,0.392c-0.288,0.049-0.583-0.058-0.779-0.268c-0.007-0.008-0.012-0.018-0.02-0.025
		c-0.067,0.004-0.134-0.029-0.172-0.096l-1.257,1.324c-0.009,0.01-0.019,0.016-0.026,0.025c-0.191,1.148-0.496,2.271-0.966,3.314
		c0.146-0.064,0.291-0.128,0.439-0.19c0.312-0.136,0.623-0.271,0.933-0.402c-0.03-0.132-0.037-0.267-0.023-0.401
		c-0.001-0.01-0.005-0.014-0.004-0.02c0.024-0.631,0.556-1.125,1.191-1.077c0.529,0.039,0.952,0.452,1.045,0.965
		c0.103,0.542-0.19,1.106-0.695,1.329c-0.465,0.203-1.048,0.006-1.335-0.399c-0.384,0.165-0.77,0.331-1.156,0.497l-0.583,0.252
		c-0.036,0.014-0.069,0.029-0.103,0.045c-0.511,0.959-1.176,1.838-2.051,2.59c-0.212,0.184-0.453-0.18-0.243-0.361
		c0.762-0.658,1.358-1.422,1.823-2.254c-0.125-0.127-0.205-0.338-0.285-0.484c-0.108-0.191-0.217-0.38-0.322-0.57
		c-0.167-0.294-0.334-0.588-0.501-0.883c-0.258,0.102-0.548,0.113-0.818,0c-0.378-0.156-0.604-0.575-0.549-0.969
		c-0.027-0.172,0-0.355,0.067-0.518c0.064-0.16,0.171-0.307,0.316-0.412c0.408-0.305,0.998-0.266,1.406,0.01
		c0.222,0.15,0.387,0.396,0.399,0.666c0.016,0.276-0.095,0.549-0.25,0.773c-0.058,0.086-0.128,0.158-0.202,0.224l0.456,0.808
		c0.11,0.188,0.217,0.379,0.325,0.566c0.051,0.092,0.1,0.182,0.152,0.27c0.012,0.023,0.026,0.05,0.036,0.076
		c0.555-1.125,0.891-2.359,1.093-3.627l-1.236-1.963c-0.193,0.055-0.401,0.047-0.597-0.057c-0.151-0.081-0.276-0.193-0.376-0.324
		c-0.094,0-0.172-0.06-0.212-0.143c-0.081-0.166-0.106-0.352-0.083-0.529c0.009-0.059,0.02-0.121,0.038-0.179
		c0.002-0.018,0.002-0.033,0.004-0.052c0.004-0.045,0.031-0.084,0.062-0.113c0.078-0.158,0.194-0.299,0.339-0.395
		c0.368-0.243,0.875-0.182,1.206,0.101c0.34,0.285,0.415,0.774,0.226,1.169c-0.056,0.119-0.133,0.221-0.226,0.307l0.949,1.509
		c0.127-1.047,0.167-2.104,0.173-3.129c-0.071-0.019-0.142-0.038-0.207-0.071c-0.42-0.189-0.712-0.668-0.629-1.129
		c-0.006-0.096,0.006-0.189,0.034-0.283c0.099-0.35,0.389-0.539,0.721-0.639c0.268-0.08,0.55-0.095,0.816-0.001
		C57.239,165.208,57.427,165.373,57.544,165.566"/>
	<g>
		<path fill="#FF008C" d="M55.226,178.576c0.916,3.553-1.467,6.76-5.894,7.9c-4.427,1.142-8.042-0.504-8.962-4.072
			c-0.485-1.889-0.048-3.538,1.359-5.041c-1.585-0.729-2.582-1.841-2.97-3.345c-0.833-3.235,1.379-6.175,5.514-7.24
			c4.138-1.067,7.473,0.426,8.312,3.677c0.392,1.523,0.057,2.984-0.992,4.367C53.548,175.471,54.742,176.702,55.226,178.576z
			 M50.274,179.684c-0.339-1.316-1.564-1.979-3.084-1.585c-1.518,0.392-2.288,1.565-1.948,2.882
			c0.339,1.316,1.581,1.977,3.098,1.585C49.86,182.172,50.614,181,50.274,179.684z M43.566,172.943
			c0.28,1.084,1.365,1.648,2.635,1.32c1.273-0.328,1.934-1.342,1.654-2.426c-0.28-1.088-1.348-1.655-2.622-1.328
			C43.962,170.838,43.287,171.855,43.566,172.943z"/>
	</g>
	<path fill="#FF94CA" d="M44.357,186.313c-0.246-0.077-0.479-0.188-0.671-0.362c-0.04-0.023-0.084-0.037-0.125-0.061
		c-0.077-0.045-0.134-0.098-0.176-0.157c-0.064-0.026-0.127-0.052-0.189-0.081c0.024-0.025,0.042-0.057,0.047-0.1
		c0.133-1.154,0.191-2.331,0.109-3.488c-0.071-1.019-0.286-2.055-0.901-2.891c-0.233-0.315-0.639-0.681-1.05-0.438
		c-0.363,0.216-0.497,0.816-0.568,1.195c-0.183,0.963-0.019,2,0.253,2.93c0.241,0.834,0.623,1.633,1.178,2.299
		c-0.727-0.428-1.414-0.926-2.052-1.479c-0.088-0.074-0.172-0.152-0.256-0.228c0.001-0.052-0.021-0.096-0.07-0.122
		c0.003-0.004,0.004-0.007,0.007-0.013c0.325-1.36,0.313-2.925-0.224-4.235c-0.094-0.225-0.25-0.455-0.504-0.506
		c-0.282-0.059-0.529,0.145-0.625,0.398c-0.123,0.328-0.076,0.737-0.052,1.079c0.023,0.358,0.071,0.713,0.144,1.063
		c0.114,0.542,0.289,1.07,0.516,1.576c-0.668-0.669-1.294-1.39-1.859-2.146l-0.002-0.011c0.019-0.024,0.034-0.052,0.033-0.079
		c0.015-0.037,0.019-0.08,0.009-0.119c0.006-0.007,0.012-0.009,0.017-0.018c0.745-1.092,1.095-2.6,0.707-3.891
		c-0.084-0.282-0.233-0.611-0.501-0.766c-0.263-0.151-0.536,0.051-0.669,0.281c-0.158,0.271-0.201,0.605-0.25,0.91
		c-0.061,0.391-0.092,0.785-0.096,1.179c-0.001,0.567,0.055,1.13,0.17,1.683c-0.071-0.105-0.142-0.213-0.21-0.321
		c-0.241-0.384-0.464-0.78-0.662-1.185c0.017-0.052,0.007-0.109-0.042-0.16c-0.02-0.019-0.039-0.039-0.06-0.059
		c-0.026-0.057-0.051-0.111-0.076-0.166c0.012-0.017,0.022-0.037,0.026-0.061c0.201-0.873,0.263-1.768,0.179-2.66
		c-0.079-0.827-0.269-1.723-0.842-2.359c-0.23-0.254-0.534-0.406-0.876-0.285c-0.366,0.129-0.57,0.471-0.649,0.834
		c-0.189,0.859,0.068,1.752,0.414,2.539c0.378,0.857,0.874,1.684,1.533,2.357c0.294,0.629,0.649,1.232,1.041,1.811
		c-0.943-0.173-1.95-0.006-2.775,0.494c-0.223,0.136-0.487,0.297-0.595,0.547c-0.105,0.242-0.023,0.494,0.179,0.654
		c0.513,0.408,1.33,0.148,1.88-0.038c0.653-0.224,1.269-0.532,1.84-0.915c0.248,0.328,0.505,0.648,0.771,0.959
		c0.447,0.528,0.918,1.041,1.417,1.525c-1.126-0.068-2.26,0.279-3.154,0.988c-0.237,0.188-0.578,0.445-0.689,0.734
		c-0.112,0.283,0.083,0.523,0.346,0.619c0.314,0.111,0.703,0.064,1.023-0.005c0.371-0.078,0.731-0.224,1.062-0.413
		c0.676-0.393,1.218-0.956,1.718-1.55c0.04,0.006,0.08,0.013,0.119,0.021c0.719,0.653,1.489,1.249,2.32,1.753
		c0.03,0.02,0.058,0.033,0.087,0.051c-1.506,0.174-2.975,0.977-3.802,2.255c-0.228,0.351-0.436,0.802-0.369,1.231
		c0.06,0.385,0.384,0.613,0.758,0.633c0.392,0.019,0.773-0.148,1.111-0.326c0.394-0.209,0.757-0.475,1.086-0.773
		c0.786-0.718,1.388-1.613,1.971-2.496c0.022-0.031,0.027-0.064,0.025-0.096c0.623,0.313,1.271,0.568,1.941,0.76
		c0.041,0.012,0.069-0.002,0.096-0.014C44.67,186.527,44.509,186.432,44.357,186.313z"/>
	<path fill="#FF94CA" d="M63.93,180.176c-0.14,0.37-0.561,0.285-0.858,0.205c-0.329-0.084-0.656-0.168-0.985-0.255
		c0.189,0.342,0.312,0.729,0.143,1.097c-0.224,0.496-0.756,0.48-1.095,0.115c-0.428-0.46-0.726-1.051-1.044-1.588
		c-0.318-0.534-0.661-1.05-1.126-1.467c-0.606,0.078-1.206,0.179-1.802,0.307c-1.688,1.936-3.139,4.078-4.296,6.373
		c-0.108,0.216-0.431,0.023-0.323-0.188c0.629-1.25,1.344-2.456,2.14-3.605c1.924-2.791,4.298-5.26,7.004-7.291
		c-0.002-0.011-0.008-0.021-0.009-0.033c-0.024-1.453,0.141-2.934,0.706-4.283c0.132-0.316,0.283-0.627,0.462-0.916
		c0.124-0.203,0.359-0.463,0.623-0.325c0.26,0.138,0.22,0.597,0.241,0.845c0.019,0.235,0.028,0.475,0.032,0.711
		c0.632-0.725,1.444-1.273,2.367-1.568c0.221-0.07,0.497-0.154,0.714-0.023c0.192,0.117,0.221,0.342,0.143,0.533
		c-0.108,0.275-0.313,0.529-0.467,0.777c-0.069,0.109-0.138,0.219-0.207,0.33c0.354-0.148,0.724-0.27,1.105-0.334
		c0.518-0.088,1.203-0.109,1.661,0.193c0.946,0.622-0.905,1.727-1.871,2.256c0.47,0.08,0.935,0.188,1.374,0.379
		c0.422,0.182,1.006,0.497,1.055,1.019c0.061,0.647-0.706,0.743-1.177,0.79c-0.476,0.05-0.955,0.052-1.432,0.042
		c0.476,0.323,0.923,0.721,1.095,1.263c0.175,0.563-0.149,1.09-0.736,1.164c-0.644,0.079-1.316-0.334-1.831-0.664
		c-1.151-0.75-2.258-1.631-3.693-1.675c-0.05-0.001-0.086-0.021-0.113-0.046c-1.5,1.143-2.89,2.424-4.155,3.816
		c0.449-0.086,0.9-0.154,1.352-0.217c0.036-0.016,0.078-0.02,0.118-0.012c0.008-0.002,0.012-0.004,0.015-0.004
		c0.015-0.028,0.034-0.054,0.064-0.076c0.792-0.548,1.661-0.979,2.582-1.275c0.235-0.077,0.478-0.158,0.724-0.204
		c0.141-0.026,0.298,0,0.362,0.147c0.076,0.176-0.091,0.334-0.187,0.457c-0.061,0.086-0.128,0.171-0.193,0.254
		c0.3-0.039,0.601-0.052,0.903-0.025c0.313,0.028,0.944,0.045,1.07,0.406c0.136,0.387-0.345,0.646-0.629,0.771
		c-0.313,0.139-0.646,0.234-0.978,0.32c0.283,0.158,0.556,0.338,0.78,0.57C63.774,179.47,64.055,179.838,63.93,180.176"/>
	<path fill="#FF94CA" d="M26.593,172.373c-0.68-0.715-1.201-1.721-1.063-2.734c0.062-0.454,0.316-0.905,0.787-1.035
		c0.472-0.129,0.84,0.184,1.096,0.547c0.968,1.359,0.949,3.269,2.038,4.539c0.089,0.011,0.155,0.09,0.161,0.172
		c0.04,0.043,0.079,0.084,0.123,0.121c0.166,0.153-0.082,0.399-0.249,0.249c-0.056-0.052-0.108-0.108-0.161-0.163
		c-0.46,0.064-0.953-0.342-1.313-0.572C27.503,173.174,27.009,172.813,26.593,172.373"/>
	<path fill="#FF94CA" d="M30.71,176.068c-0.009,0-0.017,0.001-0.025,0.001c0.016,0.153-0.171,0.302-0.288,0.153
		c-0.033-0.042-0.068-0.083-0.106-0.12c-0.391,0.048-0.774,0.146-1.143,0.288c-0.484,0.189-0.924,0.473-1.377,0.729
		c-0.65,0.369-1.608,0.893-2.323,0.389c-0.299-0.211-0.451-0.561-0.358-0.922c0.096-0.375,0.409-0.666,0.733-0.854
		c0.754-0.443,1.734-0.578,2.597-0.547c0.652,0.022,1.462,0.115,1.992,0.553c0.1-0.01,0.199-0.018,0.299-0.021
		C30.936,175.709,30.936,176.059,30.71,176.068"/>
	<path fill="#FF94CA" d="M55.58,186.472c-0.38,0.179-0.781,0.292-1.195,0.351c0.294,0.378,0.57,0.775,0.739,1.225
		c0.15,0.404,0.23,0.938,0.009,1.332c-0.248,0.436-0.726,0.328-1.083,0.098c-0.675-0.439-1.054-1.169-1.368-1.891
		c-0.166,0.366-0.366,0.714-0.606,1.038c-0.216,0.292-0.641,0.702-1.012,0.383c-0.327-0.282-0.207-0.88-0.159-1.249
		c0.06-0.457,0.17-0.902,0.324-1.335c-0.251,0.052-0.501,0.103-0.753,0.152c-0.291,0.06-0.587,0.146-0.883,0.166
		c-0.186,0.013-0.392-0.009-0.542-0.124c-0.188-0.143-0.199-0.381-0.102-0.584c0.41-0.852,1.466-1.168,2.35-1.313
		c-0.35-0.398-0.66-0.83-0.915-1.295c-0.12-0.215-0.311-0.503-0.236-0.765c0.059-0.207,0.271-0.333,0.479-0.341
		c0.262-0.01,0.504,0.144,0.713,0.289c0.216,0.154,0.418,0.332,0.591,0.531c0.306,0.353,0.536,0.764,0.675,1.208
		c0.273-0.461,0.599-0.888,0.976-1.265c0.188-0.189,0.389-0.363,0.599-0.523c0.2-0.158,0.415-0.33,0.649-0.431
		c0.188-0.078,0.422-0.104,0.579,0.06c0.156,0.163,0.138,0.451,0.123,0.66c-0.063,0.975-0.637,1.805-1.242,2.545l1.429-0.215
		c0.324-0.048,0.933-0.086,0.874,0.42c-0.025,0.201-0.186,0.359-0.34,0.475C56.043,186.229,55.816,186.361,55.58,186.472"/>
	<path fill="#FF94CA" d="M57.936,182.517c0.066,0.096,0.104,0.223,0.095,0.341c-0.011,0.146-0.09,0.27-0.21,0.354
		c-0.11,0.074-0.243,0.105-0.372,0.122c-0.123,0.015-0.25,0.005-0.365-0.042c-0.139-0.057-0.243-0.16-0.293-0.303
		c-0.042-0.117-0.039-0.256-0.001-0.374c0.038-0.12,0.107-0.218,0.193-0.301c0.019-0.036,0.051-0.06,0.091-0.073
		c0.093-0.066,0.197-0.121,0.303-0.165c0.072-0.026,0.157,0.032,0.176,0.103c0.007,0.027,0.003,0.051-0.003,0.076
		C57.701,182.293,57.84,182.374,57.936,182.517"/>
	<path fill="#FF94CA" d="M48.393,187.771c0.225,0.384,0.118,0.895-0.192,1.197c-0.324,0.316-0.828,0.338-1.201,0.095
		c-0.38-0.247-0.55-0.709-0.394-1.141c0.075-0.211,0.211-0.393,0.396-0.523c0.138-0.098,0.371-0.193,0.525-0.105
		C47.87,187.293,48.21,187.467,48.393,187.771"/>
</g>
</svg>
