<svg xmlns="http://www.w3.org/2000/svg" width="126.787" height="28.286" viewBox="0 0 126.787 28.286"><path fill="none" d="M29.68 13.762h-2.415l-.477 2.679h2.698c.221 0 .477-.096.636-.223.156-.161.284-.351.348-.607l.129-.733a.87.87 0 0 0-.256-.832c-.219-.191-.474-.284-.663-.284zm-.766 4.434h-2.379l-.889 5.165h2.699c.222 0 .413-.095.635-.253.159-.128.251-.317.349-.574l.507-3.19c.033-.319 0-.606-.189-.798-.192-.254-.447-.35-.733-.35zm77.2 6.137a8.826 8.826 0 0 0-1.539-.639l-.103.624.363.384.151.672.303.165.159.197.053.636h1.066l-.441-.365-.112-.919h-.022l.122-.755zM9.042 6.236c-.682-.337-2.601-.98-2.601-.98l-.419.664s1.52 1.275 2.244 1.736c.722.46 2.58 1.562 2.58 1.562s.834.032 1.13.062a.096.096 0 0 0 .018.007c.28-.371.509-.754.672-1.058-.13-.152-.286-.371-.293-.572 0-.001-2.647-1.081-3.331-1.421zm57.238 5.138l-.645.392c.115.115.25.201.396.273h.31l-.061-.665zm-54.653-.648c-.018.016-.04.033-.055.048a.365.365 0 0 1-.511-.076.354.354 0 0 1 .006-.439 2.683 2.683 0 0 1-.366-.118 544.789 544.789 0 0 1-3.547-1.557L5.209 7.368 4.198 9.605c1.255 1.255 1.758 1.719 2.155 2.008.255.188.65.521.889 1.078l1.103 1.928 3.663-3.564.018-.24a.51.51 0 0 1-.222.031c-.078-.009-.134-.059-.177-.12zm-5.441 7.789l-.737 2.025 1.438-.482c-.123-.278-.397-.903-.701-1.543z"/><path fill="none" d="M7.471 21.095c-.317.065-.428-.179-.474-.428l-1.37.458v.014c0 .453-.361.82-.814.82a.815.815 0 0 1-.811-.82c0-.451.362-.819.811-.819.02 0 .042.005.062.007l.939-2.572-.101-.193c-.048-.094-.092-.201-.139-.314a3.81 3.81 0 0 0-.762-.076c-2.174 0-3.948 1.781-3.948 3.969 0 2.189 1.773 3.971 3.948 3.971 2.178 0 3.95-1.781 3.95-3.971a4.75 4.75 0 0 0-.02-.396c-.481.143-.992.29-1.271.35zm2.518-3.616s.209-.048.458-.161l1.527-5.376-3.314 3.227 1.329 2.31zm-2.394.847c.049.662.089 1.116.089 1.116s.244.153.783.194a4.002 4.002 0 0 0-.872-1.31zm-.121-1.769l.037.588a4.887 4.887 0 0 1 1.395 1.479 1.49 1.49 0 0 1 .461-.312l-.031-.046c-.563-.744-1.244-1.061-1.862-1.709zm9.841-4.979a3.919 3.919 0 0 0-2.666 1.052l2.422 2.14a.833.833 0 0 1 .244-.042c.454 0 .817.367.817.819s-.363.821-.817.821a.818.818 0 0 1-.813-.821.82.82 0 0 1 .046-.258l-2.389-2.113a3.946 3.946 0 0 0-.79 2.371c0 2.189 1.774 3.97 3.946 3.97 2.181 0 3.952-1.78 3.952-3.97 0-2.189-1.77-3.969-3.952-3.969zm90.931 16.039l-.09-.135-.291-.032-1.178-.978.033.55.855 1.264-.034-.57.452-.099z"/><path fill="#4D4D4D" d="M106.373 22.726l-.207 1.282-.052.325-.122.755h2.35l.379-2.362z"/><path fill="none" d="M77.358 22.503l.574-3.192s.088-.448-.287-.828a.935.935 0 0 0-.701-.286h-.823l-.855 5.165h1.14c.538-.001.855-.287.952-.859zm6.826-1.339c-.159.093-.253.254-.351.507l-.094.672c-.11.829.73 1.019.95 1.019h.795l.443-2.423h-1.142a.871.871 0 0 0-.601.225zm30.664 1.402l.54-3.223c.033-.063.128-1.147-.983-1.147h-.825l-.857 5.198h1.143c.572.001.887-.286.982-.828zm-14.505-.895l-.129.672c-.116.913.73 1.019.952 1.019h.794l.445-2.423h-1.173c-.19-.001-.766.115-.889.732z"/><path fill="#0095FF" d="M124.15 16.473l-1.173 6.922h-.795c-.349 0-.538-.095-.697-.256a1.036 1.036 0 0 1-.253-.702l.03-.224.89-5.74h-2.604l-.984 5.9s-.033.13-.033.321c0 .7.256 1.276.733 1.752.442.447 1.015.704 1.746.704h1.745l-.063.191a1.42 1.42 0 0 1-.382.605.875.875 0 0 1-.633.255h-3.749l-.285 1.79h5.145c.599 0 1.141-.229 1.646-.61.479-.414.732-.924.827-1.498l1.525-9.411h-2.636zm-12.047 11.356l.366-2.679h2.54a2.43 2.43 0 0 0 1.617-.607c.445-.414.73-.894.827-1.499l.603-3.638s.238-1.253-.668-2.233c-.476-.478-1.11-.7-1.776-.7h-4.35L109.5 27.829h2.603zm1.477-9.633h.825c1.111 0 1.017 1.084.983 1.147l-.54 3.223c-.095.542-.41.828-.983.828h-1.143l.858-5.198zm-10.023 4.437c.267.313.574.646.922 1.009l.028.031.04.012.027.01.058-.353c-.354-.374-.67-.717-.933-1.033-.047.107-.096.213-.142.324zm-5.158.222c.371.354.65.518.913.518h.003c.179-.024.414-.157.595-.626a7.535 7.535 0 0 1-.213-.354c-.003.016-.012.031-.016.046-.104.364-.256.598-.387.616-.165 0-.428-.177-.775-.526l-.101-.101-.742.604-.057.006c.017.108.044.211.073.313l.108-.013.599-.483z"/><path fill="#4D4D4D" d="M17.15 10.732c-1.281 0-2.282.497-3.147 1.327l-1.251-1.109.09-1.479c0-.018.018-.122.018-.138.19-.287.347-.561.47-.789a.971.971 0 0 0 .233-.099c.323-.185.375-.527.451-.79.044-.158-.053-.349-.184-.482-.042-.039-.216-.246-.448-.287a29.294 29.294 0 0 1-.816-.162L9.289 4.916C7.77 4.193 6.854 3.738 6.232 3.48l.011-.021s.767.288 1.096-.271c.082-.14.104-.199.178-.332.018.004.033.008.048.01.152.034.275.011.231-.178-.04-.172.088-.619.088-.619l-.007.001c.002-.002.002-.002.002-.006.316-.074.578-.25.698-.593C8.932.483 7.214-.302 5.886.113c-.923.289-1.102.643-1.102.643s.152.188.39.41c-.125.237-.197.533-.24.854a2.277 2.277 0 0 1-.148.427 3.685 3.685 0 0 1-.473.523c-.459.41-.894.585-1.193.957a.144.144 0 0 0-.027.05c-.259.24-.517.543-.76.923A40.275 40.275 0 0 0 .348 8.479s-.733 1.604-.07 2.74c.284.494 1.303 1.046 2.041 1.394 1.346.63 2.753 1.644 2.753 1.644s.051 1.079.256 2.084c-.17-.02-.34-.03-.515-.03-2.648 0-4.805 2.166-4.805 4.829 0 2.665 2.156 4.831 4.805 4.831 2.65 0 4.806-2.166 4.806-4.831l-.002-.04c.105.024.215.04.329.04a1.47 1.47 0 0 0 1.469-1.474c0-.486-.239-.914-.598-1.183.379-.524.878-1.215.98-1.352.169-.231-.031-.325-.031-.325s-.279-.282-.486-.168l1.361-4.802.872.771a4.826 4.826 0 0 0-1.001 2.939c0 2.662 2.158 4.83 4.804 4.83 2.647 0 4.643-2.152 4.643-4.814s-2.158-4.83-4.809-4.83zM4.813 25.109c-2.174 0-3.948-1.781-3.948-3.971 0-2.188 1.773-3.969 3.948-3.969.261 0 .518.026.762.076.046.113.09.221.139.314l.101.193-.939 2.572c-.02-.002-.042-.007-.062-.007a.815.815 0 0 0-.811.819c0 .453.362.82.811.82a.814.814 0 0 0 .814-.82v-.014l1.37-.458c.046.249.157.493.474.428.278-.06.79-.207 1.271-.352.011.131.02.264.02.396-.001 2.192-1.773 3.973-3.95 3.973zm1.373-6.594c.304.641.578 1.266.701 1.543l-1.438.482.737-2.025zm1.409-.189c.371.371.669.813.872 1.311-.539-.041-.783-.194-.783-.194s-.04-.455-.089-1.117zm1.31.298a4.84 4.84 0 0 0-1.395-1.479l-.037-.588c.618.648 1.299.966 1.862 1.71l.031.046a1.47 1.47 0 0 0-.461.311zm1.543-1.307a2.73 2.73 0 0 1-.458.161l-1.329-2.311 3.314-3.227-1.527 5.377zm1.56-6.262l-3.663 3.564-1.103-1.928a2.618 2.618 0 0 0-.889-1.078c-.397-.289-.9-.753-2.155-2.008l1.011-2.237 1.945 1.215s3.219 1.423 3.547 1.557c.144.059.265.093.366.118a.355.355 0 0 0-.006.439.365.365 0 0 0 .511.076c.015-.015.037-.032.055-.048.043.062.098.111.176.12a.51.51 0 0 0 .222-.031l-.017.241zm-.015-1.769a.096.096 0 0 1-.018-.007c-.296-.029-1.13-.062-1.13-.062s-1.857-1.102-2.58-1.562c-.723-.46-2.243-1.735-2.243-1.735l.419-.664s1.919.644 2.601.98c.684.34 3.33 1.42 3.33 1.42.007.201.163.42.293.572a8.303 8.303 0 0 1-.672 1.058zm5.322 10.231c-2.172 0-3.946-1.78-3.946-3.97 0-.888.294-1.707.79-2.371l2.389 2.113a.82.82 0 0 0-.046.258c0 .452.364.821.813.821.454 0 .817-.369.817-.821s-.363-.819-.817-.819a.833.833 0 0 0-.244.042l-2.422-2.14a3.924 3.924 0 0 1 2.666-1.052c2.181 0 3.952 1.78 3.952 3.969s-1.77 3.97-3.952 3.97z"/><path fill="none" d="M36.156 19.152l-.256 1.436h1.965l.228-1.244c.06-.384.142-1.147-1.02-1.147-.507-.001-.824.318-.917.955z"/><path fill="#4D4D4D" d="M32.122 17.652c.033 0 .064-.032.064-.032.443-.415.698-.893.825-1.468l.223-1.627c0-.701-.223-1.275-.699-1.722a2.329 2.329 0 0 0-1.746-.765h-6.634L21.994 25.12h7.366c.668 0 1.207-.196 1.681-.577.446-.414.732-.894.827-1.468 0 0 .651-4.051.667-4.115.114-.498-.132-.955-.413-1.308zm-2.286 1.692l-.507 3.19c-.098.257-.19.446-.349.574-.222.158-.413.253-.635.253h-2.699l.889-5.165h2.379c.286 0 .541.096.733.35.189.191.222.478.189.798zm.764-4.467l-.129.733a1.293 1.293 0 0 1-.348.607c-.16.127-.415.223-.636.223h-2.698l.477-2.679h2.415c.189 0 .443.094.664.283a.873.873 0 0 1 .255.833zM53.423 25.12c.569 0 1.079-.227 1.586-.61.477-.413.763-.891.855-1.401l.636-3.956c.137-.73-.189-1.5-.695-1.947-.445-.478-1.05-.7-1.749-.7h-2.22c-.571 0-1.081.159-1.558.542-.478.286-.764.766-.856 1.402l-.605 3.733c0 .065-.029.224-.029.445 0 .705.254 1.277.698 1.757.507.478 1.079.735 1.747.735h2.19zm-1.939-2.907l.509-3.188c.097-.575.413-.828.889-.828 1.067 0 1.015.925.986 1.084l-.54 3.223c-.095.572-.413.858-.951.858-.256-.001-1.076-.001-.893-1.149zm-4.219 2.907l1.366-8.584h-2.793c-1.078 0-1.873.478-2.351 1.501L40.09 25.12h2.571l3.111-6.828-1.109 6.828h2.602zm-7.271-7.884c-.474-.509-1.049-.731-1.713-.731h-1.227l-1.329.024a2.577 2.577 0 0 0-.303.06 2.365 2.365 0 0 0-.921.458c-.474.384-.758.86-.858 1.436l-.602 3.667c0 .099-.031.257-.031.446 0 .671.253 1.278.697 1.789.224.225.479.415.764.539.06.024.119.035.179.056.104.034.208.071.313.093.153.03.306.048.46.048h4.348l.223-1.759H36.63a.984.984 0 0 1-.7-.286.995.995 0 0 1-.284-.702v-.03h4.569l.476-2.969c.033-.095.081-1.378-.697-2.139zm-1.901 2.108l-.228 1.244H35.9l.256-1.436c.093-.638.411-.956.917-.956 1.162 0 1.079.764 1.02 1.148z"/><path fill="#0095FF" d="M90.406 16.505L89.01 25.12h2.603l.666-4.182h1.967l-.665 4.182h2.602l1.4-8.615h-2.604l-.448 2.742h-1.965l.444-2.742zM74.567 27.829l.475-2.741h2.479c.633 0 1.174-.226 1.585-.607.444-.445.731-.926.826-1.5 0 0 .634-3.828.634-4.021.083-.696-.222-1.275-.729-1.755-.446-.51-1.018-.732-1.719-.732h-4.281l-1.875 11.356h2.605zm1.554-9.633h.823c.289 0 .511.096.701.286.375.38.287.828.287.828l-.574 3.192c-.097.572-.414.858-.953.858h-1.14l.856-5.164zm7.587 1.051c-1.239 0-2.193.62-2.412 1.946l-.162 1.055c0 .095-.03.224-.03.38 0 .705.252 1.277.697 1.757.512.478 1.082.735 1.746.735h4.318s.984-5.999.984-6.191c.125-.714-.222-1.214-.731-1.692-.476-.509-1.05-.731-1.747-.731h-4.28l-.257 1.691h3.399c.251 0 .506.096.73.35.22.255.316.479.251.701h-2.506zm1.777 4.114h-.795c-.22 0-1.061-.189-.95-1.019l.094-.672c.098-.253.191-.414.351-.507a.876.876 0 0 1 .603-.226h1.142l-.445 2.424zM69.232 25.12l1.109-6.893h1.97l.285-1.722h-6.541l-.285 1.722h1.971l-1.079 6.893z"/><path fill="#0095FF" d="M61.836 14.366c.095-.444.412-.636.949-.636h4.638l.253-1.691h-6.822c-.076.004-.146.018-.218.027a2.464 2.464 0 0 0-1.181.462c-.053.038-.108.071-.159.114-.022.018-.04.04-.062.059-.372.316-.612.742-.762 1.313l-1.367 8.199-.033.448c0 .639.256 1.213.73 1.724.51.478 1.082.735 1.717.735h6.03l.253-1.759h-4.284c-1.203 0-1.016-.795-.987-1.113l1.305-7.882zm42.757 2.87c-.473-.509-1.045-.731-1.742-.731h-4.283l-.255 1.691h3.396c.284 0 .539.096.73.35.218.255.316.479.253.701h-2.603c-1.079 0-1.842.575-2.222 1.691l-.097.255-.159 1.055c0 .095-.029.224-.029.38 0 .144.018.277.037.41l.057-.006.742-.604.101.101c.348.35.61.526.775.526.131-.019.283-.252.387-.616.004-.015.013-.03.016-.046.068.122.141.24.213.354-.181.469-.416.602-.595.626h-.003c-.263 0-.542-.163-.913-.518l-.598.482-.108.013c.112.387.305.731.583 1.034.512.478 1.084.735 1.748.735h4.316l.067-.408.064-.394.103-.624-.027-.01-.04-.012-.028-.031a22.663 22.663 0 0 1-.922-1.009c.046-.11.095-.217.143-.324.263.316.578.659.933 1.033l.662-4.031c.03-.063.03-.189.03-.382a2.23 2.23 0 0 0-.732-1.691zm-2.633 6.125h-.794c-.222 0-1.068-.105-.952-1.019l.129-.672c.123-.617.699-.732.89-.732h1.173l-.446 2.423z"/></svg>