<svg version="1.1" id="Слой_1" xmlns="http://www.w3.org/2000/svg" x="0" y="0" width="245.092" height="50.522" viewBox="0 0 245.092 50.522" xml:space="preserve"><g id="g38"><path fill="#FF0303" d="M17.68.039h-5.792C6.2.039 1.372 4.372 1.372 12.781c0 5.045 2.338 8.764 6.503 10.6L.102 37.446c-.254.459 0 .814.406.814h3.607c.306 0 .508-.102.609-.355l7.062-13.812h2.541v13.812c0 .152.152.355.355.355h3.149c.306 0 .407-.153.407-.406V.551c.001-.359-.202-.512-.558-.512zm-3.353 20.793h-2.134c-3.353 0-6.604-2.445-6.604-8.561 0-6.372 3.048-8.97 6.147-8.97h2.591v17.531z" id="path40"/><path fill="none" d="M48.613 19.488c-.356 6.115-1.371 11.109-3.962 15.542h7.364V15.92h-3.251c.001.867-.05 2.243-.151 3.568z" id="path42"/><path fill="none" d="M67.716 15.258c-1.778 0-2.847 2.191-3.302 6.522-.103.817-.103 1.58-.103 1.58s1.829-.202 2.997-.202h3.353s0-.918-.05-1.733c-.255-3.925-1.269-6.167-2.895-6.167z" id="path44"/><path d="M36.776 12.711h-3.149c-.255 0-.407.202-.407.355V22.8h-5.843v-9.734c0-.256-.102-.355-.354-.355h-3.151c-.252 0-.406.152-.406.355v24.768c0 .255.102.408.355.408h3.202c.202 0 .354-.153.354-.408V26.012h5.843v11.822c0 .255.152.408.407.408h3.149c.254 0 .355-.204.355-.408V13.066a.346.346 0 0 0-.355-.355z" id="path46"/><path d="M108.695 36.611l-.408-1.732c-.049-.153-.1-.204-.253-.204-.254 0-1.626.56-3.606.56-3.861 0-5.74-3.719-5.74-9.631 0-5.199 1.574-10.346 4.216-10.346.711 0 1.574.203 2.945 1.479.153.152.255.203.406.203.153 0 .307-.103.459-.357l1.371-2.24a.828.828 0 0 0 .153-.461c0-.204-.204-.355-.509-.509-2.083-1.07-3.505-1.275-4.726-1.275-4.773 0-8.481 5.709-8.481 14.626 0 7.695 3.555 12.13 8.635 12.13 2.135 0 4.421-1.02 5.335-1.683a.51.51 0 0 0 .203-.56z" id="path48"/><path d="M86.613 24.227l6.099-11.16c.101-.153.05-.355-.153-.355h-2.997c-.864 0-1.169.304-1.474.967l-4.573 9.531c-.254.56-.508.916-.763 1.07V13.066c0-.203-.102-.355-.304-.355h-3.303c-.15 0-.304.152-.304.355v24.82c0 .151.102.355.304.355h3.303c.202 0 .304-.153.304-.355V25.094c.153.102.255.255.357.459l5.792 11.924c.305.612.762.766 1.422.766h3.25c.204 0 .255-.204.154-.355l-7.114-13.661z" id="path50"/><path d="M57.504 35.03h-.609c-.763 0-.966-.305-.966-.917V13.066c0-.256-.101-.355-.304-.355H45.463c-.252 0-.406.152-.406.355V14.9c0 6.167-.354 14.116-3.605 20.13h-1.118c-.306 0-.407.155-.407.41v7.439c0 .256.202.355.355.355h2.439c.559 0 .761-.406.761-.766V38.24h10.873v4.638c0 .203.151.355.354.355h2.592c.305 0 .608-.254.608-.766V35.44c0-.254-.151-.41-.405-.41zm-5.488 0h-7.364c2.591-4.433 3.605-9.427 3.962-15.542.101-1.325.151-2.701.151-3.568h3.251v19.11z" id="path52"/><path d="M67.868 12.098c-5.486 0-7.925 6.932-7.925 14.473 0 7.697 3.454 12.283 8.533 12.283 2.489 0 4.675-.967 5.793-1.683.203-.102.253-.255.203-.458l-.407-1.733c-.051-.203-.152-.305-.407-.305-.201 0-1.676.56-3.76.56-3.91 0-5.739-3.415-5.739-7.896v-1.208s1.981.237 3.149.237h7.419v-2.141c.001-7.898-2.796-12.129-6.859-12.129zm-.559 11.06c-1.168 0-2.997.202-2.997.202s0-.763.103-1.58c.455-4.331 1.523-6.522 3.302-6.522 1.626 0 2.641 2.242 2.896 6.167.05.815.05 1.733.05 1.733h-3.354z" id="path54"/></g><path d="M143.655 20.418c-.291-6.067-.583-12.25-.408-16.859h-.292c-.934 4.491-1.982 9.1-3.5 14.643l-5.718 21.119h-1.282l-5.427-20.068c-1.633-6.126-2.858-10.969-3.733-15.693h-.234c.117 4.841-.116 10.676-.408 17.326l-.758 18.436h-2.509L121.429 0h2.916l5.483 20.303c1.459 5.309 2.45 8.867 3.385 13.358h.174c.876-4.55 1.75-7.876 3.15-13.358L141.847 0h3.15l2.159 39.32h-2.567l-.934-18.902zm21.933 12.602c0 2.042 0 4.551.231 6.301h-2.332l-.234-3.092h-.175c-1.049 2.159-2.858 3.559-5.25 3.559-3.443 0-6.185-2.918-6.185-7.7 0-6.768 5.076-9.918 11.435-9.977v-1.05c0-4.784-.758-7.993-4.842-7.993-1.4 0-2.859.525-3.967 1.342l-.7-1.925c.933-.816 3.091-1.635 5.191-1.635 3.792 0 6.827 2.218 6.827 8.927V33.02zm-2.51-8.75c-2.158 0-8.809.175-8.809 7.643 0 4.199 2.041 5.658 3.908 5.658 2.392 0 4.259-1.925 4.783-5.309.117-.643.117-1.283.117-1.81V24.27zm9.331-4.318c0-4.901-.175-7.117-.233-8.635h2.392l.118 3.733h.115c1.751-3.442 4.025-4.201 5.952-4.201 4.083 0 7.759 4.201 7.759 14.353 0 10.677-4.26 14.585-8.401 14.585-2.858 0-4.316-1.809-5.075-3.559h-.118v14.294h-2.508v-30.57zm2.508 9.042c0 .758 0 1.518.118 2.275 1.05 5.426 3.675 6.301 5.133 6.301 4.377 0 5.718-5.834 5.718-12.251 0-6.125-1.458-12.252-5.833-12.252-2.568 0-4.844 3.442-5.076 6.768-.06.759-.06 1.458-.06 2.218v6.941zM196.5 11.317v12.776h.525l8.927-12.776h3.15l-9.744 12.952c4.551.466 6.768 3.908 7.993 7.934.759 2.45 1.283 4.843 2.217 7.117h-2.684c-.7-1.866-1.341-4.143-2.041-6.359-1.343-4.491-3.15-6.884-7.935-6.884h-.408V39.32h-2.509V11.317h2.509zm18.315 12.953c0 11.259 3.909 13.185 7.06 13.185 1.809 0 3.267-.466 4.201-1.108l.584 1.924c-1.343.935-3.385 1.4-5.251 1.4-6.126 0-9.16-5.775-9.16-14.234 0-8.868 3.209-14.586 8.342-14.586 5.543 0 7.06 6.827 7.06 11.785v1.635h-12.836zm10.153-2.043c.116-6.883-2.743-9.159-4.785-9.159-3.267 0-5.017 4.667-5.31 9.159h10.095zm20.124-10.91v2.218h-6.476V39.32h-2.509V13.535h-6.477v-2.218h15.462z"/></svg>