<svg version="1.1" id="Слой_1" xmlns="http://www.w3.org/2000/svg" x="0" y="0" width="162.3" height="22.1" viewBox="0 0 162.3 22.1" xml:space="preserve"><path d="M7.6 1.7H6.3c-.5 0-.9.1-1.3.3s-.7.4-1 .8-.6.9-.7 1.5c-.2.6-.3 1.3-.3 2.2 0 .8.1 1.5.3 2 .2.6.5 1 .8 1.4s.7.6 1.1.8.9.3 1.3.3h1.1V1.7zM2.4 20.2H0l4.2-7.8C3 11.8 2.1 11 1.6 10S.8 7.8.8 6.5c0-1 .1-2 .4-2.8s.7-1.5 1.2-2c.5-.6 1.1-1 1.8-1.2C4.9.1 5.6 0 6.3 0h3.3v20.2h-2v-7.5H6.3l-3.9 7.5z" fill="#da0100"/><path d="M48.9 6.7h-2.2l-2.8 5.8-.3.3V6.7h-2.1v13.4h2.1v-6.9l.3.3 3.2 6.6h2.3l-3.7-7.4zm-13-.4c-.7 0-1.4.2-1.9.6s-1 1-1.3 1.7c-.3.7-.6 1.5-.8 2.4-.1 1-.2 2-.2 3 0 2.1.4 3.7 1.2 4.8.8 1.1 1.9 1.7 3.3 1.7.7 0 1.3-.1 1.8-.3l1.5-.6-.2-1.5c-.2.1-.6.2-1 .3-.4.1-.8.2-1.2.2-1.1 0-1.8-.4-2.3-1.2-.5-.8-.7-2-.7-3.4h5.6v-1.2c0-2.1-.3-3.7-1-4.8-.9-1.1-1.8-1.7-2.8-1.7zm1.4 5.9h-3.5c0-.6.1-1.1.2-1.6s.2-.9.4-1.3.3-.7.6-.9c.2-.3.5-.4.8-.4.4 0 .8.3 1 .9.3.6.4 1.4.5 2.4v.9zM17.6 12h-3.1V6.7h-2.1v13.4h2.1v-6.4h3.1v6.4h2.1V6.7h-2.1zm38.7 6.4c-.4.1-.8.2-1.2.2-1 0-1.8-.5-2.2-1.4-.5-.9-.7-2.2-.7-3.7 0-.7.1-1.3.2-2s.3-1.2.4-1.7c.2-.5.4-.9.7-1.2s.6-.5 1-.5c.3 0 .6.1.9.3.3.2.6.4.8.7l1.1-1.8c-.4-.3-.8-.5-1.2-.6-.5-.2-1-.2-1.6-.2s-1.2.2-1.8.5c-.6.4-1 .9-1.4 1.5-.4.7-.7 1.5-1 2.4-.2.9-.4 2-.4 3.1 0 2.1.4 3.7 1.2 4.8s1.9 1.7 3.3 1.7c.6 0 1.2-.1 1.7-.3.5-.2.9-.4 1.3-.6l-.2-1.6c-.2.2-.5.3-.9.4zm-27-11.7h-5.9v3.7c0 .9-.1 1.8-.2 2.7s-.3 1.8-.5 2.7c-.2.9-.6 1.8-1 2.5h-.8v4.3h1.9V20h5.8v2.6h1.9v-4.3h-1V6.7h-.2zm-2 11.7h-3.7c.3-.6.6-1.3.9-2 .2-.8.4-1.6.5-2.5l.3-2.7c.1-.9.1-1.8.1-2.6v-.3h2l-.1 10.1zm81.8-.7zm-2.9-11.2c-2.2 0-3.8 2.5-3.8 6.8s1.3 6.8 4.1 6.8c2.1 0 3.1-1.5 3.1-1.5l-.4-1s-.9 1.4-2.7 1.4c-1.9 0-2.8-2-2.9-5.6h6c.3-4.6-1.1-6.9-3.4-6.9zm2.2 6.1h-4.8c.1-3.3 1.2-5.1 2.6-5.1 1.3 0 2.4 1.6 2.2 5.1zm2.5-5.9v1h3.1v12.2h1.2V7.7h3v-1zm-9.8 0h-1.2l-4.4 6.2V6.7h-1.2v13.2h1.2v-6.8l4.6 6.8h1.3l-4.6-7.1zm-33.6 6.5c-.1.5-.3 1.5-.4 2.2H67c-.1-.7-.3-1.7-.4-2.2l-3.1-12H62v18.7h1.1V6.8c0-.9 0-1.9-.1-2.8h.1c.2.9.4 1.7.6 2.7L66.5 17h1l2.8-10.4c.2-.8.4-1.5.6-2.6h.1c0 1-.1 1.9-.1 2.8v13.1h1.3V1.2h-1.5l-3.2 12zm14-2.9c0-2.6-1.2-3.8-3.4-3.8-1.5 0-2.6.7-3.1 1.3l.3 1.2c.6-.9 1.6-1.4 2.8-1.4 1.4 0 2.2.9 2.2 2.9v1.6h-1.4c-2.8 0-4.4 1.5-4.4 4.3 0 2.4 1.2 3.8 3 3.8 1.3 0 2.2-.8 2.9-2 .1.9.2 1.4.3 1.8h1.1c-.2-.5-.3-1.5-.3-2.4v-7.3zm-1.2 6.3c-.5 1.4-1.3 2.6-2.6 2.6s-2.1-1.1-2.1-2.9c0-2.3 1-3.3 3.2-3.3h1.4l.1 3.6zm8.2-10.1c-1.5 0-2.4 1.2-3 2.4l-.1-2.2h-1.1V24h1.2v-5c.5.7 1.4 1.1 2.3 1.1 2.5 0 4.1-2.4 4.1-7.2 0-3.8-1.3-6.4-3.4-6.4zm-.6 12.7c-1.2 0-1.9-.5-2.4-1.6v-7.4c.6-1.4 1.6-2.7 2.7-2.7 1.5 0 2.5 2 2.5 5.5 0 4.2-1.1 6.2-2.8 6.2z" fill="#171717"/><path fill="#98b42a" d="M156.6 22.1h-27.2V.5h27.2l5.8 10.2z"/><path fill="none" d="M135.9 6.7h46.2v40h-46.2z"/><text transform="translate(135.883 16.054)" font-size="13.008" font-family="ArialMT" fill="#fff">4.0</text></svg>